<mxfile host="app.diagrams.net" agent="Mozilla/5.0 (Windows NT 10.0; Win64; x64) AppleWebKit/537.36 (KHTML, like Gecko) Chrome/130.0.0.0 Safari/537.36" version="24.8.3" pages="9">
  <diagram name="SEMANA 02/09" id="gyu-Gruc1aHMChO2yjTN">
    <mxGraphModel grid="1" page="1" gridSize="10" guides="1" tooltips="1" connect="1" arrows="1" fold="1" pageScale="1" pageWidth="850" pageHeight="1100" math="0" shadow="0">
      <root>
        <mxCell id="0" />
        <mxCell id="1" parent="0" />
        <mxCell id="5hKzhQ0BJxo4T11ApE9C-1" value="1" style="ellipse;whiteSpace=wrap;html=1;aspect=fixed;" vertex="1" parent="1">
          <mxGeometry x="20" y="240" width="80" height="80" as="geometry" />
        </mxCell>
        <mxCell id="5hKzhQ0BJxo4T11ApE9C-4" value="2" style="ellipse;whiteSpace=wrap;html=1;aspect=fixed;" vertex="1" parent="1">
          <mxGeometry x="300" y="240" width="80" height="80" as="geometry" />
        </mxCell>
        <mxCell id="5hKzhQ0BJxo4T11ApE9C-5" value="" style="endArrow=classic;html=1;rounded=0;entryX=0;entryY=0.5;entryDx=0;entryDy=0;strokeWidth=2;" edge="1" parent="1" target="5hKzhQ0BJxo4T11ApE9C-4">
          <mxGeometry width="50" height="50" relative="1" as="geometry">
            <mxPoint x="100" y="280" as="sourcePoint" />
            <mxPoint x="150" y="230" as="targetPoint" />
          </mxGeometry>
        </mxCell>
        <mxCell id="5hKzhQ0BJxo4T11ApE9C-6" value="Reunião com o cliente" style="text;html=1;align=center;verticalAlign=middle;resizable=0;points=[];autosize=1;strokeColor=none;fillColor=none;" vertex="1" parent="1">
          <mxGeometry x="130" y="250" width="140" height="30" as="geometry" />
        </mxCell>
        <mxCell id="5hKzhQ0BJxo4T11ApE9C-7" value="1" style="text;html=1;align=center;verticalAlign=middle;resizable=0;points=[];autosize=1;strokeColor=none;fillColor=none;" vertex="1" parent="1">
          <mxGeometry x="185" y="280" width="30" height="30" as="geometry" />
        </mxCell>
        <mxCell id="5hKzhQ0BJxo4T11ApE9C-8" value="3" style="ellipse;whiteSpace=wrap;html=1;aspect=fixed;" vertex="1" parent="1">
          <mxGeometry x="560" y="240" width="80" height="80" as="geometry" />
        </mxCell>
        <mxCell id="5hKzhQ0BJxo4T11ApE9C-9" value="" style="endArrow=classic;html=1;rounded=0;entryX=0;entryY=0.5;entryDx=0;entryDy=0;strokeWidth=2;" edge="1" parent="1" target="5hKzhQ0BJxo4T11ApE9C-8">
          <mxGeometry width="50" height="50" relative="1" as="geometry">
            <mxPoint x="380" y="280" as="sourcePoint" />
            <mxPoint x="430" y="230" as="targetPoint" />
          </mxGeometry>
        </mxCell>
        <mxCell id="5hKzhQ0BJxo4T11ApE9C-10" value="Escrita dos requisitos" style="text;html=1;align=center;verticalAlign=middle;resizable=0;points=[];autosize=1;strokeColor=none;fillColor=none;" vertex="1" parent="1">
          <mxGeometry x="400" y="250" width="140" height="30" as="geometry" />
        </mxCell>
        <mxCell id="5hKzhQ0BJxo4T11ApE9C-11" value="5" style="text;html=1;align=center;verticalAlign=middle;resizable=0;points=[];autosize=1;strokeColor=none;fillColor=none;" vertex="1" parent="1">
          <mxGeometry x="455" y="280" width="30" height="30" as="geometry" />
        </mxCell>
        <mxCell id="5hKzhQ0BJxo4T11ApE9C-12" value="4" style="ellipse;whiteSpace=wrap;html=1;aspect=fixed;" vertex="1" parent="1">
          <mxGeometry x="880" y="240" width="80" height="80" as="geometry" />
        </mxCell>
        <mxCell id="5hKzhQ0BJxo4T11ApE9C-13" value="" style="endArrow=classic;html=1;rounded=0;entryX=0;entryY=0.5;entryDx=0;entryDy=0;strokeWidth=2;" edge="1" parent="1" target="5hKzhQ0BJxo4T11ApE9C-12">
          <mxGeometry width="50" height="50" relative="1" as="geometry">
            <mxPoint x="640" y="280" as="sourcePoint" />
            <mxPoint x="690" y="230" as="targetPoint" />
          </mxGeometry>
        </mxCell>
        <mxCell id="5hKzhQ0BJxo4T11ApE9C-14" value="Revisão dos requisitos" style="text;html=1;align=center;verticalAlign=middle;resizable=0;points=[];autosize=1;strokeColor=none;fillColor=none;" vertex="1" parent="1">
          <mxGeometry x="690" y="250" width="140" height="30" as="geometry" />
        </mxCell>
        <mxCell id="5hKzhQ0BJxo4T11ApE9C-17" value="5" style="text;html=1;align=center;verticalAlign=middle;resizable=0;points=[];autosize=1;strokeColor=none;fillColor=none;" vertex="1" parent="1">
          <mxGeometry x="745" y="280" width="30" height="30" as="geometry" />
        </mxCell>
        <mxCell id="5hKzhQ0BJxo4T11ApE9C-26" value="5" style="ellipse;whiteSpace=wrap;html=1;aspect=fixed;" vertex="1" parent="1">
          <mxGeometry x="1200" y="240" width="80" height="80" as="geometry" />
        </mxCell>
        <mxCell id="5hKzhQ0BJxo4T11ApE9C-27" value="" style="endArrow=classic;html=1;rounded=0;entryX=0;entryY=0.5;entryDx=0;entryDy=0;strokeWidth=2;" edge="1" parent="1" target="5hKzhQ0BJxo4T11ApE9C-26">
          <mxGeometry width="50" height="50" relative="1" as="geometry">
            <mxPoint x="960" y="280" as="sourcePoint" />
            <mxPoint x="1010" y="230" as="targetPoint" />
          </mxGeometry>
        </mxCell>
        <mxCell id="5hKzhQ0BJxo4T11ApE9C-31" value="Correção dos requisitos" style="text;html=1;align=center;verticalAlign=middle;resizable=0;points=[];autosize=1;strokeColor=none;fillColor=none;" vertex="1" parent="1">
          <mxGeometry x="1005" y="250" width="150" height="30" as="geometry" />
        </mxCell>
        <mxCell id="5hKzhQ0BJxo4T11ApE9C-32" value="5" style="text;html=1;align=center;verticalAlign=middle;resizable=0;points=[];autosize=1;strokeColor=none;fillColor=none;" vertex="1" parent="1">
          <mxGeometry x="1065" y="280" width="30" height="30" as="geometry" />
        </mxCell>
        <mxCell id="5hKzhQ0BJxo4T11ApE9C-45" value="6" style="ellipse;whiteSpace=wrap;html=1;aspect=fixed;" vertex="1" parent="1">
          <mxGeometry x="1475" y="240" width="80" height="80" as="geometry" />
        </mxCell>
        <mxCell id="5hKzhQ0BJxo4T11ApE9C-46" value="" style="endArrow=classic;html=1;rounded=0;entryX=0;entryY=0.5;entryDx=0;entryDy=0;strokeWidth=2;" edge="1" parent="1" target="5hKzhQ0BJxo4T11ApE9C-45">
          <mxGeometry width="50" height="50" relative="1" as="geometry">
            <mxPoint x="1280" y="280" as="sourcePoint" />
            <mxPoint x="1330" y="230" as="targetPoint" />
          </mxGeometry>
        </mxCell>
        <mxCell id="5hKzhQ0BJxo4T11ApE9C-47" value="Escrita dos diagramas UML" style="text;html=1;align=center;verticalAlign=middle;resizable=0;points=[];autosize=1;strokeColor=none;fillColor=none;" vertex="1" parent="1">
          <mxGeometry x="1300" y="250" width="170" height="30" as="geometry" />
        </mxCell>
        <mxCell id="5hKzhQ0BJxo4T11ApE9C-48" value="5" style="text;html=1;align=center;verticalAlign=middle;resizable=0;points=[];autosize=1;strokeColor=none;fillColor=none;" vertex="1" parent="1">
          <mxGeometry x="1370" y="280" width="30" height="30" as="geometry" />
        </mxCell>
        <mxCell id="5hKzhQ0BJxo4T11ApE9C-49" value="7" style="ellipse;whiteSpace=wrap;html=1;aspect=fixed;" vertex="1" parent="1">
          <mxGeometry x="1780" y="240" width="80" height="80" as="geometry" />
        </mxCell>
        <mxCell id="5hKzhQ0BJxo4T11ApE9C-50" value="" style="endArrow=classic;html=1;rounded=0;entryX=0;entryY=0.5;entryDx=0;entryDy=0;strokeWidth=2;exitX=1;exitY=0.5;exitDx=0;exitDy=0;" edge="1" parent="1" source="5hKzhQ0BJxo4T11ApE9C-45" target="5hKzhQ0BJxo4T11ApE9C-49">
          <mxGeometry width="50" height="50" relative="1" as="geometry">
            <mxPoint x="1570" y="310" as="sourcePoint" />
            <mxPoint x="1590" y="230" as="targetPoint" />
          </mxGeometry>
        </mxCell>
        <mxCell id="5hKzhQ0BJxo4T11ApE9C-51" value="Revisão dos diagramas UML" style="text;html=1;align=center;verticalAlign=middle;resizable=0;points=[];autosize=1;strokeColor=none;fillColor=none;" vertex="1" parent="1">
          <mxGeometry x="1580" y="250" width="180" height="30" as="geometry" />
        </mxCell>
        <mxCell id="5hKzhQ0BJxo4T11ApE9C-52" value="5" style="text;html=1;align=center;verticalAlign=middle;resizable=0;points=[];autosize=1;strokeColor=none;fillColor=none;" vertex="1" parent="1">
          <mxGeometry x="1655" y="280" width="30" height="30" as="geometry" />
        </mxCell>
        <mxCell id="5hKzhQ0BJxo4T11ApE9C-53" value="8" style="ellipse;whiteSpace=wrap;html=1;aspect=fixed;" vertex="1" parent="1">
          <mxGeometry x="2100" y="240" width="80" height="80" as="geometry" />
        </mxCell>
        <mxCell id="5hKzhQ0BJxo4T11ApE9C-54" value="" style="endArrow=classic;html=1;rounded=0;entryX=0;entryY=0.5;entryDx=0;entryDy=0;strokeWidth=2;" edge="1" parent="1" target="5hKzhQ0BJxo4T11ApE9C-53">
          <mxGeometry width="50" height="50" relative="1" as="geometry">
            <mxPoint x="1860" y="280" as="sourcePoint" />
            <mxPoint x="1910" y="230" as="targetPoint" />
          </mxGeometry>
        </mxCell>
        <mxCell id="5hKzhQ0BJxo4T11ApE9C-55" value="Correção dos diagramas UML" style="text;html=1;align=center;verticalAlign=middle;resizable=0;points=[];autosize=1;strokeColor=none;fillColor=none;" vertex="1" parent="1">
          <mxGeometry x="1890" y="250" width="180" height="30" as="geometry" />
        </mxCell>
        <mxCell id="5hKzhQ0BJxo4T11ApE9C-56" value="5" style="text;html=1;align=center;verticalAlign=middle;resizable=0;points=[];autosize=1;strokeColor=none;fillColor=none;" vertex="1" parent="1">
          <mxGeometry x="1965" y="280" width="30" height="30" as="geometry" />
        </mxCell>
        <mxCell id="5hKzhQ0BJxo4T11ApE9C-69" value="9" style="ellipse;whiteSpace=wrap;html=1;aspect=fixed;" vertex="1" parent="1">
          <mxGeometry x="2400" y="240" width="80" height="80" as="geometry" />
        </mxCell>
        <mxCell id="5hKzhQ0BJxo4T11ApE9C-70" value="" style="endArrow=classic;html=1;rounded=0;entryX=0;entryY=0.5;entryDx=0;entryDy=0;exitX=1;exitY=0.5;exitDx=0;exitDy=0;strokeWidth=2;" edge="1" parent="1" source="5hKzhQ0BJxo4T11ApE9C-53" target="5hKzhQ0BJxo4T11ApE9C-69">
          <mxGeometry width="50" height="50" relative="1" as="geometry">
            <mxPoint x="2150" y="70" as="sourcePoint" />
            <mxPoint x="2210" y="20" as="targetPoint" />
            <Array as="points" />
          </mxGeometry>
        </mxCell>
        <mxCell id="5hKzhQ0BJxo4T11ApE9C-71" value="Implementação das classes" style="text;html=1;align=center;verticalAlign=middle;resizable=0;points=[];autosize=1;strokeColor=none;fillColor=none;" vertex="1" parent="1">
          <mxGeometry x="2210" y="250" width="170" height="30" as="geometry" />
        </mxCell>
        <mxCell id="5hKzhQ0BJxo4T11ApE9C-72" value="10" style="text;html=1;align=center;verticalAlign=middle;resizable=0;points=[];autosize=1;strokeColor=none;fillColor=none;" vertex="1" parent="1">
          <mxGeometry x="2275" y="280" width="40" height="30" as="geometry" />
        </mxCell>
        <mxCell id="5hKzhQ0BJxo4T11ApE9C-73" value="10" style="ellipse;whiteSpace=wrap;html=1;aspect=fixed;" vertex="1" parent="1">
          <mxGeometry x="2710" y="-10" width="80" height="80" as="geometry" />
        </mxCell>
        <mxCell id="5hKzhQ0BJxo4T11ApE9C-74" value="" style="endArrow=classic;html=1;rounded=0;entryX=0;entryY=0.5;entryDx=0;entryDy=0;exitX=0.5;exitY=0;exitDx=0;exitDy=0;" edge="1" parent="1" source="5hKzhQ0BJxo4T11ApE9C-69" target="5hKzhQ0BJxo4T11ApE9C-73">
          <mxGeometry width="50" height="50" relative="1" as="geometry">
            <mxPoint x="2140" y="240" as="sourcePoint" />
            <mxPoint x="2190" y="190" as="targetPoint" />
            <Array as="points">
              <mxPoint x="2440" y="30" />
            </Array>
          </mxGeometry>
        </mxCell>
        <mxCell id="5hKzhQ0BJxo4T11ApE9C-75" value="Formulação de testes" style="text;html=1;align=center;verticalAlign=middle;resizable=0;points=[];autosize=1;strokeColor=none;fillColor=none;" vertex="1" parent="1">
          <mxGeometry x="2520" width="140" height="30" as="geometry" />
        </mxCell>
        <mxCell id="5hKzhQ0BJxo4T11ApE9C-76" value="5" style="text;html=1;align=center;verticalAlign=middle;resizable=0;points=[];autosize=1;strokeColor=none;fillColor=none;" vertex="1" parent="1">
          <mxGeometry x="2575" y="30" width="30" height="30" as="geometry" />
        </mxCell>
        <mxCell id="5hKzhQ0BJxo4T11ApE9C-82" style="edgeStyle=orthogonalEdgeStyle;rounded=0;orthogonalLoop=1;jettySize=auto;html=1;entryX=0;entryY=0.5;entryDx=0;entryDy=0;strokeWidth=2;" edge="1" parent="1" source="5hKzhQ0BJxo4T11ApE9C-77" target="5hKzhQ0BJxo4T11ApE9C-81">
          <mxGeometry relative="1" as="geometry" />
        </mxCell>
        <mxCell id="5hKzhQ0BJxo4T11ApE9C-77" value="10" style="ellipse;whiteSpace=wrap;html=1;aspect=fixed;" vertex="1" parent="1">
          <mxGeometry x="2710" y="240" width="80" height="80" as="geometry" />
        </mxCell>
        <mxCell id="5hKzhQ0BJxo4T11ApE9C-78" value="" style="endArrow=classic;html=1;rounded=0;entryX=0;entryY=0.5;entryDx=0;entryDy=0;strokeWidth=2;" edge="1" parent="1" target="5hKzhQ0BJxo4T11ApE9C-77">
          <mxGeometry width="50" height="50" relative="1" as="geometry">
            <mxPoint x="2480" y="280" as="sourcePoint" />
            <mxPoint x="2530" y="230" as="targetPoint" />
          </mxGeometry>
        </mxCell>
        <mxCell id="5hKzhQ0BJxo4T11ApE9C-79" value="Integração do software" style="text;html=1;align=center;verticalAlign=middle;resizable=0;points=[];autosize=1;strokeColor=none;fillColor=none;" vertex="1" parent="1">
          <mxGeometry x="2525" y="250" width="150" height="30" as="geometry" />
        </mxCell>
        <mxCell id="5hKzhQ0BJxo4T11ApE9C-80" value="5" style="text;html=1;align=center;verticalAlign=middle;resizable=0;points=[];autosize=1;strokeColor=none;fillColor=none;" vertex="1" parent="1">
          <mxGeometry x="2585" y="280" width="30" height="30" as="geometry" />
        </mxCell>
        <mxCell id="5hKzhQ0BJxo4T11ApE9C-81" value="11" style="ellipse;whiteSpace=wrap;html=1;aspect=fixed;" vertex="1" parent="1">
          <mxGeometry x="3010" y="240" width="80" height="80" as="geometry" />
        </mxCell>
        <mxCell id="5hKzhQ0BJxo4T11ApE9C-84" value="Correção final" style="text;html=1;align=center;verticalAlign=middle;resizable=0;points=[];autosize=1;strokeColor=none;fillColor=none;" vertex="1" parent="1">
          <mxGeometry x="2850" y="250" width="100" height="30" as="geometry" />
        </mxCell>
        <mxCell id="5hKzhQ0BJxo4T11ApE9C-85" value="5" style="text;html=1;align=center;verticalAlign=middle;resizable=0;points=[];autosize=1;strokeColor=none;fillColor=none;" vertex="1" parent="1">
          <mxGeometry x="2885" y="280" width="30" height="30" as="geometry" />
        </mxCell>
        <mxCell id="5hKzhQ0BJxo4T11ApE9C-88" value="" style="endArrow=classic;html=1;rounded=0;entryX=0.5;entryY=0;entryDx=0;entryDy=0;dashed=1;exitX=0.5;exitY=1;exitDx=0;exitDy=0;" edge="1" parent="1" source="5hKzhQ0BJxo4T11ApE9C-73" target="5hKzhQ0BJxo4T11ApE9C-77">
          <mxGeometry width="50" height="50" relative="1" as="geometry">
            <mxPoint x="2480" y="70" as="sourcePoint" />
            <mxPoint x="2530" y="20" as="targetPoint" />
            <Array as="points">
              <mxPoint x="2750" y="70" />
            </Array>
          </mxGeometry>
        </mxCell>
        <mxCell id="5hKzhQ0BJxo4T11ApE9C-131" value="0/0&lt;br&gt;0" style="text;html=1;align=center;verticalAlign=middle;whiteSpace=wrap;rounded=0;" vertex="1" parent="1">
          <mxGeometry x="30" y="200" width="60" height="30" as="geometry" />
        </mxCell>
        <mxCell id="5hKzhQ0BJxo4T11ApE9C-132" value="1/1&lt;br&gt;0" style="text;html=1;align=center;verticalAlign=middle;resizable=0;points=[];autosize=1;strokeColor=none;fillColor=none;" vertex="1" parent="1">
          <mxGeometry x="320" y="195" width="40" height="40" as="geometry" />
        </mxCell>
        <mxCell id="5hKzhQ0BJxo4T11ApE9C-133" value="6/6&lt;br&gt;0" style="text;html=1;align=center;verticalAlign=middle;resizable=0;points=[];autosize=1;strokeColor=none;fillColor=none;" vertex="1" parent="1">
          <mxGeometry x="580" y="195" width="40" height="40" as="geometry" />
        </mxCell>
        <mxCell id="5hKzhQ0BJxo4T11ApE9C-134" value="11/11&lt;br&gt;0" style="text;html=1;align=center;verticalAlign=middle;resizable=0;points=[];autosize=1;strokeColor=none;fillColor=none;" vertex="1" parent="1">
          <mxGeometry x="895" y="195" width="50" height="40" as="geometry" />
        </mxCell>
        <mxCell id="5hKzhQ0BJxo4T11ApE9C-135" value="16/16&lt;br&gt;0" style="text;html=1;align=center;verticalAlign=middle;resizable=0;points=[];autosize=1;strokeColor=none;fillColor=none;" vertex="1" parent="1">
          <mxGeometry x="1215" y="195" width="50" height="40" as="geometry" />
        </mxCell>
        <mxCell id="5hKzhQ0BJxo4T11ApE9C-136" value="21/21&lt;br&gt;0" style="text;html=1;align=center;verticalAlign=middle;resizable=0;points=[];autosize=1;strokeColor=none;fillColor=none;" vertex="1" parent="1">
          <mxGeometry x="1475" y="195" width="50" height="40" as="geometry" />
        </mxCell>
        <mxCell id="5hKzhQ0BJxo4T11ApE9C-137" value="26/26&lt;br&gt;0" style="text;html=1;align=center;verticalAlign=middle;resizable=0;points=[];autosize=1;strokeColor=none;fillColor=none;" vertex="1" parent="1">
          <mxGeometry x="1795" y="195" width="50" height="40" as="geometry" />
        </mxCell>
        <mxCell id="5hKzhQ0BJxo4T11ApE9C-138" value="31/31&lt;br&gt;0" style="text;html=1;align=center;verticalAlign=middle;resizable=0;points=[];autosize=1;strokeColor=none;fillColor=none;" vertex="1" parent="1">
          <mxGeometry x="2115" y="195" width="50" height="40" as="geometry" />
        </mxCell>
        <mxCell id="5hKzhQ0BJxo4T11ApE9C-140" value="46/46&lt;br&gt;0" style="text;html=1;align=center;verticalAlign=middle;resizable=0;points=[];autosize=1;strokeColor=none;fillColor=none;" vertex="1" parent="1">
          <mxGeometry x="2725" y="-60" width="50" height="40" as="geometry" />
        </mxCell>
        <mxCell id="5hKzhQ0BJxo4T11ApE9C-141" value="41/41&lt;br&gt;0" style="text;html=1;align=center;verticalAlign=middle;resizable=0;points=[];autosize=1;strokeColor=none;fillColor=none;" vertex="1" parent="1">
          <mxGeometry x="2415" y="320" width="50" height="40" as="geometry" />
        </mxCell>
        <mxCell id="5hKzhQ0BJxo4T11ApE9C-142" value="46/46&lt;br&gt;0" style="text;html=1;align=center;verticalAlign=middle;resizable=0;points=[];autosize=1;strokeColor=none;fillColor=none;" vertex="1" parent="1">
          <mxGeometry x="2725" y="325" width="50" height="40" as="geometry" />
        </mxCell>
        <mxCell id="5hKzhQ0BJxo4T11ApE9C-143" value="51/51&lt;div&gt;0&lt;/div&gt;" style="text;html=1;align=center;verticalAlign=middle;resizable=0;points=[];autosize=1;strokeColor=none;fillColor=none;" vertex="1" parent="1">
          <mxGeometry x="3025" y="325" width="50" height="40" as="geometry" />
        </mxCell>
      </root>
    </mxGraphModel>
  </diagram>
  <diagram name="SEMANA 09/09" id="1T9WqKfs9bOwhpcd_hHg">
    <mxGraphModel grid="1" page="1" gridSize="10" guides="1" tooltips="1" connect="1" arrows="1" fold="1" pageScale="1" pageWidth="850" pageHeight="1100" math="0" shadow="0">
      <root>
        <mxCell id="xW-e74tjUGYgB8LPRJui-0" />
        <mxCell id="xW-e74tjUGYgB8LPRJui-1" parent="xW-e74tjUGYgB8LPRJui-0" />
        <mxCell id="xW-e74tjUGYgB8LPRJui-2" value="1" style="ellipse;whiteSpace=wrap;html=1;aspect=fixed;" vertex="1" parent="xW-e74tjUGYgB8LPRJui-1">
          <mxGeometry x="20" y="240" width="80" height="80" as="geometry" />
        </mxCell>
        <mxCell id="xW-e74tjUGYgB8LPRJui-3" value="2" style="ellipse;whiteSpace=wrap;html=1;aspect=fixed;" vertex="1" parent="xW-e74tjUGYgB8LPRJui-1">
          <mxGeometry x="300" y="240" width="80" height="80" as="geometry" />
        </mxCell>
        <mxCell id="xW-e74tjUGYgB8LPRJui-4" value="" style="endArrow=classic;html=1;rounded=0;entryX=0;entryY=0.5;entryDx=0;entryDy=0;strokeWidth=2;" edge="1" parent="xW-e74tjUGYgB8LPRJui-1" target="xW-e74tjUGYgB8LPRJui-3">
          <mxGeometry width="50" height="50" relative="1" as="geometry">
            <mxPoint x="100" y="280" as="sourcePoint" />
            <mxPoint x="150" y="230" as="targetPoint" />
          </mxGeometry>
        </mxCell>
        <mxCell id="xW-e74tjUGYgB8LPRJui-5" value="Reunião com o cliente" style="text;html=1;align=center;verticalAlign=middle;resizable=0;points=[];autosize=1;strokeColor=none;fillColor=none;" vertex="1" parent="xW-e74tjUGYgB8LPRJui-1">
          <mxGeometry x="130" y="250" width="140" height="30" as="geometry" />
        </mxCell>
        <mxCell id="xW-e74tjUGYgB8LPRJui-6" value="1" style="text;html=1;align=center;verticalAlign=middle;resizable=0;points=[];autosize=1;strokeColor=none;fillColor=none;" vertex="1" parent="xW-e74tjUGYgB8LPRJui-1">
          <mxGeometry x="185" y="280" width="30" height="30" as="geometry" />
        </mxCell>
        <mxCell id="xW-e74tjUGYgB8LPRJui-7" value="3" style="ellipse;whiteSpace=wrap;html=1;aspect=fixed;" vertex="1" parent="xW-e74tjUGYgB8LPRJui-1">
          <mxGeometry x="560" y="240" width="80" height="80" as="geometry" />
        </mxCell>
        <mxCell id="xW-e74tjUGYgB8LPRJui-8" value="" style="endArrow=classic;html=1;rounded=0;entryX=0;entryY=0.5;entryDx=0;entryDy=0;strokeWidth=2;" edge="1" parent="xW-e74tjUGYgB8LPRJui-1" target="xW-e74tjUGYgB8LPRJui-7">
          <mxGeometry width="50" height="50" relative="1" as="geometry">
            <mxPoint x="380" y="280" as="sourcePoint" />
            <mxPoint x="430" y="230" as="targetPoint" />
          </mxGeometry>
        </mxCell>
        <mxCell id="xW-e74tjUGYgB8LPRJui-9" value="Escrita dos requisitos" style="text;html=1;align=center;verticalAlign=middle;resizable=0;points=[];autosize=1;strokeColor=none;fillColor=none;" vertex="1" parent="xW-e74tjUGYgB8LPRJui-1">
          <mxGeometry x="400" y="250" width="140" height="30" as="geometry" />
        </mxCell>
        <mxCell id="xW-e74tjUGYgB8LPRJui-10" value="10" style="text;html=1;align=center;verticalAlign=middle;resizable=0;points=[];autosize=1;strokeColor=none;fillColor=none;" vertex="1" parent="xW-e74tjUGYgB8LPRJui-1">
          <mxGeometry x="450" y="280" width="40" height="30" as="geometry" />
        </mxCell>
        <mxCell id="xW-e74tjUGYgB8LPRJui-11" value="5" style="ellipse;whiteSpace=wrap;html=1;aspect=fixed;" vertex="1" parent="xW-e74tjUGYgB8LPRJui-1">
          <mxGeometry x="880" y="240" width="80" height="80" as="geometry" />
        </mxCell>
        <mxCell id="xW-e74tjUGYgB8LPRJui-12" value="" style="endArrow=classic;html=1;rounded=0;entryX=0;entryY=0.5;entryDx=0;entryDy=0;strokeWidth=2;" edge="1" parent="xW-e74tjUGYgB8LPRJui-1" target="xW-e74tjUGYgB8LPRJui-11">
          <mxGeometry width="50" height="50" relative="1" as="geometry">
            <mxPoint x="640" y="280" as="sourcePoint" />
            <mxPoint x="690" y="230" as="targetPoint" />
          </mxGeometry>
        </mxCell>
        <mxCell id="xW-e74tjUGYgB8LPRJui-13" value="Revisão dos requisitos" style="text;html=1;align=center;verticalAlign=middle;resizable=0;points=[];autosize=1;strokeColor=none;fillColor=none;" vertex="1" parent="xW-e74tjUGYgB8LPRJui-1">
          <mxGeometry x="690" y="250" width="140" height="30" as="geometry" />
        </mxCell>
        <mxCell id="xW-e74tjUGYgB8LPRJui-14" value="5" style="text;html=1;align=center;verticalAlign=middle;resizable=0;points=[];autosize=1;strokeColor=none;fillColor=none;" vertex="1" parent="xW-e74tjUGYgB8LPRJui-1">
          <mxGeometry x="745" y="280" width="30" height="30" as="geometry" />
        </mxCell>
        <mxCell id="xW-e74tjUGYgB8LPRJui-15" value="9" style="ellipse;whiteSpace=wrap;html=1;aspect=fixed;" vertex="1" parent="xW-e74tjUGYgB8LPRJui-1">
          <mxGeometry x="1200" y="240" width="80" height="80" as="geometry" />
        </mxCell>
        <mxCell id="xW-e74tjUGYgB8LPRJui-16" value="" style="endArrow=classic;html=1;rounded=0;entryX=0;entryY=0.5;entryDx=0;entryDy=0;strokeWidth=2;" edge="1" parent="xW-e74tjUGYgB8LPRJui-1" target="xW-e74tjUGYgB8LPRJui-15">
          <mxGeometry width="50" height="50" relative="1" as="geometry">
            <mxPoint x="960" y="280" as="sourcePoint" />
            <mxPoint x="1010" y="230" as="targetPoint" />
          </mxGeometry>
        </mxCell>
        <mxCell id="xW-e74tjUGYgB8LPRJui-17" value="Correção dos requisitos" style="text;html=1;align=center;verticalAlign=middle;resizable=0;points=[];autosize=1;strokeColor=none;fillColor=none;" vertex="1" parent="xW-e74tjUGYgB8LPRJui-1">
          <mxGeometry x="1005" y="250" width="150" height="30" as="geometry" />
        </mxCell>
        <mxCell id="xW-e74tjUGYgB8LPRJui-18" value="5" style="text;html=1;align=center;verticalAlign=middle;resizable=0;points=[];autosize=1;strokeColor=none;fillColor=none;" vertex="1" parent="xW-e74tjUGYgB8LPRJui-1">
          <mxGeometry x="1065" y="280" width="30" height="30" as="geometry" />
        </mxCell>
        <mxCell id="xW-e74tjUGYgB8LPRJui-19" value="10" style="ellipse;whiteSpace=wrap;html=1;aspect=fixed;" vertex="1" parent="xW-e74tjUGYgB8LPRJui-1">
          <mxGeometry x="1475" y="240" width="80" height="80" as="geometry" />
        </mxCell>
        <mxCell id="xW-e74tjUGYgB8LPRJui-20" value="" style="endArrow=classic;html=1;rounded=0;entryX=0;entryY=0.5;entryDx=0;entryDy=0;strokeWidth=2;" edge="1" parent="xW-e74tjUGYgB8LPRJui-1" target="xW-e74tjUGYgB8LPRJui-19">
          <mxGeometry width="50" height="50" relative="1" as="geometry">
            <mxPoint x="1280" y="280" as="sourcePoint" />
            <mxPoint x="1330" y="230" as="targetPoint" />
          </mxGeometry>
        </mxCell>
        <mxCell id="xW-e74tjUGYgB8LPRJui-21" value="Escrita dos diagramas UML" style="text;html=1;align=center;verticalAlign=middle;resizable=0;points=[];autosize=1;strokeColor=none;fillColor=none;" vertex="1" parent="xW-e74tjUGYgB8LPRJui-1">
          <mxGeometry x="1300" y="250" width="170" height="30" as="geometry" />
        </mxCell>
        <mxCell id="xW-e74tjUGYgB8LPRJui-22" value="5" style="text;html=1;align=center;verticalAlign=middle;resizable=0;points=[];autosize=1;strokeColor=none;fillColor=none;" vertex="1" parent="xW-e74tjUGYgB8LPRJui-1">
          <mxGeometry x="1370" y="280" width="30" height="30" as="geometry" />
        </mxCell>
        <mxCell id="xW-e74tjUGYgB8LPRJui-23" value="11" style="ellipse;whiteSpace=wrap;html=1;aspect=fixed;" vertex="1" parent="xW-e74tjUGYgB8LPRJui-1">
          <mxGeometry x="1780" y="240" width="80" height="80" as="geometry" />
        </mxCell>
        <mxCell id="xW-e74tjUGYgB8LPRJui-24" value="" style="endArrow=classic;html=1;rounded=0;entryX=0;entryY=0.5;entryDx=0;entryDy=0;strokeWidth=2;exitX=1;exitY=0.5;exitDx=0;exitDy=0;" edge="1" parent="xW-e74tjUGYgB8LPRJui-1" source="xW-e74tjUGYgB8LPRJui-19" target="xW-e74tjUGYgB8LPRJui-23">
          <mxGeometry width="50" height="50" relative="1" as="geometry">
            <mxPoint x="1570" y="310" as="sourcePoint" />
            <mxPoint x="1590" y="230" as="targetPoint" />
          </mxGeometry>
        </mxCell>
        <mxCell id="xW-e74tjUGYgB8LPRJui-25" value="Revisão dos diagramas UML" style="text;html=1;align=center;verticalAlign=middle;resizable=0;points=[];autosize=1;strokeColor=none;fillColor=none;" vertex="1" parent="xW-e74tjUGYgB8LPRJui-1">
          <mxGeometry x="1580" y="250" width="180" height="30" as="geometry" />
        </mxCell>
        <mxCell id="xW-e74tjUGYgB8LPRJui-26" value="5" style="text;html=1;align=center;verticalAlign=middle;resizable=0;points=[];autosize=1;strokeColor=none;fillColor=none;" vertex="1" parent="xW-e74tjUGYgB8LPRJui-1">
          <mxGeometry x="1655" y="280" width="30" height="30" as="geometry" />
        </mxCell>
        <mxCell id="xW-e74tjUGYgB8LPRJui-27" value="12" style="ellipse;whiteSpace=wrap;html=1;aspect=fixed;" vertex="1" parent="xW-e74tjUGYgB8LPRJui-1">
          <mxGeometry x="2100" y="240" width="80" height="80" as="geometry" />
        </mxCell>
        <mxCell id="xW-e74tjUGYgB8LPRJui-28" value="" style="endArrow=classic;html=1;rounded=0;entryX=0;entryY=0.5;entryDx=0;entryDy=0;strokeWidth=2;" edge="1" parent="xW-e74tjUGYgB8LPRJui-1" target="xW-e74tjUGYgB8LPRJui-27">
          <mxGeometry width="50" height="50" relative="1" as="geometry">
            <mxPoint x="1860" y="280" as="sourcePoint" />
            <mxPoint x="1910" y="230" as="targetPoint" />
          </mxGeometry>
        </mxCell>
        <mxCell id="xW-e74tjUGYgB8LPRJui-29" value="Correção dos diagramas UML" style="text;html=1;align=center;verticalAlign=middle;resizable=0;points=[];autosize=1;strokeColor=none;fillColor=none;" vertex="1" parent="xW-e74tjUGYgB8LPRJui-1">
          <mxGeometry x="1890" y="250" width="180" height="30" as="geometry" />
        </mxCell>
        <mxCell id="xW-e74tjUGYgB8LPRJui-30" value="5" style="text;html=1;align=center;verticalAlign=middle;resizable=0;points=[];autosize=1;strokeColor=none;fillColor=none;" vertex="1" parent="xW-e74tjUGYgB8LPRJui-1">
          <mxGeometry x="1965" y="280" width="30" height="30" as="geometry" />
        </mxCell>
        <mxCell id="xW-e74tjUGYgB8LPRJui-31" value="13" style="ellipse;whiteSpace=wrap;html=1;aspect=fixed;" vertex="1" parent="xW-e74tjUGYgB8LPRJui-1">
          <mxGeometry x="2400" y="240" width="80" height="80" as="geometry" />
        </mxCell>
        <mxCell id="xW-e74tjUGYgB8LPRJui-32" value="" style="endArrow=classic;html=1;rounded=0;entryX=0;entryY=0.5;entryDx=0;entryDy=0;exitX=1;exitY=0.5;exitDx=0;exitDy=0;strokeWidth=2;" edge="1" parent="xW-e74tjUGYgB8LPRJui-1" source="xW-e74tjUGYgB8LPRJui-27" target="xW-e74tjUGYgB8LPRJui-31">
          <mxGeometry width="50" height="50" relative="1" as="geometry">
            <mxPoint x="2150" y="70" as="sourcePoint" />
            <mxPoint x="2210" y="20" as="targetPoint" />
            <Array as="points" />
          </mxGeometry>
        </mxCell>
        <mxCell id="xW-e74tjUGYgB8LPRJui-33" value="Implementação das classes" style="text;html=1;align=center;verticalAlign=middle;resizable=0;points=[];autosize=1;strokeColor=none;fillColor=none;" vertex="1" parent="xW-e74tjUGYgB8LPRJui-1">
          <mxGeometry x="2210" y="250" width="170" height="30" as="geometry" />
        </mxCell>
        <mxCell id="xW-e74tjUGYgB8LPRJui-34" value="10" style="text;html=1;align=center;verticalAlign=middle;resizable=0;points=[];autosize=1;strokeColor=none;fillColor=none;" vertex="1" parent="xW-e74tjUGYgB8LPRJui-1">
          <mxGeometry x="2275" y="280" width="40" height="30" as="geometry" />
        </mxCell>
        <mxCell id="xW-e74tjUGYgB8LPRJui-35" value="14" style="ellipse;whiteSpace=wrap;html=1;aspect=fixed;" vertex="1" parent="xW-e74tjUGYgB8LPRJui-1">
          <mxGeometry x="2710" y="-10" width="80" height="80" as="geometry" />
        </mxCell>
        <mxCell id="xW-e74tjUGYgB8LPRJui-36" value="" style="endArrow=classic;html=1;rounded=0;entryX=0;entryY=0.5;entryDx=0;entryDy=0;exitX=0.5;exitY=0;exitDx=0;exitDy=0;" edge="1" parent="xW-e74tjUGYgB8LPRJui-1" source="xW-e74tjUGYgB8LPRJui-31" target="xW-e74tjUGYgB8LPRJui-35">
          <mxGeometry width="50" height="50" relative="1" as="geometry">
            <mxPoint x="2140" y="240" as="sourcePoint" />
            <mxPoint x="2190" y="190" as="targetPoint" />
            <Array as="points">
              <mxPoint x="2440" y="30" />
            </Array>
          </mxGeometry>
        </mxCell>
        <mxCell id="xW-e74tjUGYgB8LPRJui-37" value="Formulação de testes" style="text;html=1;align=center;verticalAlign=middle;resizable=0;points=[];autosize=1;strokeColor=none;fillColor=none;" vertex="1" parent="xW-e74tjUGYgB8LPRJui-1">
          <mxGeometry x="2520" width="140" height="30" as="geometry" />
        </mxCell>
        <mxCell id="xW-e74tjUGYgB8LPRJui-38" value="5" style="text;html=1;align=center;verticalAlign=middle;resizable=0;points=[];autosize=1;strokeColor=none;fillColor=none;" vertex="1" parent="xW-e74tjUGYgB8LPRJui-1">
          <mxGeometry x="2575" y="30" width="30" height="30" as="geometry" />
        </mxCell>
        <mxCell id="xW-e74tjUGYgB8LPRJui-39" style="edgeStyle=orthogonalEdgeStyle;rounded=0;orthogonalLoop=1;jettySize=auto;html=1;entryX=0;entryY=0.5;entryDx=0;entryDy=0;strokeWidth=2;" edge="1" parent="xW-e74tjUGYgB8LPRJui-1" source="xW-e74tjUGYgB8LPRJui-40" target="xW-e74tjUGYgB8LPRJui-44">
          <mxGeometry relative="1" as="geometry" />
        </mxCell>
        <mxCell id="xW-e74tjUGYgB8LPRJui-40" value="14" style="ellipse;whiteSpace=wrap;html=1;aspect=fixed;" vertex="1" parent="xW-e74tjUGYgB8LPRJui-1">
          <mxGeometry x="2710" y="240" width="80" height="80" as="geometry" />
        </mxCell>
        <mxCell id="xW-e74tjUGYgB8LPRJui-41" value="" style="endArrow=classic;html=1;rounded=0;entryX=0;entryY=0.5;entryDx=0;entryDy=0;strokeWidth=2;" edge="1" parent="xW-e74tjUGYgB8LPRJui-1" target="xW-e74tjUGYgB8LPRJui-40">
          <mxGeometry width="50" height="50" relative="1" as="geometry">
            <mxPoint x="2480" y="280" as="sourcePoint" />
            <mxPoint x="2530" y="230" as="targetPoint" />
          </mxGeometry>
        </mxCell>
        <mxCell id="xW-e74tjUGYgB8LPRJui-42" value="Integração do software" style="text;html=1;align=center;verticalAlign=middle;resizable=0;points=[];autosize=1;strokeColor=none;fillColor=none;" vertex="1" parent="xW-e74tjUGYgB8LPRJui-1">
          <mxGeometry x="2525" y="250" width="150" height="30" as="geometry" />
        </mxCell>
        <mxCell id="xW-e74tjUGYgB8LPRJui-43" value="5" style="text;html=1;align=center;verticalAlign=middle;resizable=0;points=[];autosize=1;strokeColor=none;fillColor=none;" vertex="1" parent="xW-e74tjUGYgB8LPRJui-1">
          <mxGeometry x="2585" y="280" width="30" height="30" as="geometry" />
        </mxCell>
        <mxCell id="xW-e74tjUGYgB8LPRJui-44" value="15" style="ellipse;whiteSpace=wrap;html=1;aspect=fixed;" vertex="1" parent="xW-e74tjUGYgB8LPRJui-1">
          <mxGeometry x="3010" y="240" width="80" height="80" as="geometry" />
        </mxCell>
        <mxCell id="xW-e74tjUGYgB8LPRJui-45" value="Correção final" style="text;html=1;align=center;verticalAlign=middle;resizable=0;points=[];autosize=1;strokeColor=none;fillColor=none;" vertex="1" parent="xW-e74tjUGYgB8LPRJui-1">
          <mxGeometry x="2850" y="250" width="100" height="30" as="geometry" />
        </mxCell>
        <mxCell id="xW-e74tjUGYgB8LPRJui-46" value="5" style="text;html=1;align=center;verticalAlign=middle;resizable=0;points=[];autosize=1;strokeColor=none;fillColor=none;" vertex="1" parent="xW-e74tjUGYgB8LPRJui-1">
          <mxGeometry x="2885" y="280" width="30" height="30" as="geometry" />
        </mxCell>
        <mxCell id="xW-e74tjUGYgB8LPRJui-47" value="" style="endArrow=classic;html=1;rounded=0;entryX=0.5;entryY=0;entryDx=0;entryDy=0;dashed=1;exitX=0.5;exitY=1;exitDx=0;exitDy=0;" edge="1" parent="xW-e74tjUGYgB8LPRJui-1" source="xW-e74tjUGYgB8LPRJui-35" target="xW-e74tjUGYgB8LPRJui-40">
          <mxGeometry width="50" height="50" relative="1" as="geometry">
            <mxPoint x="2480" y="70" as="sourcePoint" />
            <mxPoint x="2530" y="20" as="targetPoint" />
            <Array as="points">
              <mxPoint x="2750" y="70" />
            </Array>
          </mxGeometry>
        </mxCell>
        <mxCell id="xW-e74tjUGYgB8LPRJui-48" value="0/0&lt;br&gt;0" style="text;html=1;align=center;verticalAlign=middle;whiteSpace=wrap;rounded=0;" vertex="1" parent="xW-e74tjUGYgB8LPRJui-1">
          <mxGeometry x="30" y="200" width="60" height="30" as="geometry" />
        </mxCell>
        <mxCell id="xW-e74tjUGYgB8LPRJui-49" value="1/1&lt;br&gt;0" style="text;html=1;align=center;verticalAlign=middle;resizable=0;points=[];autosize=1;strokeColor=none;fillColor=none;" vertex="1" parent="xW-e74tjUGYgB8LPRJui-1">
          <mxGeometry x="320" y="195" width="40" height="40" as="geometry" />
        </mxCell>
        <mxCell id="xW-e74tjUGYgB8LPRJui-51" value="11/11&lt;br&gt;0" style="text;html=1;align=center;verticalAlign=middle;resizable=0;points=[];autosize=1;strokeColor=none;fillColor=none;" vertex="1" parent="xW-e74tjUGYgB8LPRJui-1">
          <mxGeometry x="575" y="190" width="50" height="40" as="geometry" />
        </mxCell>
        <mxCell id="xW-e74tjUGYgB8LPRJui-52" value="16/16&lt;br&gt;0" style="text;html=1;align=center;verticalAlign=middle;resizable=0;points=[];autosize=1;strokeColor=none;fillColor=none;" vertex="1" parent="xW-e74tjUGYgB8LPRJui-1">
          <mxGeometry x="895" y="190" width="50" height="40" as="geometry" />
        </mxCell>
        <mxCell id="xW-e74tjUGYgB8LPRJui-53" value="21/21&lt;br&gt;0" style="text;html=1;align=center;verticalAlign=middle;resizable=0;points=[];autosize=1;strokeColor=none;fillColor=none;" vertex="1" parent="xW-e74tjUGYgB8LPRJui-1">
          <mxGeometry x="1215" y="190" width="50" height="40" as="geometry" />
        </mxCell>
        <mxCell id="xW-e74tjUGYgB8LPRJui-54" value="26/26&lt;br&gt;0" style="text;html=1;align=center;verticalAlign=middle;resizable=0;points=[];autosize=1;strokeColor=none;fillColor=none;" vertex="1" parent="xW-e74tjUGYgB8LPRJui-1">
          <mxGeometry x="1490" y="195" width="50" height="40" as="geometry" />
        </mxCell>
        <mxCell id="xW-e74tjUGYgB8LPRJui-55" value="31/31&lt;br&gt;0" style="text;html=1;align=center;verticalAlign=middle;resizable=0;points=[];autosize=1;strokeColor=none;fillColor=none;" vertex="1" parent="xW-e74tjUGYgB8LPRJui-1">
          <mxGeometry x="1795" y="190" width="50" height="40" as="geometry" />
        </mxCell>
        <mxCell id="xW-e74tjUGYgB8LPRJui-56" value="51/51&lt;br&gt;0" style="text;html=1;align=center;verticalAlign=middle;resizable=0;points=[];autosize=1;strokeColor=none;fillColor=none;" vertex="1" parent="xW-e74tjUGYgB8LPRJui-1">
          <mxGeometry x="2725" y="-60" width="50" height="40" as="geometry" />
        </mxCell>
        <mxCell id="xW-e74tjUGYgB8LPRJui-58" value="46/46&lt;br&gt;0" style="text;html=1;align=center;verticalAlign=middle;resizable=0;points=[];autosize=1;strokeColor=none;fillColor=none;" vertex="1" parent="xW-e74tjUGYgB8LPRJui-1">
          <mxGeometry x="2415" y="325" width="50" height="40" as="geometry" />
        </mxCell>
        <mxCell id="xW-e74tjUGYgB8LPRJui-59" value="56/56&lt;br&gt;0" style="text;html=1;align=center;verticalAlign=middle;resizable=0;points=[];autosize=1;strokeColor=none;fillColor=none;" vertex="1" parent="xW-e74tjUGYgB8LPRJui-1">
          <mxGeometry x="3025" y="325" width="50" height="40" as="geometry" />
        </mxCell>
        <mxCell id="3ElXZpTOXBYysq8wNZNT-0" value="36/36&lt;br&gt;0" style="text;html=1;align=center;verticalAlign=middle;resizable=0;points=[];autosize=1;strokeColor=none;fillColor=none;" vertex="1" parent="xW-e74tjUGYgB8LPRJui-1">
          <mxGeometry x="2115" y="195" width="50" height="40" as="geometry" />
        </mxCell>
        <mxCell id="3ElXZpTOXBYysq8wNZNT-1" value="51/51&lt;br&gt;0" style="text;html=1;align=center;verticalAlign=middle;resizable=0;points=[];autosize=1;strokeColor=none;fillColor=none;" vertex="1" parent="xW-e74tjUGYgB8LPRJui-1">
          <mxGeometry x="2725" y="325" width="50" height="40" as="geometry" />
        </mxCell>
      </root>
    </mxGraphModel>
  </diagram>
  <diagram name="SEMANA 16/09" id="eUkNC1pz2EADtyeL0_lS">
    <mxGraphModel grid="1" page="1" gridSize="10" guides="1" tooltips="1" connect="1" arrows="1" fold="1" pageScale="1" pageWidth="850" pageHeight="1100" math="0" shadow="0">
      <root>
        <mxCell id="rFoR5pqwhkgLBTL8F6Wg-0" />
        <mxCell id="rFoR5pqwhkgLBTL8F6Wg-1" parent="rFoR5pqwhkgLBTL8F6Wg-0" />
        <mxCell id="rFoR5pqwhkgLBTL8F6Wg-2" value="1" style="ellipse;whiteSpace=wrap;html=1;aspect=fixed;" vertex="1" parent="rFoR5pqwhkgLBTL8F6Wg-1">
          <mxGeometry x="20" y="240" width="80" height="80" as="geometry" />
        </mxCell>
        <mxCell id="rFoR5pqwhkgLBTL8F6Wg-3" value="2" style="ellipse;whiteSpace=wrap;html=1;aspect=fixed;" vertex="1" parent="rFoR5pqwhkgLBTL8F6Wg-1">
          <mxGeometry x="300" y="240" width="80" height="80" as="geometry" />
        </mxCell>
        <mxCell id="rFoR5pqwhkgLBTL8F6Wg-4" value="" style="endArrow=classic;html=1;rounded=0;entryX=0;entryY=0.5;entryDx=0;entryDy=0;strokeWidth=2;" edge="1" parent="rFoR5pqwhkgLBTL8F6Wg-1" target="rFoR5pqwhkgLBTL8F6Wg-3">
          <mxGeometry width="50" height="50" relative="1" as="geometry">
            <mxPoint x="100" y="280" as="sourcePoint" />
            <mxPoint x="150" y="230" as="targetPoint" />
          </mxGeometry>
        </mxCell>
        <mxCell id="rFoR5pqwhkgLBTL8F6Wg-5" value="Reunião com o cliente" style="text;html=1;align=center;verticalAlign=middle;resizable=0;points=[];autosize=1;strokeColor=none;fillColor=none;" vertex="1" parent="rFoR5pqwhkgLBTL8F6Wg-1">
          <mxGeometry x="130" y="250" width="140" height="30" as="geometry" />
        </mxCell>
        <mxCell id="rFoR5pqwhkgLBTL8F6Wg-6" value="1" style="text;html=1;align=center;verticalAlign=middle;resizable=0;points=[];autosize=1;strokeColor=none;fillColor=none;" vertex="1" parent="rFoR5pqwhkgLBTL8F6Wg-1">
          <mxGeometry x="185" y="280" width="30" height="30" as="geometry" />
        </mxCell>
        <mxCell id="rFoR5pqwhkgLBTL8F6Wg-7" value="3" style="ellipse;whiteSpace=wrap;html=1;aspect=fixed;" vertex="1" parent="rFoR5pqwhkgLBTL8F6Wg-1">
          <mxGeometry x="560" y="240" width="80" height="80" as="geometry" />
        </mxCell>
        <mxCell id="rFoR5pqwhkgLBTL8F6Wg-8" value="" style="endArrow=classic;html=1;rounded=0;entryX=0;entryY=0.5;entryDx=0;entryDy=0;strokeWidth=2;" edge="1" parent="rFoR5pqwhkgLBTL8F6Wg-1" target="rFoR5pqwhkgLBTL8F6Wg-7">
          <mxGeometry width="50" height="50" relative="1" as="geometry">
            <mxPoint x="380" y="280" as="sourcePoint" />
            <mxPoint x="430" y="230" as="targetPoint" />
          </mxGeometry>
        </mxCell>
        <mxCell id="rFoR5pqwhkgLBTL8F6Wg-9" value="Escrita dos requisitos" style="text;html=1;align=center;verticalAlign=middle;resizable=0;points=[];autosize=1;strokeColor=none;fillColor=none;" vertex="1" parent="rFoR5pqwhkgLBTL8F6Wg-1">
          <mxGeometry x="400" y="250" width="140" height="30" as="geometry" />
        </mxCell>
        <mxCell id="rFoR5pqwhkgLBTL8F6Wg-10" value="10" style="text;html=1;align=center;verticalAlign=middle;resizable=0;points=[];autosize=1;strokeColor=none;fillColor=none;" vertex="1" parent="rFoR5pqwhkgLBTL8F6Wg-1">
          <mxGeometry x="450" y="280" width="40" height="30" as="geometry" />
        </mxCell>
        <mxCell id="rFoR5pqwhkgLBTL8F6Wg-11" value="5" style="ellipse;whiteSpace=wrap;html=1;aspect=fixed;" vertex="1" parent="rFoR5pqwhkgLBTL8F6Wg-1">
          <mxGeometry x="880" y="240" width="80" height="80" as="geometry" />
        </mxCell>
        <mxCell id="rFoR5pqwhkgLBTL8F6Wg-12" value="" style="endArrow=classic;html=1;rounded=0;entryX=0;entryY=0.5;entryDx=0;entryDy=0;strokeWidth=2;" edge="1" parent="rFoR5pqwhkgLBTL8F6Wg-1" target="rFoR5pqwhkgLBTL8F6Wg-11">
          <mxGeometry width="50" height="50" relative="1" as="geometry">
            <mxPoint x="640" y="280" as="sourcePoint" />
            <mxPoint x="690" y="230" as="targetPoint" />
          </mxGeometry>
        </mxCell>
        <mxCell id="rFoR5pqwhkgLBTL8F6Wg-13" value="Revisão dos requisitos" style="text;html=1;align=center;verticalAlign=middle;resizable=0;points=[];autosize=1;strokeColor=none;fillColor=none;" vertex="1" parent="rFoR5pqwhkgLBTL8F6Wg-1">
          <mxGeometry x="690" y="250" width="140" height="30" as="geometry" />
        </mxCell>
        <mxCell id="rFoR5pqwhkgLBTL8F6Wg-14" value="8" style="text;html=1;align=center;verticalAlign=middle;resizable=0;points=[];autosize=1;strokeColor=none;fillColor=none;" vertex="1" parent="rFoR5pqwhkgLBTL8F6Wg-1">
          <mxGeometry x="745" y="280" width="30" height="30" as="geometry" />
        </mxCell>
        <mxCell id="rFoR5pqwhkgLBTL8F6Wg-15" value="9" style="ellipse;whiteSpace=wrap;html=1;aspect=fixed;" vertex="1" parent="rFoR5pqwhkgLBTL8F6Wg-1">
          <mxGeometry x="1200" y="240" width="80" height="80" as="geometry" />
        </mxCell>
        <mxCell id="rFoR5pqwhkgLBTL8F6Wg-16" value="" style="endArrow=classic;html=1;rounded=0;entryX=0;entryY=0.5;entryDx=0;entryDy=0;strokeWidth=2;" edge="1" parent="rFoR5pqwhkgLBTL8F6Wg-1" target="rFoR5pqwhkgLBTL8F6Wg-15">
          <mxGeometry width="50" height="50" relative="1" as="geometry">
            <mxPoint x="960" y="280" as="sourcePoint" />
            <mxPoint x="1010" y="230" as="targetPoint" />
          </mxGeometry>
        </mxCell>
        <mxCell id="rFoR5pqwhkgLBTL8F6Wg-17" value="Correção dos requisitos" style="text;html=1;align=center;verticalAlign=middle;resizable=0;points=[];autosize=1;strokeColor=none;fillColor=none;" vertex="1" parent="rFoR5pqwhkgLBTL8F6Wg-1">
          <mxGeometry x="1005" y="250" width="150" height="30" as="geometry" />
        </mxCell>
        <mxCell id="rFoR5pqwhkgLBTL8F6Wg-18" value="2" style="text;html=1;align=center;verticalAlign=middle;resizable=0;points=[];autosize=1;strokeColor=none;fillColor=none;" vertex="1" parent="rFoR5pqwhkgLBTL8F6Wg-1">
          <mxGeometry x="1065" y="280" width="30" height="30" as="geometry" />
        </mxCell>
        <mxCell id="rFoR5pqwhkgLBTL8F6Wg-19" value="10" style="ellipse;whiteSpace=wrap;html=1;aspect=fixed;" vertex="1" parent="rFoR5pqwhkgLBTL8F6Wg-1">
          <mxGeometry x="1475" y="240" width="80" height="80" as="geometry" />
        </mxCell>
        <mxCell id="rFoR5pqwhkgLBTL8F6Wg-20" value="" style="endArrow=classic;html=1;rounded=0;entryX=0;entryY=0.5;entryDx=0;entryDy=0;strokeWidth=2;" edge="1" parent="rFoR5pqwhkgLBTL8F6Wg-1" target="rFoR5pqwhkgLBTL8F6Wg-19">
          <mxGeometry width="50" height="50" relative="1" as="geometry">
            <mxPoint x="1280" y="280" as="sourcePoint" />
            <mxPoint x="1330" y="230" as="targetPoint" />
          </mxGeometry>
        </mxCell>
        <mxCell id="rFoR5pqwhkgLBTL8F6Wg-21" value="Escrita dos diagramas UML" style="text;html=1;align=center;verticalAlign=middle;resizable=0;points=[];autosize=1;strokeColor=none;fillColor=none;" vertex="1" parent="rFoR5pqwhkgLBTL8F6Wg-1">
          <mxGeometry x="1300" y="250" width="170" height="30" as="geometry" />
        </mxCell>
        <mxCell id="rFoR5pqwhkgLBTL8F6Wg-22" value="5" style="text;html=1;align=center;verticalAlign=middle;resizable=0;points=[];autosize=1;strokeColor=none;fillColor=none;" vertex="1" parent="rFoR5pqwhkgLBTL8F6Wg-1">
          <mxGeometry x="1370" y="280" width="30" height="30" as="geometry" />
        </mxCell>
        <mxCell id="rFoR5pqwhkgLBTL8F6Wg-23" value="11" style="ellipse;whiteSpace=wrap;html=1;aspect=fixed;" vertex="1" parent="rFoR5pqwhkgLBTL8F6Wg-1">
          <mxGeometry x="1780" y="240" width="80" height="80" as="geometry" />
        </mxCell>
        <mxCell id="rFoR5pqwhkgLBTL8F6Wg-24" value="" style="endArrow=classic;html=1;rounded=0;entryX=0;entryY=0.5;entryDx=0;entryDy=0;strokeWidth=2;exitX=1;exitY=0.5;exitDx=0;exitDy=0;" edge="1" parent="rFoR5pqwhkgLBTL8F6Wg-1" source="rFoR5pqwhkgLBTL8F6Wg-19" target="rFoR5pqwhkgLBTL8F6Wg-23">
          <mxGeometry width="50" height="50" relative="1" as="geometry">
            <mxPoint x="1570" y="310" as="sourcePoint" />
            <mxPoint x="1590" y="230" as="targetPoint" />
          </mxGeometry>
        </mxCell>
        <mxCell id="rFoR5pqwhkgLBTL8F6Wg-25" value="Revisão dos diagramas UML" style="text;html=1;align=center;verticalAlign=middle;resizable=0;points=[];autosize=1;strokeColor=none;fillColor=none;" vertex="1" parent="rFoR5pqwhkgLBTL8F6Wg-1">
          <mxGeometry x="1580" y="250" width="180" height="30" as="geometry" />
        </mxCell>
        <mxCell id="rFoR5pqwhkgLBTL8F6Wg-26" value="5" style="text;html=1;align=center;verticalAlign=middle;resizable=0;points=[];autosize=1;strokeColor=none;fillColor=none;" vertex="1" parent="rFoR5pqwhkgLBTL8F6Wg-1">
          <mxGeometry x="1655" y="280" width="30" height="30" as="geometry" />
        </mxCell>
        <mxCell id="rFoR5pqwhkgLBTL8F6Wg-27" value="12" style="ellipse;whiteSpace=wrap;html=1;aspect=fixed;" vertex="1" parent="rFoR5pqwhkgLBTL8F6Wg-1">
          <mxGeometry x="2100" y="240" width="80" height="80" as="geometry" />
        </mxCell>
        <mxCell id="rFoR5pqwhkgLBTL8F6Wg-28" value="" style="endArrow=classic;html=1;rounded=0;entryX=0;entryY=0.5;entryDx=0;entryDy=0;strokeWidth=2;" edge="1" parent="rFoR5pqwhkgLBTL8F6Wg-1" target="rFoR5pqwhkgLBTL8F6Wg-27">
          <mxGeometry width="50" height="50" relative="1" as="geometry">
            <mxPoint x="1860" y="280" as="sourcePoint" />
            <mxPoint x="1910" y="230" as="targetPoint" />
          </mxGeometry>
        </mxCell>
        <mxCell id="rFoR5pqwhkgLBTL8F6Wg-29" value="Correção dos diagramas UML" style="text;html=1;align=center;verticalAlign=middle;resizable=0;points=[];autosize=1;strokeColor=none;fillColor=none;" vertex="1" parent="rFoR5pqwhkgLBTL8F6Wg-1">
          <mxGeometry x="1890" y="250" width="180" height="30" as="geometry" />
        </mxCell>
        <mxCell id="rFoR5pqwhkgLBTL8F6Wg-30" value="5" style="text;html=1;align=center;verticalAlign=middle;resizable=0;points=[];autosize=1;strokeColor=none;fillColor=none;" vertex="1" parent="rFoR5pqwhkgLBTL8F6Wg-1">
          <mxGeometry x="1965" y="280" width="30" height="30" as="geometry" />
        </mxCell>
        <mxCell id="rFoR5pqwhkgLBTL8F6Wg-31" value="13" style="ellipse;whiteSpace=wrap;html=1;aspect=fixed;" vertex="1" parent="rFoR5pqwhkgLBTL8F6Wg-1">
          <mxGeometry x="2400" y="240" width="80" height="80" as="geometry" />
        </mxCell>
        <mxCell id="rFoR5pqwhkgLBTL8F6Wg-32" value="" style="endArrow=classic;html=1;rounded=0;entryX=0;entryY=0.5;entryDx=0;entryDy=0;exitX=1;exitY=0.5;exitDx=0;exitDy=0;strokeWidth=2;" edge="1" parent="rFoR5pqwhkgLBTL8F6Wg-1" source="rFoR5pqwhkgLBTL8F6Wg-27" target="rFoR5pqwhkgLBTL8F6Wg-31">
          <mxGeometry width="50" height="50" relative="1" as="geometry">
            <mxPoint x="2150" y="70" as="sourcePoint" />
            <mxPoint x="2210" y="20" as="targetPoint" />
            <Array as="points" />
          </mxGeometry>
        </mxCell>
        <mxCell id="rFoR5pqwhkgLBTL8F6Wg-33" value="Implementação das classes" style="text;html=1;align=center;verticalAlign=middle;resizable=0;points=[];autosize=1;strokeColor=none;fillColor=none;" vertex="1" parent="rFoR5pqwhkgLBTL8F6Wg-1">
          <mxGeometry x="2210" y="250" width="170" height="30" as="geometry" />
        </mxCell>
        <mxCell id="rFoR5pqwhkgLBTL8F6Wg-34" value="10" style="text;html=1;align=center;verticalAlign=middle;resizable=0;points=[];autosize=1;strokeColor=none;fillColor=none;" vertex="1" parent="rFoR5pqwhkgLBTL8F6Wg-1">
          <mxGeometry x="2275" y="280" width="40" height="30" as="geometry" />
        </mxCell>
        <mxCell id="rFoR5pqwhkgLBTL8F6Wg-35" value="14" style="ellipse;whiteSpace=wrap;html=1;aspect=fixed;" vertex="1" parent="rFoR5pqwhkgLBTL8F6Wg-1">
          <mxGeometry x="2710" y="-10" width="80" height="80" as="geometry" />
        </mxCell>
        <mxCell id="rFoR5pqwhkgLBTL8F6Wg-36" value="" style="endArrow=classic;html=1;rounded=0;entryX=0;entryY=0.5;entryDx=0;entryDy=0;exitX=0.5;exitY=0;exitDx=0;exitDy=0;" edge="1" parent="rFoR5pqwhkgLBTL8F6Wg-1" source="rFoR5pqwhkgLBTL8F6Wg-31" target="rFoR5pqwhkgLBTL8F6Wg-35">
          <mxGeometry width="50" height="50" relative="1" as="geometry">
            <mxPoint x="2140" y="240" as="sourcePoint" />
            <mxPoint x="2190" y="190" as="targetPoint" />
            <Array as="points">
              <mxPoint x="2440" y="30" />
            </Array>
          </mxGeometry>
        </mxCell>
        <mxCell id="rFoR5pqwhkgLBTL8F6Wg-37" value="Formulação de testes" style="text;html=1;align=center;verticalAlign=middle;resizable=0;points=[];autosize=1;strokeColor=none;fillColor=none;" vertex="1" parent="rFoR5pqwhkgLBTL8F6Wg-1">
          <mxGeometry x="2520" width="140" height="30" as="geometry" />
        </mxCell>
        <mxCell id="rFoR5pqwhkgLBTL8F6Wg-38" value="5" style="text;html=1;align=center;verticalAlign=middle;resizable=0;points=[];autosize=1;strokeColor=none;fillColor=none;" vertex="1" parent="rFoR5pqwhkgLBTL8F6Wg-1">
          <mxGeometry x="2575" y="30" width="30" height="30" as="geometry" />
        </mxCell>
        <mxCell id="rFoR5pqwhkgLBTL8F6Wg-39" style="edgeStyle=orthogonalEdgeStyle;rounded=0;orthogonalLoop=1;jettySize=auto;html=1;entryX=0;entryY=0.5;entryDx=0;entryDy=0;strokeWidth=2;" edge="1" parent="rFoR5pqwhkgLBTL8F6Wg-1" source="rFoR5pqwhkgLBTL8F6Wg-40" target="rFoR5pqwhkgLBTL8F6Wg-44">
          <mxGeometry relative="1" as="geometry" />
        </mxCell>
        <mxCell id="rFoR5pqwhkgLBTL8F6Wg-40" value="14" style="ellipse;whiteSpace=wrap;html=1;aspect=fixed;" vertex="1" parent="rFoR5pqwhkgLBTL8F6Wg-1">
          <mxGeometry x="2710" y="240" width="80" height="80" as="geometry" />
        </mxCell>
        <mxCell id="rFoR5pqwhkgLBTL8F6Wg-41" value="" style="endArrow=classic;html=1;rounded=0;entryX=0;entryY=0.5;entryDx=0;entryDy=0;strokeWidth=2;" edge="1" parent="rFoR5pqwhkgLBTL8F6Wg-1" target="rFoR5pqwhkgLBTL8F6Wg-40">
          <mxGeometry width="50" height="50" relative="1" as="geometry">
            <mxPoint x="2480" y="280" as="sourcePoint" />
            <mxPoint x="2530" y="230" as="targetPoint" />
          </mxGeometry>
        </mxCell>
        <mxCell id="rFoR5pqwhkgLBTL8F6Wg-42" value="Integração do software" style="text;html=1;align=center;verticalAlign=middle;resizable=0;points=[];autosize=1;strokeColor=none;fillColor=none;" vertex="1" parent="rFoR5pqwhkgLBTL8F6Wg-1">
          <mxGeometry x="2525" y="250" width="150" height="30" as="geometry" />
        </mxCell>
        <mxCell id="rFoR5pqwhkgLBTL8F6Wg-43" value="5" style="text;html=1;align=center;verticalAlign=middle;resizable=0;points=[];autosize=1;strokeColor=none;fillColor=none;" vertex="1" parent="rFoR5pqwhkgLBTL8F6Wg-1">
          <mxGeometry x="2585" y="280" width="30" height="30" as="geometry" />
        </mxCell>
        <mxCell id="rFoR5pqwhkgLBTL8F6Wg-44" value="15" style="ellipse;whiteSpace=wrap;html=1;aspect=fixed;" vertex="1" parent="rFoR5pqwhkgLBTL8F6Wg-1">
          <mxGeometry x="3010" y="240" width="80" height="80" as="geometry" />
        </mxCell>
        <mxCell id="rFoR5pqwhkgLBTL8F6Wg-45" value="Correção final" style="text;html=1;align=center;verticalAlign=middle;resizable=0;points=[];autosize=1;strokeColor=none;fillColor=none;" vertex="1" parent="rFoR5pqwhkgLBTL8F6Wg-1">
          <mxGeometry x="2850" y="250" width="100" height="30" as="geometry" />
        </mxCell>
        <mxCell id="rFoR5pqwhkgLBTL8F6Wg-46" value="5" style="text;html=1;align=center;verticalAlign=middle;resizable=0;points=[];autosize=1;strokeColor=none;fillColor=none;" vertex="1" parent="rFoR5pqwhkgLBTL8F6Wg-1">
          <mxGeometry x="2885" y="280" width="30" height="30" as="geometry" />
        </mxCell>
        <mxCell id="rFoR5pqwhkgLBTL8F6Wg-47" value="" style="endArrow=classic;html=1;rounded=0;entryX=0.5;entryY=0;entryDx=0;entryDy=0;dashed=1;exitX=0.5;exitY=1;exitDx=0;exitDy=0;" edge="1" parent="rFoR5pqwhkgLBTL8F6Wg-1" source="rFoR5pqwhkgLBTL8F6Wg-35" target="rFoR5pqwhkgLBTL8F6Wg-40">
          <mxGeometry width="50" height="50" relative="1" as="geometry">
            <mxPoint x="2480" y="70" as="sourcePoint" />
            <mxPoint x="2530" y="20" as="targetPoint" />
            <Array as="points">
              <mxPoint x="2750" y="70" />
            </Array>
          </mxGeometry>
        </mxCell>
        <mxCell id="rFoR5pqwhkgLBTL8F6Wg-48" value="0/0&lt;br&gt;0" style="text;html=1;align=center;verticalAlign=middle;whiteSpace=wrap;rounded=0;" vertex="1" parent="rFoR5pqwhkgLBTL8F6Wg-1">
          <mxGeometry x="30" y="200" width="60" height="30" as="geometry" />
        </mxCell>
        <mxCell id="rFoR5pqwhkgLBTL8F6Wg-49" value="1/1&lt;br&gt;0" style="text;html=1;align=center;verticalAlign=middle;resizable=0;points=[];autosize=1;strokeColor=none;fillColor=none;" vertex="1" parent="rFoR5pqwhkgLBTL8F6Wg-1">
          <mxGeometry x="320" y="195" width="40" height="40" as="geometry" />
        </mxCell>
        <mxCell id="rFoR5pqwhkgLBTL8F6Wg-50" value="11/11&lt;br&gt;0" style="text;html=1;align=center;verticalAlign=middle;resizable=0;points=[];autosize=1;strokeColor=none;fillColor=none;" vertex="1" parent="rFoR5pqwhkgLBTL8F6Wg-1">
          <mxGeometry x="575" y="190" width="50" height="40" as="geometry" />
        </mxCell>
        <mxCell id="rFoR5pqwhkgLBTL8F6Wg-51" value="19/19&lt;div&gt;0&lt;/div&gt;" style="text;html=1;align=center;verticalAlign=middle;resizable=0;points=[];autosize=1;strokeColor=none;fillColor=none;" vertex="1" parent="rFoR5pqwhkgLBTL8F6Wg-1">
          <mxGeometry x="895" y="190" width="50" height="40" as="geometry" />
        </mxCell>
        <mxCell id="rFoR5pqwhkgLBTL8F6Wg-52" value="21/21&lt;br&gt;0" style="text;html=1;align=center;verticalAlign=middle;resizable=0;points=[];autosize=1;strokeColor=none;fillColor=none;" vertex="1" parent="rFoR5pqwhkgLBTL8F6Wg-1">
          <mxGeometry x="1215" y="190" width="50" height="40" as="geometry" />
        </mxCell>
        <mxCell id="rFoR5pqwhkgLBTL8F6Wg-53" value="26/26&lt;br&gt;0" style="text;html=1;align=center;verticalAlign=middle;resizable=0;points=[];autosize=1;strokeColor=none;fillColor=none;" vertex="1" parent="rFoR5pqwhkgLBTL8F6Wg-1">
          <mxGeometry x="1490" y="195" width="50" height="40" as="geometry" />
        </mxCell>
        <mxCell id="rFoR5pqwhkgLBTL8F6Wg-54" value="31/31&lt;br&gt;0" style="text;html=1;align=center;verticalAlign=middle;resizable=0;points=[];autosize=1;strokeColor=none;fillColor=none;" vertex="1" parent="rFoR5pqwhkgLBTL8F6Wg-1">
          <mxGeometry x="1795" y="190" width="50" height="40" as="geometry" />
        </mxCell>
        <mxCell id="rFoR5pqwhkgLBTL8F6Wg-55" value="51/51&lt;br&gt;0" style="text;html=1;align=center;verticalAlign=middle;resizable=0;points=[];autosize=1;strokeColor=none;fillColor=none;" vertex="1" parent="rFoR5pqwhkgLBTL8F6Wg-1">
          <mxGeometry x="2725" y="-60" width="50" height="40" as="geometry" />
        </mxCell>
        <mxCell id="rFoR5pqwhkgLBTL8F6Wg-56" value="46/46&lt;br&gt;0" style="text;html=1;align=center;verticalAlign=middle;resizable=0;points=[];autosize=1;strokeColor=none;fillColor=none;" vertex="1" parent="rFoR5pqwhkgLBTL8F6Wg-1">
          <mxGeometry x="2415" y="325" width="50" height="40" as="geometry" />
        </mxCell>
        <mxCell id="rFoR5pqwhkgLBTL8F6Wg-57" value="56/56&lt;br&gt;0" style="text;html=1;align=center;verticalAlign=middle;resizable=0;points=[];autosize=1;strokeColor=none;fillColor=none;" vertex="1" parent="rFoR5pqwhkgLBTL8F6Wg-1">
          <mxGeometry x="3025" y="325" width="50" height="40" as="geometry" />
        </mxCell>
        <mxCell id="rFoR5pqwhkgLBTL8F6Wg-58" value="36/36&lt;br&gt;0" style="text;html=1;align=center;verticalAlign=middle;resizable=0;points=[];autosize=1;strokeColor=none;fillColor=none;" vertex="1" parent="rFoR5pqwhkgLBTL8F6Wg-1">
          <mxGeometry x="2115" y="195" width="50" height="40" as="geometry" />
        </mxCell>
        <mxCell id="rFoR5pqwhkgLBTL8F6Wg-59" value="51/51&lt;br&gt;0" style="text;html=1;align=center;verticalAlign=middle;resizable=0;points=[];autosize=1;strokeColor=none;fillColor=none;" vertex="1" parent="rFoR5pqwhkgLBTL8F6Wg-1">
          <mxGeometry x="2725" y="325" width="50" height="40" as="geometry" />
        </mxCell>
      </root>
    </mxGraphModel>
  </diagram>
  <diagram name="SEMANA 23/09" id="Dfl36VzfldSs8FPcDWU9">
    <mxGraphModel grid="1" page="1" gridSize="10" guides="1" tooltips="1" connect="1" arrows="1" fold="1" pageScale="1" pageWidth="850" pageHeight="1100" math="0" shadow="0">
      <root>
        <mxCell id="QopQcQskyeJXrPNpNVwc-0" />
        <mxCell id="QopQcQskyeJXrPNpNVwc-1" parent="QopQcQskyeJXrPNpNVwc-0" />
        <mxCell id="QopQcQskyeJXrPNpNVwc-2" value="1" style="ellipse;whiteSpace=wrap;html=1;aspect=fixed;" vertex="1" parent="QopQcQskyeJXrPNpNVwc-1">
          <mxGeometry x="20" y="240" width="80" height="80" as="geometry" />
        </mxCell>
        <mxCell id="QopQcQskyeJXrPNpNVwc-3" value="2" style="ellipse;whiteSpace=wrap;html=1;aspect=fixed;" vertex="1" parent="QopQcQskyeJXrPNpNVwc-1">
          <mxGeometry x="300" y="240" width="80" height="80" as="geometry" />
        </mxCell>
        <mxCell id="QopQcQskyeJXrPNpNVwc-4" value="" style="endArrow=classic;html=1;rounded=0;entryX=0;entryY=0.5;entryDx=0;entryDy=0;strokeWidth=2;" edge="1" parent="QopQcQskyeJXrPNpNVwc-1" target="QopQcQskyeJXrPNpNVwc-3">
          <mxGeometry width="50" height="50" relative="1" as="geometry">
            <mxPoint x="100" y="280" as="sourcePoint" />
            <mxPoint x="150" y="230" as="targetPoint" />
          </mxGeometry>
        </mxCell>
        <mxCell id="QopQcQskyeJXrPNpNVwc-5" value="Reunião com o cliente" style="text;html=1;align=center;verticalAlign=middle;resizable=0;points=[];autosize=1;strokeColor=none;fillColor=none;" vertex="1" parent="QopQcQskyeJXrPNpNVwc-1">
          <mxGeometry x="130" y="250" width="140" height="30" as="geometry" />
        </mxCell>
        <mxCell id="QopQcQskyeJXrPNpNVwc-6" value="1" style="text;html=1;align=center;verticalAlign=middle;resizable=0;points=[];autosize=1;strokeColor=none;fillColor=none;" vertex="1" parent="QopQcQskyeJXrPNpNVwc-1">
          <mxGeometry x="185" y="280" width="30" height="30" as="geometry" />
        </mxCell>
        <mxCell id="QopQcQskyeJXrPNpNVwc-7" value="3" style="ellipse;whiteSpace=wrap;html=1;aspect=fixed;" vertex="1" parent="QopQcQskyeJXrPNpNVwc-1">
          <mxGeometry x="560" y="240" width="80" height="80" as="geometry" />
        </mxCell>
        <mxCell id="QopQcQskyeJXrPNpNVwc-8" value="" style="endArrow=classic;html=1;rounded=0;entryX=0;entryY=0.5;entryDx=0;entryDy=0;strokeWidth=2;" edge="1" parent="QopQcQskyeJXrPNpNVwc-1" target="QopQcQskyeJXrPNpNVwc-7">
          <mxGeometry width="50" height="50" relative="1" as="geometry">
            <mxPoint x="380" y="280" as="sourcePoint" />
            <mxPoint x="430" y="230" as="targetPoint" />
          </mxGeometry>
        </mxCell>
        <mxCell id="QopQcQskyeJXrPNpNVwc-9" value="Escrita dos requisitos" style="text;html=1;align=center;verticalAlign=middle;resizable=0;points=[];autosize=1;strokeColor=none;fillColor=none;" vertex="1" parent="QopQcQskyeJXrPNpNVwc-1">
          <mxGeometry x="400" y="250" width="140" height="30" as="geometry" />
        </mxCell>
        <mxCell id="QopQcQskyeJXrPNpNVwc-10" value="10" style="text;html=1;align=center;verticalAlign=middle;resizable=0;points=[];autosize=1;strokeColor=none;fillColor=none;" vertex="1" parent="QopQcQskyeJXrPNpNVwc-1">
          <mxGeometry x="450" y="280" width="40" height="30" as="geometry" />
        </mxCell>
        <mxCell id="QopQcQskyeJXrPNpNVwc-11" value="5" style="ellipse;whiteSpace=wrap;html=1;aspect=fixed;" vertex="1" parent="QopQcQskyeJXrPNpNVwc-1">
          <mxGeometry x="880" y="240" width="80" height="80" as="geometry" />
        </mxCell>
        <mxCell id="QopQcQskyeJXrPNpNVwc-12" value="" style="endArrow=classic;html=1;rounded=0;entryX=0;entryY=0.5;entryDx=0;entryDy=0;strokeWidth=2;" edge="1" parent="QopQcQskyeJXrPNpNVwc-1" target="QopQcQskyeJXrPNpNVwc-11">
          <mxGeometry width="50" height="50" relative="1" as="geometry">
            <mxPoint x="640" y="280" as="sourcePoint" />
            <mxPoint x="690" y="230" as="targetPoint" />
          </mxGeometry>
        </mxCell>
        <mxCell id="QopQcQskyeJXrPNpNVwc-13" value="Revisão dos requisitos" style="text;html=1;align=center;verticalAlign=middle;resizable=0;points=[];autosize=1;strokeColor=none;fillColor=none;" vertex="1" parent="QopQcQskyeJXrPNpNVwc-1">
          <mxGeometry x="690" y="250" width="140" height="30" as="geometry" />
        </mxCell>
        <mxCell id="QopQcQskyeJXrPNpNVwc-14" value="8" style="text;html=1;align=center;verticalAlign=middle;resizable=0;points=[];autosize=1;strokeColor=none;fillColor=none;" vertex="1" parent="QopQcQskyeJXrPNpNVwc-1">
          <mxGeometry x="745" y="280" width="30" height="30" as="geometry" />
        </mxCell>
        <mxCell id="QopQcQskyeJXrPNpNVwc-15" value="9" style="ellipse;whiteSpace=wrap;html=1;aspect=fixed;" vertex="1" parent="QopQcQskyeJXrPNpNVwc-1">
          <mxGeometry x="1200" y="240" width="80" height="80" as="geometry" />
        </mxCell>
        <mxCell id="QopQcQskyeJXrPNpNVwc-16" value="" style="endArrow=classic;html=1;rounded=0;entryX=0;entryY=0.5;entryDx=0;entryDy=0;strokeWidth=2;" edge="1" parent="QopQcQskyeJXrPNpNVwc-1" target="QopQcQskyeJXrPNpNVwc-15">
          <mxGeometry width="50" height="50" relative="1" as="geometry">
            <mxPoint x="960" y="280" as="sourcePoint" />
            <mxPoint x="1010" y="230" as="targetPoint" />
          </mxGeometry>
        </mxCell>
        <mxCell id="QopQcQskyeJXrPNpNVwc-17" value="Correção dos requisitos" style="text;html=1;align=center;verticalAlign=middle;resizable=0;points=[];autosize=1;strokeColor=none;fillColor=none;" vertex="1" parent="QopQcQskyeJXrPNpNVwc-1">
          <mxGeometry x="1005" y="250" width="150" height="30" as="geometry" />
        </mxCell>
        <mxCell id="QopQcQskyeJXrPNpNVwc-18" value="2" style="text;html=1;align=center;verticalAlign=middle;resizable=0;points=[];autosize=1;strokeColor=none;fillColor=none;" vertex="1" parent="QopQcQskyeJXrPNpNVwc-1">
          <mxGeometry x="1065" y="280" width="30" height="30" as="geometry" />
        </mxCell>
        <mxCell id="QopQcQskyeJXrPNpNVwc-19" value="10" style="ellipse;whiteSpace=wrap;html=1;aspect=fixed;" vertex="1" parent="QopQcQskyeJXrPNpNVwc-1">
          <mxGeometry x="1475" y="240" width="80" height="80" as="geometry" />
        </mxCell>
        <mxCell id="QopQcQskyeJXrPNpNVwc-20" value="" style="endArrow=classic;html=1;rounded=0;entryX=0;entryY=0.5;entryDx=0;entryDy=0;strokeWidth=2;" edge="1" parent="QopQcQskyeJXrPNpNVwc-1" target="QopQcQskyeJXrPNpNVwc-19">
          <mxGeometry width="50" height="50" relative="1" as="geometry">
            <mxPoint x="1280" y="280" as="sourcePoint" />
            <mxPoint x="1330" y="230" as="targetPoint" />
          </mxGeometry>
        </mxCell>
        <mxCell id="QopQcQskyeJXrPNpNVwc-21" value="Escrita dos diagramas UML" style="text;html=1;align=center;verticalAlign=middle;resizable=0;points=[];autosize=1;strokeColor=none;fillColor=none;" vertex="1" parent="QopQcQskyeJXrPNpNVwc-1">
          <mxGeometry x="1300" y="250" width="170" height="30" as="geometry" />
        </mxCell>
        <mxCell id="QopQcQskyeJXrPNpNVwc-22" value="5" style="text;html=1;align=center;verticalAlign=middle;resizable=0;points=[];autosize=1;strokeColor=none;fillColor=none;" vertex="1" parent="QopQcQskyeJXrPNpNVwc-1">
          <mxGeometry x="1370" y="280" width="30" height="30" as="geometry" />
        </mxCell>
        <mxCell id="QopQcQskyeJXrPNpNVwc-23" value="11" style="ellipse;whiteSpace=wrap;html=1;aspect=fixed;" vertex="1" parent="QopQcQskyeJXrPNpNVwc-1">
          <mxGeometry x="1780" y="240" width="80" height="80" as="geometry" />
        </mxCell>
        <mxCell id="QopQcQskyeJXrPNpNVwc-24" value="" style="endArrow=classic;html=1;rounded=0;entryX=0;entryY=0.5;entryDx=0;entryDy=0;strokeWidth=2;exitX=1;exitY=0.5;exitDx=0;exitDy=0;" edge="1" parent="QopQcQskyeJXrPNpNVwc-1" source="QopQcQskyeJXrPNpNVwc-19" target="QopQcQskyeJXrPNpNVwc-23">
          <mxGeometry width="50" height="50" relative="1" as="geometry">
            <mxPoint x="1570" y="310" as="sourcePoint" />
            <mxPoint x="1590" y="230" as="targetPoint" />
          </mxGeometry>
        </mxCell>
        <mxCell id="QopQcQskyeJXrPNpNVwc-25" value="Revisão dos diagramas UML" style="text;html=1;align=center;verticalAlign=middle;resizable=0;points=[];autosize=1;strokeColor=none;fillColor=none;" vertex="1" parent="QopQcQskyeJXrPNpNVwc-1">
          <mxGeometry x="1580" y="250" width="180" height="30" as="geometry" />
        </mxCell>
        <mxCell id="QopQcQskyeJXrPNpNVwc-26" value="5" style="text;html=1;align=center;verticalAlign=middle;resizable=0;points=[];autosize=1;strokeColor=none;fillColor=none;" vertex="1" parent="QopQcQskyeJXrPNpNVwc-1">
          <mxGeometry x="1655" y="280" width="30" height="30" as="geometry" />
        </mxCell>
        <mxCell id="QopQcQskyeJXrPNpNVwc-27" value="12" style="ellipse;whiteSpace=wrap;html=1;aspect=fixed;" vertex="1" parent="QopQcQskyeJXrPNpNVwc-1">
          <mxGeometry x="2100" y="240" width="80" height="80" as="geometry" />
        </mxCell>
        <mxCell id="QopQcQskyeJXrPNpNVwc-28" value="" style="endArrow=classic;html=1;rounded=0;entryX=0;entryY=0.5;entryDx=0;entryDy=0;strokeWidth=2;" edge="1" parent="QopQcQskyeJXrPNpNVwc-1" target="QopQcQskyeJXrPNpNVwc-27">
          <mxGeometry width="50" height="50" relative="1" as="geometry">
            <mxPoint x="1860" y="280" as="sourcePoint" />
            <mxPoint x="1910" y="230" as="targetPoint" />
          </mxGeometry>
        </mxCell>
        <mxCell id="QopQcQskyeJXrPNpNVwc-29" value="Correção dos diagramas UML" style="text;html=1;align=center;verticalAlign=middle;resizable=0;points=[];autosize=1;strokeColor=none;fillColor=none;" vertex="1" parent="QopQcQskyeJXrPNpNVwc-1">
          <mxGeometry x="1890" y="250" width="180" height="30" as="geometry" />
        </mxCell>
        <mxCell id="QopQcQskyeJXrPNpNVwc-30" value="5" style="text;html=1;align=center;verticalAlign=middle;resizable=0;points=[];autosize=1;strokeColor=none;fillColor=none;" vertex="1" parent="QopQcQskyeJXrPNpNVwc-1">
          <mxGeometry x="1965" y="280" width="30" height="30" as="geometry" />
        </mxCell>
        <mxCell id="QopQcQskyeJXrPNpNVwc-31" value="13" style="ellipse;whiteSpace=wrap;html=1;aspect=fixed;" vertex="1" parent="QopQcQskyeJXrPNpNVwc-1">
          <mxGeometry x="2400" y="240" width="80" height="80" as="geometry" />
        </mxCell>
        <mxCell id="QopQcQskyeJXrPNpNVwc-32" value="" style="endArrow=classic;html=1;rounded=0;entryX=0;entryY=0.5;entryDx=0;entryDy=0;exitX=1;exitY=0.5;exitDx=0;exitDy=0;strokeWidth=2;" edge="1" parent="QopQcQskyeJXrPNpNVwc-1" source="QopQcQskyeJXrPNpNVwc-27" target="QopQcQskyeJXrPNpNVwc-31">
          <mxGeometry width="50" height="50" relative="1" as="geometry">
            <mxPoint x="2150" y="70" as="sourcePoint" />
            <mxPoint x="2210" y="20" as="targetPoint" />
            <Array as="points" />
          </mxGeometry>
        </mxCell>
        <mxCell id="QopQcQskyeJXrPNpNVwc-33" value="Implementação das classes" style="text;html=1;align=center;verticalAlign=middle;resizable=0;points=[];autosize=1;strokeColor=none;fillColor=none;" vertex="1" parent="QopQcQskyeJXrPNpNVwc-1">
          <mxGeometry x="2210" y="250" width="170" height="30" as="geometry" />
        </mxCell>
        <mxCell id="QopQcQskyeJXrPNpNVwc-34" value="10" style="text;html=1;align=center;verticalAlign=middle;resizable=0;points=[];autosize=1;strokeColor=none;fillColor=none;" vertex="1" parent="QopQcQskyeJXrPNpNVwc-1">
          <mxGeometry x="2275" y="280" width="40" height="30" as="geometry" />
        </mxCell>
        <mxCell id="QopQcQskyeJXrPNpNVwc-35" value="14" style="ellipse;whiteSpace=wrap;html=1;aspect=fixed;" vertex="1" parent="QopQcQskyeJXrPNpNVwc-1">
          <mxGeometry x="2710" y="-10" width="80" height="80" as="geometry" />
        </mxCell>
        <mxCell id="QopQcQskyeJXrPNpNVwc-36" value="" style="endArrow=classic;html=1;rounded=0;entryX=0;entryY=0.5;entryDx=0;entryDy=0;exitX=0.5;exitY=0;exitDx=0;exitDy=0;" edge="1" parent="QopQcQskyeJXrPNpNVwc-1" source="QopQcQskyeJXrPNpNVwc-31" target="QopQcQskyeJXrPNpNVwc-35">
          <mxGeometry width="50" height="50" relative="1" as="geometry">
            <mxPoint x="2140" y="240" as="sourcePoint" />
            <mxPoint x="2190" y="190" as="targetPoint" />
            <Array as="points">
              <mxPoint x="2440" y="30" />
            </Array>
          </mxGeometry>
        </mxCell>
        <mxCell id="QopQcQskyeJXrPNpNVwc-37" value="Formulação de testes" style="text;html=1;align=center;verticalAlign=middle;resizable=0;points=[];autosize=1;strokeColor=none;fillColor=none;" vertex="1" parent="QopQcQskyeJXrPNpNVwc-1">
          <mxGeometry x="2520" width="140" height="30" as="geometry" />
        </mxCell>
        <mxCell id="QopQcQskyeJXrPNpNVwc-38" value="5" style="text;html=1;align=center;verticalAlign=middle;resizable=0;points=[];autosize=1;strokeColor=none;fillColor=none;" vertex="1" parent="QopQcQskyeJXrPNpNVwc-1">
          <mxGeometry x="2575" y="30" width="30" height="30" as="geometry" />
        </mxCell>
        <mxCell id="QopQcQskyeJXrPNpNVwc-39" style="edgeStyle=orthogonalEdgeStyle;rounded=0;orthogonalLoop=1;jettySize=auto;html=1;entryX=0;entryY=0.5;entryDx=0;entryDy=0;strokeWidth=2;" edge="1" parent="QopQcQskyeJXrPNpNVwc-1" source="QopQcQskyeJXrPNpNVwc-40" target="QopQcQskyeJXrPNpNVwc-44">
          <mxGeometry relative="1" as="geometry" />
        </mxCell>
        <mxCell id="QopQcQskyeJXrPNpNVwc-40" value="14" style="ellipse;whiteSpace=wrap;html=1;aspect=fixed;" vertex="1" parent="QopQcQskyeJXrPNpNVwc-1">
          <mxGeometry x="2710" y="240" width="80" height="80" as="geometry" />
        </mxCell>
        <mxCell id="QopQcQskyeJXrPNpNVwc-41" value="" style="endArrow=classic;html=1;rounded=0;entryX=0;entryY=0.5;entryDx=0;entryDy=0;strokeWidth=2;" edge="1" parent="QopQcQskyeJXrPNpNVwc-1" target="QopQcQskyeJXrPNpNVwc-40">
          <mxGeometry width="50" height="50" relative="1" as="geometry">
            <mxPoint x="2480" y="280" as="sourcePoint" />
            <mxPoint x="2530" y="230" as="targetPoint" />
          </mxGeometry>
        </mxCell>
        <mxCell id="QopQcQskyeJXrPNpNVwc-42" value="Integração do software" style="text;html=1;align=center;verticalAlign=middle;resizable=0;points=[];autosize=1;strokeColor=none;fillColor=none;" vertex="1" parent="QopQcQskyeJXrPNpNVwc-1">
          <mxGeometry x="2525" y="250" width="150" height="30" as="geometry" />
        </mxCell>
        <mxCell id="QopQcQskyeJXrPNpNVwc-43" value="5" style="text;html=1;align=center;verticalAlign=middle;resizable=0;points=[];autosize=1;strokeColor=none;fillColor=none;" vertex="1" parent="QopQcQskyeJXrPNpNVwc-1">
          <mxGeometry x="2585" y="280" width="30" height="30" as="geometry" />
        </mxCell>
        <mxCell id="QopQcQskyeJXrPNpNVwc-44" value="15" style="ellipse;whiteSpace=wrap;html=1;aspect=fixed;" vertex="1" parent="QopQcQskyeJXrPNpNVwc-1">
          <mxGeometry x="3010" y="240" width="80" height="80" as="geometry" />
        </mxCell>
        <mxCell id="QopQcQskyeJXrPNpNVwc-45" value="Correção final" style="text;html=1;align=center;verticalAlign=middle;resizable=0;points=[];autosize=1;strokeColor=none;fillColor=none;" vertex="1" parent="QopQcQskyeJXrPNpNVwc-1">
          <mxGeometry x="2850" y="250" width="100" height="30" as="geometry" />
        </mxCell>
        <mxCell id="QopQcQskyeJXrPNpNVwc-46" value="5" style="text;html=1;align=center;verticalAlign=middle;resizable=0;points=[];autosize=1;strokeColor=none;fillColor=none;" vertex="1" parent="QopQcQskyeJXrPNpNVwc-1">
          <mxGeometry x="2885" y="280" width="30" height="30" as="geometry" />
        </mxCell>
        <mxCell id="QopQcQskyeJXrPNpNVwc-47" value="" style="endArrow=classic;html=1;rounded=0;entryX=0.5;entryY=0;entryDx=0;entryDy=0;dashed=1;exitX=0.5;exitY=1;exitDx=0;exitDy=0;" edge="1" parent="QopQcQskyeJXrPNpNVwc-1" source="QopQcQskyeJXrPNpNVwc-35" target="QopQcQskyeJXrPNpNVwc-40">
          <mxGeometry width="50" height="50" relative="1" as="geometry">
            <mxPoint x="2480" y="70" as="sourcePoint" />
            <mxPoint x="2530" y="20" as="targetPoint" />
            <Array as="points">
              <mxPoint x="2750" y="70" />
            </Array>
          </mxGeometry>
        </mxCell>
        <mxCell id="QopQcQskyeJXrPNpNVwc-48" value="0/0&lt;br&gt;0" style="text;html=1;align=center;verticalAlign=middle;whiteSpace=wrap;rounded=0;" vertex="1" parent="QopQcQskyeJXrPNpNVwc-1">
          <mxGeometry x="30" y="200" width="60" height="30" as="geometry" />
        </mxCell>
        <mxCell id="QopQcQskyeJXrPNpNVwc-49" value="1/1&lt;br&gt;0" style="text;html=1;align=center;verticalAlign=middle;resizable=0;points=[];autosize=1;strokeColor=none;fillColor=none;" vertex="1" parent="QopQcQskyeJXrPNpNVwc-1">
          <mxGeometry x="320" y="195" width="40" height="40" as="geometry" />
        </mxCell>
        <mxCell id="QopQcQskyeJXrPNpNVwc-50" value="11/11&lt;br&gt;0" style="text;html=1;align=center;verticalAlign=middle;resizable=0;points=[];autosize=1;strokeColor=none;fillColor=none;" vertex="1" parent="QopQcQskyeJXrPNpNVwc-1">
          <mxGeometry x="575" y="190" width="50" height="40" as="geometry" />
        </mxCell>
        <mxCell id="QopQcQskyeJXrPNpNVwc-51" value="19/19&lt;div&gt;0&lt;/div&gt;" style="text;html=1;align=center;verticalAlign=middle;resizable=0;points=[];autosize=1;strokeColor=none;fillColor=none;" vertex="1" parent="QopQcQskyeJXrPNpNVwc-1">
          <mxGeometry x="895" y="190" width="50" height="40" as="geometry" />
        </mxCell>
        <mxCell id="QopQcQskyeJXrPNpNVwc-52" value="21/21&lt;br&gt;0" style="text;html=1;align=center;verticalAlign=middle;resizable=0;points=[];autosize=1;strokeColor=none;fillColor=none;" vertex="1" parent="QopQcQskyeJXrPNpNVwc-1">
          <mxGeometry x="1215" y="190" width="50" height="40" as="geometry" />
        </mxCell>
        <mxCell id="QopQcQskyeJXrPNpNVwc-53" value="26/26&lt;br&gt;0" style="text;html=1;align=center;verticalAlign=middle;resizable=0;points=[];autosize=1;strokeColor=none;fillColor=none;" vertex="1" parent="QopQcQskyeJXrPNpNVwc-1">
          <mxGeometry x="1490" y="195" width="50" height="40" as="geometry" />
        </mxCell>
        <mxCell id="QopQcQskyeJXrPNpNVwc-54" value="31/31&lt;br&gt;0" style="text;html=1;align=center;verticalAlign=middle;resizable=0;points=[];autosize=1;strokeColor=none;fillColor=none;" vertex="1" parent="QopQcQskyeJXrPNpNVwc-1">
          <mxGeometry x="1795" y="190" width="50" height="40" as="geometry" />
        </mxCell>
        <mxCell id="QopQcQskyeJXrPNpNVwc-55" value="51/51&lt;br&gt;0" style="text;html=1;align=center;verticalAlign=middle;resizable=0;points=[];autosize=1;strokeColor=none;fillColor=none;" vertex="1" parent="QopQcQskyeJXrPNpNVwc-1">
          <mxGeometry x="2725" y="-60" width="50" height="40" as="geometry" />
        </mxCell>
        <mxCell id="QopQcQskyeJXrPNpNVwc-56" value="46/46&lt;br&gt;0" style="text;html=1;align=center;verticalAlign=middle;resizable=0;points=[];autosize=1;strokeColor=none;fillColor=none;" vertex="1" parent="QopQcQskyeJXrPNpNVwc-1">
          <mxGeometry x="2415" y="325" width="50" height="40" as="geometry" />
        </mxCell>
        <mxCell id="QopQcQskyeJXrPNpNVwc-57" value="56/56&lt;br&gt;0" style="text;html=1;align=center;verticalAlign=middle;resizable=0;points=[];autosize=1;strokeColor=none;fillColor=none;" vertex="1" parent="QopQcQskyeJXrPNpNVwc-1">
          <mxGeometry x="3025" y="325" width="50" height="40" as="geometry" />
        </mxCell>
        <mxCell id="QopQcQskyeJXrPNpNVwc-58" value="36/36&lt;br&gt;0" style="text;html=1;align=center;verticalAlign=middle;resizable=0;points=[];autosize=1;strokeColor=none;fillColor=none;" vertex="1" parent="QopQcQskyeJXrPNpNVwc-1">
          <mxGeometry x="2115" y="195" width="50" height="40" as="geometry" />
        </mxCell>
        <mxCell id="QopQcQskyeJXrPNpNVwc-59" value="51/51&lt;br&gt;0" style="text;html=1;align=center;verticalAlign=middle;resizable=0;points=[];autosize=1;strokeColor=none;fillColor=none;" vertex="1" parent="QopQcQskyeJXrPNpNVwc-1">
          <mxGeometry x="2725" y="325" width="50" height="40" as="geometry" />
        </mxCell>
      </root>
    </mxGraphModel>
  </diagram>
  <diagram name="SEMANA 30/09" id="CH6d7f1tG9HsIH1M9MH4">
    <mxGraphModel grid="1" page="1" gridSize="10" guides="1" tooltips="1" connect="1" arrows="1" fold="1" pageScale="1" pageWidth="850" pageHeight="1100" math="0" shadow="0">
      <root>
        <mxCell id="yPCI4gry3sAGQKP8bV1s-0" />
        <mxCell id="yPCI4gry3sAGQKP8bV1s-1" parent="yPCI4gry3sAGQKP8bV1s-0" />
        <mxCell id="yPCI4gry3sAGQKP8bV1s-2" value="1" style="ellipse;whiteSpace=wrap;html=1;aspect=fixed;" parent="yPCI4gry3sAGQKP8bV1s-1" vertex="1">
          <mxGeometry x="20" y="240" width="80" height="80" as="geometry" />
        </mxCell>
        <mxCell id="yPCI4gry3sAGQKP8bV1s-3" value="2" style="ellipse;whiteSpace=wrap;html=1;aspect=fixed;" parent="yPCI4gry3sAGQKP8bV1s-1" vertex="1">
          <mxGeometry x="300" y="240" width="80" height="80" as="geometry" />
        </mxCell>
        <mxCell id="yPCI4gry3sAGQKP8bV1s-4" value="" style="endArrow=classic;html=1;rounded=0;entryX=0;entryY=0.5;entryDx=0;entryDy=0;strokeWidth=2;" parent="yPCI4gry3sAGQKP8bV1s-1" target="yPCI4gry3sAGQKP8bV1s-3" edge="1">
          <mxGeometry width="50" height="50" relative="1" as="geometry">
            <mxPoint x="100" y="280" as="sourcePoint" />
            <mxPoint x="150" y="230" as="targetPoint" />
          </mxGeometry>
        </mxCell>
        <mxCell id="yPCI4gry3sAGQKP8bV1s-5" value="Reunião com o cliente" style="text;html=1;align=center;verticalAlign=middle;resizable=0;points=[];autosize=1;strokeColor=none;fillColor=none;" parent="yPCI4gry3sAGQKP8bV1s-1" vertex="1">
          <mxGeometry x="130" y="250" width="140" height="30" as="geometry" />
        </mxCell>
        <mxCell id="yPCI4gry3sAGQKP8bV1s-6" value="1" style="text;html=1;align=center;verticalAlign=middle;resizable=0;points=[];autosize=1;strokeColor=none;fillColor=none;" parent="yPCI4gry3sAGQKP8bV1s-1" vertex="1">
          <mxGeometry x="185" y="280" width="30" height="30" as="geometry" />
        </mxCell>
        <mxCell id="yPCI4gry3sAGQKP8bV1s-7" value="3" style="ellipse;whiteSpace=wrap;html=1;aspect=fixed;" parent="yPCI4gry3sAGQKP8bV1s-1" vertex="1">
          <mxGeometry x="560" y="240" width="80" height="80" as="geometry" />
        </mxCell>
        <mxCell id="yPCI4gry3sAGQKP8bV1s-8" value="" style="endArrow=classic;html=1;rounded=0;entryX=0;entryY=0.5;entryDx=0;entryDy=0;strokeWidth=2;" parent="yPCI4gry3sAGQKP8bV1s-1" target="yPCI4gry3sAGQKP8bV1s-7" edge="1">
          <mxGeometry width="50" height="50" relative="1" as="geometry">
            <mxPoint x="380" y="280" as="sourcePoint" />
            <mxPoint x="430" y="230" as="targetPoint" />
          </mxGeometry>
        </mxCell>
        <mxCell id="yPCI4gry3sAGQKP8bV1s-9" value="Escrita dos requisitos" style="text;html=1;align=center;verticalAlign=middle;resizable=0;points=[];autosize=1;strokeColor=none;fillColor=none;" parent="yPCI4gry3sAGQKP8bV1s-1" vertex="1">
          <mxGeometry x="400" y="250" width="140" height="30" as="geometry" />
        </mxCell>
        <mxCell id="yPCI4gry3sAGQKP8bV1s-10" value="10" style="text;html=1;align=center;verticalAlign=middle;resizable=0;points=[];autosize=1;strokeColor=none;fillColor=none;" parent="yPCI4gry3sAGQKP8bV1s-1" vertex="1">
          <mxGeometry x="450" y="280" width="40" height="30" as="geometry" />
        </mxCell>
        <mxCell id="yPCI4gry3sAGQKP8bV1s-11" value="5" style="ellipse;whiteSpace=wrap;html=1;aspect=fixed;" parent="yPCI4gry3sAGQKP8bV1s-1" vertex="1">
          <mxGeometry x="880" y="240" width="80" height="80" as="geometry" />
        </mxCell>
        <mxCell id="yPCI4gry3sAGQKP8bV1s-12" value="" style="endArrow=classic;html=1;rounded=0;entryX=0;entryY=0.5;entryDx=0;entryDy=0;strokeWidth=2;" parent="yPCI4gry3sAGQKP8bV1s-1" target="yPCI4gry3sAGQKP8bV1s-11" edge="1">
          <mxGeometry width="50" height="50" relative="1" as="geometry">
            <mxPoint x="640" y="280" as="sourcePoint" />
            <mxPoint x="690" y="230" as="targetPoint" />
          </mxGeometry>
        </mxCell>
        <mxCell id="yPCI4gry3sAGQKP8bV1s-13" value="Revisão dos requisitos" style="text;html=1;align=center;verticalAlign=middle;resizable=0;points=[];autosize=1;strokeColor=none;fillColor=none;" parent="yPCI4gry3sAGQKP8bV1s-1" vertex="1">
          <mxGeometry x="690" y="250" width="140" height="30" as="geometry" />
        </mxCell>
        <mxCell id="yPCI4gry3sAGQKP8bV1s-14" value="8" style="text;html=1;align=center;verticalAlign=middle;resizable=0;points=[];autosize=1;strokeColor=none;fillColor=none;" parent="yPCI4gry3sAGQKP8bV1s-1" vertex="1">
          <mxGeometry x="745" y="280" width="30" height="30" as="geometry" />
        </mxCell>
        <mxCell id="yPCI4gry3sAGQKP8bV1s-15" value="9" style="ellipse;whiteSpace=wrap;html=1;aspect=fixed;" parent="yPCI4gry3sAGQKP8bV1s-1" vertex="1">
          <mxGeometry x="1200" y="240" width="80" height="80" as="geometry" />
        </mxCell>
        <mxCell id="yPCI4gry3sAGQKP8bV1s-16" value="" style="endArrow=classic;html=1;rounded=0;entryX=0;entryY=0.5;entryDx=0;entryDy=0;strokeWidth=2;" parent="yPCI4gry3sAGQKP8bV1s-1" target="yPCI4gry3sAGQKP8bV1s-15" edge="1">
          <mxGeometry width="50" height="50" relative="1" as="geometry">
            <mxPoint x="960" y="280" as="sourcePoint" />
            <mxPoint x="1010" y="230" as="targetPoint" />
          </mxGeometry>
        </mxCell>
        <mxCell id="yPCI4gry3sAGQKP8bV1s-17" value="Correção dos requisitos" style="text;html=1;align=center;verticalAlign=middle;resizable=0;points=[];autosize=1;strokeColor=none;fillColor=none;" parent="yPCI4gry3sAGQKP8bV1s-1" vertex="1">
          <mxGeometry x="1005" y="250" width="150" height="30" as="geometry" />
        </mxCell>
        <mxCell id="yPCI4gry3sAGQKP8bV1s-18" value="2" style="text;html=1;align=center;verticalAlign=middle;resizable=0;points=[];autosize=1;strokeColor=none;fillColor=none;" parent="yPCI4gry3sAGQKP8bV1s-1" vertex="1">
          <mxGeometry x="1065" y="280" width="30" height="30" as="geometry" />
        </mxCell>
        <mxCell id="yPCI4gry3sAGQKP8bV1s-19" value="10" style="ellipse;whiteSpace=wrap;html=1;aspect=fixed;" parent="yPCI4gry3sAGQKP8bV1s-1" vertex="1">
          <mxGeometry x="1475" y="240" width="80" height="80" as="geometry" />
        </mxCell>
        <mxCell id="yPCI4gry3sAGQKP8bV1s-20" value="" style="endArrow=classic;html=1;rounded=0;entryX=0;entryY=0.5;entryDx=0;entryDy=0;strokeWidth=2;" parent="yPCI4gry3sAGQKP8bV1s-1" target="yPCI4gry3sAGQKP8bV1s-19" edge="1">
          <mxGeometry width="50" height="50" relative="1" as="geometry">
            <mxPoint x="1280" y="280" as="sourcePoint" />
            <mxPoint x="1330" y="230" as="targetPoint" />
          </mxGeometry>
        </mxCell>
        <mxCell id="yPCI4gry3sAGQKP8bV1s-21" value="Escrita dos diagramas UML" style="text;html=1;align=center;verticalAlign=middle;resizable=0;points=[];autosize=1;strokeColor=none;fillColor=none;" parent="yPCI4gry3sAGQKP8bV1s-1" vertex="1">
          <mxGeometry x="1300" y="250" width="170" height="30" as="geometry" />
        </mxCell>
        <mxCell id="yPCI4gry3sAGQKP8bV1s-22" value="5" style="text;html=1;align=center;verticalAlign=middle;resizable=0;points=[];autosize=1;strokeColor=none;fillColor=none;" parent="yPCI4gry3sAGQKP8bV1s-1" vertex="1">
          <mxGeometry x="1370" y="280" width="30" height="30" as="geometry" />
        </mxCell>
        <mxCell id="yPCI4gry3sAGQKP8bV1s-23" value="11" style="ellipse;whiteSpace=wrap;html=1;aspect=fixed;" parent="yPCI4gry3sAGQKP8bV1s-1" vertex="1">
          <mxGeometry x="1780" y="240" width="80" height="80" as="geometry" />
        </mxCell>
        <mxCell id="yPCI4gry3sAGQKP8bV1s-24" value="" style="endArrow=classic;html=1;rounded=0;entryX=0;entryY=0.5;entryDx=0;entryDy=0;strokeWidth=2;exitX=1;exitY=0.5;exitDx=0;exitDy=0;" parent="yPCI4gry3sAGQKP8bV1s-1" source="yPCI4gry3sAGQKP8bV1s-19" target="yPCI4gry3sAGQKP8bV1s-23" edge="1">
          <mxGeometry width="50" height="50" relative="1" as="geometry">
            <mxPoint x="1570" y="310" as="sourcePoint" />
            <mxPoint x="1590" y="230" as="targetPoint" />
          </mxGeometry>
        </mxCell>
        <mxCell id="yPCI4gry3sAGQKP8bV1s-25" value="Revisão dos diagramas UML" style="text;html=1;align=center;verticalAlign=middle;resizable=0;points=[];autosize=1;strokeColor=none;fillColor=none;" parent="yPCI4gry3sAGQKP8bV1s-1" vertex="1">
          <mxGeometry x="1580" y="250" width="180" height="30" as="geometry" />
        </mxCell>
        <mxCell id="yPCI4gry3sAGQKP8bV1s-26" value="5" style="text;html=1;align=center;verticalAlign=middle;resizable=0;points=[];autosize=1;strokeColor=none;fillColor=none;" parent="yPCI4gry3sAGQKP8bV1s-1" vertex="1">
          <mxGeometry x="1655" y="280" width="30" height="30" as="geometry" />
        </mxCell>
        <mxCell id="yPCI4gry3sAGQKP8bV1s-27" value="12" style="ellipse;whiteSpace=wrap;html=1;aspect=fixed;" parent="yPCI4gry3sAGQKP8bV1s-1" vertex="1">
          <mxGeometry x="2100" y="240" width="80" height="80" as="geometry" />
        </mxCell>
        <mxCell id="yPCI4gry3sAGQKP8bV1s-28" value="" style="endArrow=classic;html=1;rounded=0;entryX=0;entryY=0.5;entryDx=0;entryDy=0;strokeWidth=2;" parent="yPCI4gry3sAGQKP8bV1s-1" target="yPCI4gry3sAGQKP8bV1s-27" edge="1">
          <mxGeometry width="50" height="50" relative="1" as="geometry">
            <mxPoint x="1860" y="280" as="sourcePoint" />
            <mxPoint x="1910" y="230" as="targetPoint" />
          </mxGeometry>
        </mxCell>
        <mxCell id="yPCI4gry3sAGQKP8bV1s-29" value="Correção dos diagramas UML" style="text;html=1;align=center;verticalAlign=middle;resizable=0;points=[];autosize=1;strokeColor=none;fillColor=none;" parent="yPCI4gry3sAGQKP8bV1s-1" vertex="1">
          <mxGeometry x="1890" y="250" width="180" height="30" as="geometry" />
        </mxCell>
        <mxCell id="yPCI4gry3sAGQKP8bV1s-30" value="5" style="text;html=1;align=center;verticalAlign=middle;resizable=0;points=[];autosize=1;strokeColor=none;fillColor=none;" parent="yPCI4gry3sAGQKP8bV1s-1" vertex="1">
          <mxGeometry x="1965" y="280" width="30" height="30" as="geometry" />
        </mxCell>
        <mxCell id="yPCI4gry3sAGQKP8bV1s-31" value="13" style="ellipse;whiteSpace=wrap;html=1;aspect=fixed;" parent="yPCI4gry3sAGQKP8bV1s-1" vertex="1">
          <mxGeometry x="2400" y="240" width="80" height="80" as="geometry" />
        </mxCell>
        <mxCell id="yPCI4gry3sAGQKP8bV1s-32" value="" style="endArrow=classic;html=1;rounded=0;entryX=0;entryY=0.5;entryDx=0;entryDy=0;exitX=1;exitY=0.5;exitDx=0;exitDy=0;strokeWidth=2;" parent="yPCI4gry3sAGQKP8bV1s-1" source="yPCI4gry3sAGQKP8bV1s-27" target="yPCI4gry3sAGQKP8bV1s-31" edge="1">
          <mxGeometry width="50" height="50" relative="1" as="geometry">
            <mxPoint x="2150" y="70" as="sourcePoint" />
            <mxPoint x="2210" y="20" as="targetPoint" />
            <Array as="points" />
          </mxGeometry>
        </mxCell>
        <mxCell id="yPCI4gry3sAGQKP8bV1s-33" value="Implementação das classes" style="text;html=1;align=center;verticalAlign=middle;resizable=0;points=[];autosize=1;strokeColor=none;fillColor=none;" parent="yPCI4gry3sAGQKP8bV1s-1" vertex="1">
          <mxGeometry x="2210" y="250" width="170" height="30" as="geometry" />
        </mxCell>
        <mxCell id="yPCI4gry3sAGQKP8bV1s-34" value="10" style="text;html=1;align=center;verticalAlign=middle;resizable=0;points=[];autosize=1;strokeColor=none;fillColor=none;" parent="yPCI4gry3sAGQKP8bV1s-1" vertex="1">
          <mxGeometry x="2275" y="280" width="40" height="30" as="geometry" />
        </mxCell>
        <mxCell id="yPCI4gry3sAGQKP8bV1s-35" value="14" style="ellipse;whiteSpace=wrap;html=1;aspect=fixed;" parent="yPCI4gry3sAGQKP8bV1s-1" vertex="1">
          <mxGeometry x="2710" y="-10" width="80" height="80" as="geometry" />
        </mxCell>
        <mxCell id="yPCI4gry3sAGQKP8bV1s-36" value="" style="endArrow=classic;html=1;rounded=0;entryX=0;entryY=0.5;entryDx=0;entryDy=0;exitX=0.5;exitY=0;exitDx=0;exitDy=0;" parent="yPCI4gry3sAGQKP8bV1s-1" source="yPCI4gry3sAGQKP8bV1s-31" target="yPCI4gry3sAGQKP8bV1s-35" edge="1">
          <mxGeometry width="50" height="50" relative="1" as="geometry">
            <mxPoint x="2140" y="240" as="sourcePoint" />
            <mxPoint x="2190" y="190" as="targetPoint" />
            <Array as="points">
              <mxPoint x="2440" y="30" />
            </Array>
          </mxGeometry>
        </mxCell>
        <mxCell id="yPCI4gry3sAGQKP8bV1s-37" value="Formulação de testes" style="text;html=1;align=center;verticalAlign=middle;resizable=0;points=[];autosize=1;strokeColor=none;fillColor=none;" parent="yPCI4gry3sAGQKP8bV1s-1" vertex="1">
          <mxGeometry x="2520" width="140" height="30" as="geometry" />
        </mxCell>
        <mxCell id="yPCI4gry3sAGQKP8bV1s-38" value="5" style="text;html=1;align=center;verticalAlign=middle;resizable=0;points=[];autosize=1;strokeColor=none;fillColor=none;" parent="yPCI4gry3sAGQKP8bV1s-1" vertex="1">
          <mxGeometry x="2575" y="30" width="30" height="30" as="geometry" />
        </mxCell>
        <mxCell id="yPCI4gry3sAGQKP8bV1s-39" style="edgeStyle=orthogonalEdgeStyle;rounded=0;orthogonalLoop=1;jettySize=auto;html=1;entryX=0;entryY=0.5;entryDx=0;entryDy=0;strokeWidth=2;" parent="yPCI4gry3sAGQKP8bV1s-1" source="yPCI4gry3sAGQKP8bV1s-40" target="yPCI4gry3sAGQKP8bV1s-44" edge="1">
          <mxGeometry relative="1" as="geometry" />
        </mxCell>
        <mxCell id="yPCI4gry3sAGQKP8bV1s-40" value="14" style="ellipse;whiteSpace=wrap;html=1;aspect=fixed;" parent="yPCI4gry3sAGQKP8bV1s-1" vertex="1">
          <mxGeometry x="2710" y="240" width="80" height="80" as="geometry" />
        </mxCell>
        <mxCell id="yPCI4gry3sAGQKP8bV1s-41" value="" style="endArrow=classic;html=1;rounded=0;entryX=0;entryY=0.5;entryDx=0;entryDy=0;strokeWidth=2;" parent="yPCI4gry3sAGQKP8bV1s-1" target="yPCI4gry3sAGQKP8bV1s-40" edge="1">
          <mxGeometry width="50" height="50" relative="1" as="geometry">
            <mxPoint x="2480" y="280" as="sourcePoint" />
            <mxPoint x="2530" y="230" as="targetPoint" />
          </mxGeometry>
        </mxCell>
        <mxCell id="yPCI4gry3sAGQKP8bV1s-42" value="Integração do software" style="text;html=1;align=center;verticalAlign=middle;resizable=0;points=[];autosize=1;strokeColor=none;fillColor=none;" parent="yPCI4gry3sAGQKP8bV1s-1" vertex="1">
          <mxGeometry x="2525" y="250" width="150" height="30" as="geometry" />
        </mxCell>
        <mxCell id="yPCI4gry3sAGQKP8bV1s-43" value="5" style="text;html=1;align=center;verticalAlign=middle;resizable=0;points=[];autosize=1;strokeColor=none;fillColor=none;" parent="yPCI4gry3sAGQKP8bV1s-1" vertex="1">
          <mxGeometry x="2585" y="280" width="30" height="30" as="geometry" />
        </mxCell>
        <mxCell id="yPCI4gry3sAGQKP8bV1s-44" value="15" style="ellipse;whiteSpace=wrap;html=1;aspect=fixed;" parent="yPCI4gry3sAGQKP8bV1s-1" vertex="1">
          <mxGeometry x="3010" y="240" width="80" height="80" as="geometry" />
        </mxCell>
        <mxCell id="yPCI4gry3sAGQKP8bV1s-45" value="Correção final" style="text;html=1;align=center;verticalAlign=middle;resizable=0;points=[];autosize=1;strokeColor=none;fillColor=none;" parent="yPCI4gry3sAGQKP8bV1s-1" vertex="1">
          <mxGeometry x="2850" y="250" width="100" height="30" as="geometry" />
        </mxCell>
        <mxCell id="yPCI4gry3sAGQKP8bV1s-46" value="5" style="text;html=1;align=center;verticalAlign=middle;resizable=0;points=[];autosize=1;strokeColor=none;fillColor=none;" parent="yPCI4gry3sAGQKP8bV1s-1" vertex="1">
          <mxGeometry x="2885" y="280" width="30" height="30" as="geometry" />
        </mxCell>
        <mxCell id="yPCI4gry3sAGQKP8bV1s-47" value="" style="endArrow=classic;html=1;rounded=0;entryX=0.5;entryY=0;entryDx=0;entryDy=0;dashed=1;exitX=0.5;exitY=1;exitDx=0;exitDy=0;" parent="yPCI4gry3sAGQKP8bV1s-1" source="yPCI4gry3sAGQKP8bV1s-35" target="yPCI4gry3sAGQKP8bV1s-40" edge="1">
          <mxGeometry width="50" height="50" relative="1" as="geometry">
            <mxPoint x="2480" y="70" as="sourcePoint" />
            <mxPoint x="2530" y="20" as="targetPoint" />
            <Array as="points">
              <mxPoint x="2750" y="70" />
            </Array>
          </mxGeometry>
        </mxCell>
        <mxCell id="yPCI4gry3sAGQKP8bV1s-48" value="0/0&lt;br&gt;0" style="text;html=1;align=center;verticalAlign=middle;whiteSpace=wrap;rounded=0;" parent="yPCI4gry3sAGQKP8bV1s-1" vertex="1">
          <mxGeometry x="30" y="200" width="60" height="30" as="geometry" />
        </mxCell>
        <mxCell id="yPCI4gry3sAGQKP8bV1s-49" value="1/1&lt;br&gt;0" style="text;html=1;align=center;verticalAlign=middle;resizable=0;points=[];autosize=1;strokeColor=none;fillColor=none;" parent="yPCI4gry3sAGQKP8bV1s-1" vertex="1">
          <mxGeometry x="320" y="195" width="40" height="40" as="geometry" />
        </mxCell>
        <mxCell id="yPCI4gry3sAGQKP8bV1s-50" value="11/11&lt;br&gt;0" style="text;html=1;align=center;verticalAlign=middle;resizable=0;points=[];autosize=1;strokeColor=none;fillColor=none;" parent="yPCI4gry3sAGQKP8bV1s-1" vertex="1">
          <mxGeometry x="575" y="190" width="50" height="40" as="geometry" />
        </mxCell>
        <mxCell id="yPCI4gry3sAGQKP8bV1s-51" value="19/19&lt;div&gt;0&lt;/div&gt;" style="text;html=1;align=center;verticalAlign=middle;resizable=0;points=[];autosize=1;strokeColor=none;fillColor=none;" parent="yPCI4gry3sAGQKP8bV1s-1" vertex="1">
          <mxGeometry x="895" y="190" width="50" height="40" as="geometry" />
        </mxCell>
        <mxCell id="yPCI4gry3sAGQKP8bV1s-52" value="21/21&lt;br&gt;0" style="text;html=1;align=center;verticalAlign=middle;resizable=0;points=[];autosize=1;strokeColor=none;fillColor=none;" parent="yPCI4gry3sAGQKP8bV1s-1" vertex="1">
          <mxGeometry x="1215" y="190" width="50" height="40" as="geometry" />
        </mxCell>
        <mxCell id="yPCI4gry3sAGQKP8bV1s-53" value="26/26&lt;br&gt;0" style="text;html=1;align=center;verticalAlign=middle;resizable=0;points=[];autosize=1;strokeColor=none;fillColor=none;" parent="yPCI4gry3sAGQKP8bV1s-1" vertex="1">
          <mxGeometry x="1490" y="195" width="50" height="40" as="geometry" />
        </mxCell>
        <mxCell id="yPCI4gry3sAGQKP8bV1s-54" value="31/31&lt;br&gt;0" style="text;html=1;align=center;verticalAlign=middle;resizable=0;points=[];autosize=1;strokeColor=none;fillColor=none;" parent="yPCI4gry3sAGQKP8bV1s-1" vertex="1">
          <mxGeometry x="1795" y="190" width="50" height="40" as="geometry" />
        </mxCell>
        <mxCell id="yPCI4gry3sAGQKP8bV1s-55" value="51/51&lt;br&gt;0" style="text;html=1;align=center;verticalAlign=middle;resizable=0;points=[];autosize=1;strokeColor=none;fillColor=none;" parent="yPCI4gry3sAGQKP8bV1s-1" vertex="1">
          <mxGeometry x="2725" y="-60" width="50" height="40" as="geometry" />
        </mxCell>
        <mxCell id="yPCI4gry3sAGQKP8bV1s-56" value="46/46&lt;br&gt;0" style="text;html=1;align=center;verticalAlign=middle;resizable=0;points=[];autosize=1;strokeColor=none;fillColor=none;" parent="yPCI4gry3sAGQKP8bV1s-1" vertex="1">
          <mxGeometry x="2415" y="325" width="50" height="40" as="geometry" />
        </mxCell>
        <mxCell id="yPCI4gry3sAGQKP8bV1s-57" value="56/56&lt;br&gt;0" style="text;html=1;align=center;verticalAlign=middle;resizable=0;points=[];autosize=1;strokeColor=none;fillColor=none;" parent="yPCI4gry3sAGQKP8bV1s-1" vertex="1">
          <mxGeometry x="3025" y="325" width="50" height="40" as="geometry" />
        </mxCell>
        <mxCell id="yPCI4gry3sAGQKP8bV1s-58" value="36/36&lt;br&gt;0" style="text;html=1;align=center;verticalAlign=middle;resizable=0;points=[];autosize=1;strokeColor=none;fillColor=none;" parent="yPCI4gry3sAGQKP8bV1s-1" vertex="1">
          <mxGeometry x="2115" y="195" width="50" height="40" as="geometry" />
        </mxCell>
        <mxCell id="yPCI4gry3sAGQKP8bV1s-59" value="51/51&lt;br&gt;0" style="text;html=1;align=center;verticalAlign=middle;resizable=0;points=[];autosize=1;strokeColor=none;fillColor=none;" parent="yPCI4gry3sAGQKP8bV1s-1" vertex="1">
          <mxGeometry x="2725" y="325" width="50" height="40" as="geometry" />
        </mxCell>
      </root>
    </mxGraphModel>
  </diagram>
  <diagram name="SEMANA 07/10" id="8oQb9_E7casS2BTa9kLh">
    <mxGraphModel grid="1" page="1" gridSize="10" guides="1" tooltips="1" connect="1" arrows="1" fold="1" pageScale="1" pageWidth="850" pageHeight="1100" math="0" shadow="0">
      <root>
        <mxCell id="TlJtCbDYD5GSUOG6KU07-0" />
        <mxCell id="TlJtCbDYD5GSUOG6KU07-1" parent="TlJtCbDYD5GSUOG6KU07-0" />
        <mxCell id="TlJtCbDYD5GSUOG6KU07-2" value="1" style="ellipse;whiteSpace=wrap;html=1;aspect=fixed;" parent="TlJtCbDYD5GSUOG6KU07-1" vertex="1">
          <mxGeometry x="20" y="240" width="80" height="80" as="geometry" />
        </mxCell>
        <mxCell id="TlJtCbDYD5GSUOG6KU07-3" value="2" style="ellipse;whiteSpace=wrap;html=1;aspect=fixed;" parent="TlJtCbDYD5GSUOG6KU07-1" vertex="1">
          <mxGeometry x="300" y="240" width="80" height="80" as="geometry" />
        </mxCell>
        <mxCell id="TlJtCbDYD5GSUOG6KU07-4" value="" style="endArrow=classic;html=1;rounded=0;entryX=0;entryY=0.5;entryDx=0;entryDy=0;strokeWidth=2;" parent="TlJtCbDYD5GSUOG6KU07-1" target="TlJtCbDYD5GSUOG6KU07-3" edge="1">
          <mxGeometry width="50" height="50" relative="1" as="geometry">
            <mxPoint x="100" y="280" as="sourcePoint" />
            <mxPoint x="150" y="230" as="targetPoint" />
          </mxGeometry>
        </mxCell>
        <mxCell id="TlJtCbDYD5GSUOG6KU07-5" value="Reunião com o cliente" style="text;html=1;align=center;verticalAlign=middle;resizable=0;points=[];autosize=1;strokeColor=none;fillColor=none;" parent="TlJtCbDYD5GSUOG6KU07-1" vertex="1">
          <mxGeometry x="130" y="250" width="140" height="30" as="geometry" />
        </mxCell>
        <mxCell id="TlJtCbDYD5GSUOG6KU07-6" value="1" style="text;html=1;align=center;verticalAlign=middle;resizable=0;points=[];autosize=1;strokeColor=none;fillColor=none;" parent="TlJtCbDYD5GSUOG6KU07-1" vertex="1">
          <mxGeometry x="185" y="280" width="30" height="30" as="geometry" />
        </mxCell>
        <mxCell id="TlJtCbDYD5GSUOG6KU07-7" value="3" style="ellipse;whiteSpace=wrap;html=1;aspect=fixed;" parent="TlJtCbDYD5GSUOG6KU07-1" vertex="1">
          <mxGeometry x="560" y="240" width="80" height="80" as="geometry" />
        </mxCell>
        <mxCell id="TlJtCbDYD5GSUOG6KU07-8" value="" style="endArrow=classic;html=1;rounded=0;entryX=0;entryY=0.5;entryDx=0;entryDy=0;strokeWidth=2;" parent="TlJtCbDYD5GSUOG6KU07-1" target="TlJtCbDYD5GSUOG6KU07-7" edge="1">
          <mxGeometry width="50" height="50" relative="1" as="geometry">
            <mxPoint x="380" y="280" as="sourcePoint" />
            <mxPoint x="430" y="230" as="targetPoint" />
          </mxGeometry>
        </mxCell>
        <mxCell id="TlJtCbDYD5GSUOG6KU07-9" value="Escrita dos requisitos" style="text;html=1;align=center;verticalAlign=middle;resizable=0;points=[];autosize=1;strokeColor=none;fillColor=none;" parent="TlJtCbDYD5GSUOG6KU07-1" vertex="1">
          <mxGeometry x="400" y="250" width="140" height="30" as="geometry" />
        </mxCell>
        <mxCell id="TlJtCbDYD5GSUOG6KU07-10" value="10" style="text;html=1;align=center;verticalAlign=middle;resizable=0;points=[];autosize=1;strokeColor=none;fillColor=none;" parent="TlJtCbDYD5GSUOG6KU07-1" vertex="1">
          <mxGeometry x="450" y="280" width="40" height="30" as="geometry" />
        </mxCell>
        <mxCell id="TlJtCbDYD5GSUOG6KU07-11" value="5" style="ellipse;whiteSpace=wrap;html=1;aspect=fixed;" parent="TlJtCbDYD5GSUOG6KU07-1" vertex="1">
          <mxGeometry x="880" y="240" width="80" height="80" as="geometry" />
        </mxCell>
        <mxCell id="TlJtCbDYD5GSUOG6KU07-12" value="" style="endArrow=classic;html=1;rounded=0;entryX=0;entryY=0.5;entryDx=0;entryDy=0;strokeWidth=2;" parent="TlJtCbDYD5GSUOG6KU07-1" target="TlJtCbDYD5GSUOG6KU07-11" edge="1">
          <mxGeometry width="50" height="50" relative="1" as="geometry">
            <mxPoint x="640" y="280" as="sourcePoint" />
            <mxPoint x="690" y="230" as="targetPoint" />
          </mxGeometry>
        </mxCell>
        <mxCell id="TlJtCbDYD5GSUOG6KU07-13" value="Revisão dos requisitos" style="text;html=1;align=center;verticalAlign=middle;resizable=0;points=[];autosize=1;strokeColor=none;fillColor=none;" parent="TlJtCbDYD5GSUOG6KU07-1" vertex="1">
          <mxGeometry x="690" y="250" width="140" height="30" as="geometry" />
        </mxCell>
        <mxCell id="TlJtCbDYD5GSUOG6KU07-14" value="8" style="text;html=1;align=center;verticalAlign=middle;resizable=0;points=[];autosize=1;strokeColor=none;fillColor=none;" parent="TlJtCbDYD5GSUOG6KU07-1" vertex="1">
          <mxGeometry x="745" y="280" width="30" height="30" as="geometry" />
        </mxCell>
        <mxCell id="TlJtCbDYD5GSUOG6KU07-15" value="9" style="ellipse;whiteSpace=wrap;html=1;aspect=fixed;" parent="TlJtCbDYD5GSUOG6KU07-1" vertex="1">
          <mxGeometry x="1200" y="240" width="80" height="80" as="geometry" />
        </mxCell>
        <mxCell id="TlJtCbDYD5GSUOG6KU07-16" value="" style="endArrow=classic;html=1;rounded=0;entryX=0;entryY=0.5;entryDx=0;entryDy=0;strokeWidth=2;" parent="TlJtCbDYD5GSUOG6KU07-1" target="TlJtCbDYD5GSUOG6KU07-15" edge="1">
          <mxGeometry width="50" height="50" relative="1" as="geometry">
            <mxPoint x="960" y="280" as="sourcePoint" />
            <mxPoint x="1010" y="230" as="targetPoint" />
          </mxGeometry>
        </mxCell>
        <mxCell id="TlJtCbDYD5GSUOG6KU07-17" value="Correção dos requisitos" style="text;html=1;align=center;verticalAlign=middle;resizable=0;points=[];autosize=1;strokeColor=none;fillColor=none;" parent="TlJtCbDYD5GSUOG6KU07-1" vertex="1">
          <mxGeometry x="1005" y="250" width="150" height="30" as="geometry" />
        </mxCell>
        <mxCell id="TlJtCbDYD5GSUOG6KU07-18" value="2" style="text;html=1;align=center;verticalAlign=middle;resizable=0;points=[];autosize=1;strokeColor=none;fillColor=none;" parent="TlJtCbDYD5GSUOG6KU07-1" vertex="1">
          <mxGeometry x="1065" y="280" width="30" height="30" as="geometry" />
        </mxCell>
        <mxCell id="TlJtCbDYD5GSUOG6KU07-19" value="10" style="ellipse;whiteSpace=wrap;html=1;aspect=fixed;" parent="TlJtCbDYD5GSUOG6KU07-1" vertex="1">
          <mxGeometry x="1475" y="240" width="80" height="80" as="geometry" />
        </mxCell>
        <mxCell id="TlJtCbDYD5GSUOG6KU07-20" value="" style="endArrow=classic;html=1;rounded=0;entryX=0;entryY=0.5;entryDx=0;entryDy=0;strokeWidth=2;" parent="TlJtCbDYD5GSUOG6KU07-1" target="TlJtCbDYD5GSUOG6KU07-19" edge="1">
          <mxGeometry width="50" height="50" relative="1" as="geometry">
            <mxPoint x="1280" y="280" as="sourcePoint" />
            <mxPoint x="1330" y="230" as="targetPoint" />
          </mxGeometry>
        </mxCell>
        <mxCell id="TlJtCbDYD5GSUOG6KU07-21" value="Escrita dos diagramas UML" style="text;html=1;align=center;verticalAlign=middle;resizable=0;points=[];autosize=1;strokeColor=none;fillColor=none;" parent="TlJtCbDYD5GSUOG6KU07-1" vertex="1">
          <mxGeometry x="1300" y="250" width="170" height="30" as="geometry" />
        </mxCell>
        <mxCell id="TlJtCbDYD5GSUOG6KU07-22" value="5" style="text;html=1;align=center;verticalAlign=middle;resizable=0;points=[];autosize=1;strokeColor=none;fillColor=none;" parent="TlJtCbDYD5GSUOG6KU07-1" vertex="1">
          <mxGeometry x="1370" y="280" width="30" height="30" as="geometry" />
        </mxCell>
        <mxCell id="TlJtCbDYD5GSUOG6KU07-23" value="11" style="ellipse;whiteSpace=wrap;html=1;aspect=fixed;" parent="TlJtCbDYD5GSUOG6KU07-1" vertex="1">
          <mxGeometry x="1780" y="240" width="80" height="80" as="geometry" />
        </mxCell>
        <mxCell id="TlJtCbDYD5GSUOG6KU07-24" value="" style="endArrow=classic;html=1;rounded=0;entryX=0;entryY=0.5;entryDx=0;entryDy=0;strokeWidth=2;exitX=1;exitY=0.5;exitDx=0;exitDy=0;" parent="TlJtCbDYD5GSUOG6KU07-1" source="TlJtCbDYD5GSUOG6KU07-19" target="TlJtCbDYD5GSUOG6KU07-23" edge="1">
          <mxGeometry width="50" height="50" relative="1" as="geometry">
            <mxPoint x="1570" y="310" as="sourcePoint" />
            <mxPoint x="1590" y="230" as="targetPoint" />
          </mxGeometry>
        </mxCell>
        <mxCell id="TlJtCbDYD5GSUOG6KU07-25" value="Revisão dos diagramas UML" style="text;html=1;align=center;verticalAlign=middle;resizable=0;points=[];autosize=1;strokeColor=none;fillColor=none;" parent="TlJtCbDYD5GSUOG6KU07-1" vertex="1">
          <mxGeometry x="1580" y="250" width="180" height="30" as="geometry" />
        </mxCell>
        <mxCell id="TlJtCbDYD5GSUOG6KU07-26" value="5" style="text;html=1;align=center;verticalAlign=middle;resizable=0;points=[];autosize=1;strokeColor=none;fillColor=none;" parent="TlJtCbDYD5GSUOG6KU07-1" vertex="1">
          <mxGeometry x="1655" y="280" width="30" height="30" as="geometry" />
        </mxCell>
        <mxCell id="TlJtCbDYD5GSUOG6KU07-27" value="12" style="ellipse;whiteSpace=wrap;html=1;aspect=fixed;" parent="TlJtCbDYD5GSUOG6KU07-1" vertex="1">
          <mxGeometry x="2100" y="240" width="80" height="80" as="geometry" />
        </mxCell>
        <mxCell id="TlJtCbDYD5GSUOG6KU07-28" value="" style="endArrow=classic;html=1;rounded=0;entryX=0;entryY=0.5;entryDx=0;entryDy=0;strokeWidth=2;" parent="TlJtCbDYD5GSUOG6KU07-1" target="TlJtCbDYD5GSUOG6KU07-27" edge="1">
          <mxGeometry width="50" height="50" relative="1" as="geometry">
            <mxPoint x="1860" y="280" as="sourcePoint" />
            <mxPoint x="1910" y="230" as="targetPoint" />
          </mxGeometry>
        </mxCell>
        <mxCell id="TlJtCbDYD5GSUOG6KU07-29" value="Correção dos diagramas UML" style="text;html=1;align=center;verticalAlign=middle;resizable=0;points=[];autosize=1;strokeColor=none;fillColor=none;" parent="TlJtCbDYD5GSUOG6KU07-1" vertex="1">
          <mxGeometry x="1890" y="250" width="180" height="30" as="geometry" />
        </mxCell>
        <mxCell id="TlJtCbDYD5GSUOG6KU07-30" value="5" style="text;html=1;align=center;verticalAlign=middle;resizable=0;points=[];autosize=1;strokeColor=none;fillColor=none;" parent="TlJtCbDYD5GSUOG6KU07-1" vertex="1">
          <mxGeometry x="1965" y="280" width="30" height="30" as="geometry" />
        </mxCell>
        <mxCell id="TlJtCbDYD5GSUOG6KU07-31" value="13" style="ellipse;whiteSpace=wrap;html=1;aspect=fixed;" parent="TlJtCbDYD5GSUOG6KU07-1" vertex="1">
          <mxGeometry x="2400" y="240" width="80" height="80" as="geometry" />
        </mxCell>
        <mxCell id="TlJtCbDYD5GSUOG6KU07-32" value="" style="endArrow=classic;html=1;rounded=0;entryX=0;entryY=0.5;entryDx=0;entryDy=0;exitX=1;exitY=0.5;exitDx=0;exitDy=0;strokeWidth=2;" parent="TlJtCbDYD5GSUOG6KU07-1" source="TlJtCbDYD5GSUOG6KU07-27" target="TlJtCbDYD5GSUOG6KU07-31" edge="1">
          <mxGeometry width="50" height="50" relative="1" as="geometry">
            <mxPoint x="2150" y="70" as="sourcePoint" />
            <mxPoint x="2210" y="20" as="targetPoint" />
            <Array as="points" />
          </mxGeometry>
        </mxCell>
        <mxCell id="TlJtCbDYD5GSUOG6KU07-33" value="Implementação das classes" style="text;html=1;align=center;verticalAlign=middle;resizable=0;points=[];autosize=1;strokeColor=none;fillColor=none;" parent="TlJtCbDYD5GSUOG6KU07-1" vertex="1">
          <mxGeometry x="2210" y="250" width="170" height="30" as="geometry" />
        </mxCell>
        <mxCell id="TlJtCbDYD5GSUOG6KU07-34" value="10" style="text;html=1;align=center;verticalAlign=middle;resizable=0;points=[];autosize=1;strokeColor=none;fillColor=none;" parent="TlJtCbDYD5GSUOG6KU07-1" vertex="1">
          <mxGeometry x="2275" y="280" width="40" height="30" as="geometry" />
        </mxCell>
        <mxCell id="TlJtCbDYD5GSUOG6KU07-35" value="14" style="ellipse;whiteSpace=wrap;html=1;aspect=fixed;" parent="TlJtCbDYD5GSUOG6KU07-1" vertex="1">
          <mxGeometry x="2710" y="-10" width="80" height="80" as="geometry" />
        </mxCell>
        <mxCell id="TlJtCbDYD5GSUOG6KU07-36" value="" style="endArrow=classic;html=1;rounded=0;entryX=0;entryY=0.5;entryDx=0;entryDy=0;exitX=0.5;exitY=0;exitDx=0;exitDy=0;" parent="TlJtCbDYD5GSUOG6KU07-1" source="TlJtCbDYD5GSUOG6KU07-31" target="TlJtCbDYD5GSUOG6KU07-35" edge="1">
          <mxGeometry width="50" height="50" relative="1" as="geometry">
            <mxPoint x="2140" y="240" as="sourcePoint" />
            <mxPoint x="2190" y="190" as="targetPoint" />
            <Array as="points">
              <mxPoint x="2440" y="30" />
            </Array>
          </mxGeometry>
        </mxCell>
        <mxCell id="TlJtCbDYD5GSUOG6KU07-37" value="Formulação de testes" style="text;html=1;align=center;verticalAlign=middle;resizable=0;points=[];autosize=1;strokeColor=none;fillColor=none;" parent="TlJtCbDYD5GSUOG6KU07-1" vertex="1">
          <mxGeometry x="2520" width="140" height="30" as="geometry" />
        </mxCell>
        <mxCell id="TlJtCbDYD5GSUOG6KU07-38" value="5" style="text;html=1;align=center;verticalAlign=middle;resizable=0;points=[];autosize=1;strokeColor=none;fillColor=none;" parent="TlJtCbDYD5GSUOG6KU07-1" vertex="1">
          <mxGeometry x="2575" y="30" width="30" height="30" as="geometry" />
        </mxCell>
        <mxCell id="TlJtCbDYD5GSUOG6KU07-39" style="edgeStyle=orthogonalEdgeStyle;rounded=0;orthogonalLoop=1;jettySize=auto;html=1;entryX=0;entryY=0.5;entryDx=0;entryDy=0;strokeWidth=2;" parent="TlJtCbDYD5GSUOG6KU07-1" source="TlJtCbDYD5GSUOG6KU07-40" target="TlJtCbDYD5GSUOG6KU07-44" edge="1">
          <mxGeometry relative="1" as="geometry" />
        </mxCell>
        <mxCell id="TlJtCbDYD5GSUOG6KU07-40" value="14" style="ellipse;whiteSpace=wrap;html=1;aspect=fixed;" parent="TlJtCbDYD5GSUOG6KU07-1" vertex="1">
          <mxGeometry x="2710" y="240" width="80" height="80" as="geometry" />
        </mxCell>
        <mxCell id="TlJtCbDYD5GSUOG6KU07-41" value="" style="endArrow=classic;html=1;rounded=0;entryX=0;entryY=0.5;entryDx=0;entryDy=0;strokeWidth=2;" parent="TlJtCbDYD5GSUOG6KU07-1" target="TlJtCbDYD5GSUOG6KU07-40" edge="1">
          <mxGeometry width="50" height="50" relative="1" as="geometry">
            <mxPoint x="2480" y="280" as="sourcePoint" />
            <mxPoint x="2530" y="230" as="targetPoint" />
          </mxGeometry>
        </mxCell>
        <mxCell id="TlJtCbDYD5GSUOG6KU07-42" value="Integração do software" style="text;html=1;align=center;verticalAlign=middle;resizable=0;points=[];autosize=1;strokeColor=none;fillColor=none;" parent="TlJtCbDYD5GSUOG6KU07-1" vertex="1">
          <mxGeometry x="2525" y="250" width="150" height="30" as="geometry" />
        </mxCell>
        <mxCell id="TlJtCbDYD5GSUOG6KU07-43" value="5" style="text;html=1;align=center;verticalAlign=middle;resizable=0;points=[];autosize=1;strokeColor=none;fillColor=none;" parent="TlJtCbDYD5GSUOG6KU07-1" vertex="1">
          <mxGeometry x="2585" y="280" width="30" height="30" as="geometry" />
        </mxCell>
        <mxCell id="TlJtCbDYD5GSUOG6KU07-44" value="15" style="ellipse;whiteSpace=wrap;html=1;aspect=fixed;" parent="TlJtCbDYD5GSUOG6KU07-1" vertex="1">
          <mxGeometry x="3010" y="240" width="80" height="80" as="geometry" />
        </mxCell>
        <mxCell id="TlJtCbDYD5GSUOG6KU07-45" value="Correção final" style="text;html=1;align=center;verticalAlign=middle;resizable=0;points=[];autosize=1;strokeColor=none;fillColor=none;" parent="TlJtCbDYD5GSUOG6KU07-1" vertex="1">
          <mxGeometry x="2850" y="250" width="100" height="30" as="geometry" />
        </mxCell>
        <mxCell id="TlJtCbDYD5GSUOG6KU07-46" value="5" style="text;html=1;align=center;verticalAlign=middle;resizable=0;points=[];autosize=1;strokeColor=none;fillColor=none;" parent="TlJtCbDYD5GSUOG6KU07-1" vertex="1">
          <mxGeometry x="2885" y="280" width="30" height="30" as="geometry" />
        </mxCell>
        <mxCell id="TlJtCbDYD5GSUOG6KU07-47" value="" style="endArrow=classic;html=1;rounded=0;entryX=0.5;entryY=0;entryDx=0;entryDy=0;dashed=1;exitX=0.5;exitY=1;exitDx=0;exitDy=0;" parent="TlJtCbDYD5GSUOG6KU07-1" source="TlJtCbDYD5GSUOG6KU07-35" target="TlJtCbDYD5GSUOG6KU07-40" edge="1">
          <mxGeometry width="50" height="50" relative="1" as="geometry">
            <mxPoint x="2480" y="70" as="sourcePoint" />
            <mxPoint x="2530" y="20" as="targetPoint" />
            <Array as="points">
              <mxPoint x="2750" y="70" />
            </Array>
          </mxGeometry>
        </mxCell>
        <mxCell id="TlJtCbDYD5GSUOG6KU07-48" value="0/0&lt;br&gt;0" style="text;html=1;align=center;verticalAlign=middle;whiteSpace=wrap;rounded=0;" parent="TlJtCbDYD5GSUOG6KU07-1" vertex="1">
          <mxGeometry x="30" y="200" width="60" height="30" as="geometry" />
        </mxCell>
        <mxCell id="TlJtCbDYD5GSUOG6KU07-49" value="1/1&lt;br&gt;0" style="text;html=1;align=center;verticalAlign=middle;resizable=0;points=[];autosize=1;strokeColor=none;fillColor=none;" parent="TlJtCbDYD5GSUOG6KU07-1" vertex="1">
          <mxGeometry x="320" y="195" width="40" height="40" as="geometry" />
        </mxCell>
        <mxCell id="TlJtCbDYD5GSUOG6KU07-50" value="11/11&lt;br&gt;0" style="text;html=1;align=center;verticalAlign=middle;resizable=0;points=[];autosize=1;strokeColor=none;fillColor=none;" parent="TlJtCbDYD5GSUOG6KU07-1" vertex="1">
          <mxGeometry x="575" y="190" width="50" height="40" as="geometry" />
        </mxCell>
        <mxCell id="TlJtCbDYD5GSUOG6KU07-51" value="19/19&lt;div&gt;0&lt;/div&gt;" style="text;html=1;align=center;verticalAlign=middle;resizable=0;points=[];autosize=1;strokeColor=none;fillColor=none;" parent="TlJtCbDYD5GSUOG6KU07-1" vertex="1">
          <mxGeometry x="895" y="190" width="50" height="40" as="geometry" />
        </mxCell>
        <mxCell id="TlJtCbDYD5GSUOG6KU07-52" value="21/21&lt;br&gt;0" style="text;html=1;align=center;verticalAlign=middle;resizable=0;points=[];autosize=1;strokeColor=none;fillColor=none;" parent="TlJtCbDYD5GSUOG6KU07-1" vertex="1">
          <mxGeometry x="1215" y="190" width="50" height="40" as="geometry" />
        </mxCell>
        <mxCell id="TlJtCbDYD5GSUOG6KU07-53" value="26/26&lt;br&gt;0" style="text;html=1;align=center;verticalAlign=middle;resizable=0;points=[];autosize=1;strokeColor=none;fillColor=none;" parent="TlJtCbDYD5GSUOG6KU07-1" vertex="1">
          <mxGeometry x="1490" y="195" width="50" height="40" as="geometry" />
        </mxCell>
        <mxCell id="TlJtCbDYD5GSUOG6KU07-54" value="31/31&lt;br&gt;0" style="text;html=1;align=center;verticalAlign=middle;resizable=0;points=[];autosize=1;strokeColor=none;fillColor=none;" parent="TlJtCbDYD5GSUOG6KU07-1" vertex="1">
          <mxGeometry x="1795" y="190" width="50" height="40" as="geometry" />
        </mxCell>
        <mxCell id="TlJtCbDYD5GSUOG6KU07-55" value="51/51&lt;br&gt;0" style="text;html=1;align=center;verticalAlign=middle;resizable=0;points=[];autosize=1;strokeColor=none;fillColor=none;" parent="TlJtCbDYD5GSUOG6KU07-1" vertex="1">
          <mxGeometry x="2725" y="-60" width="50" height="40" as="geometry" />
        </mxCell>
        <mxCell id="TlJtCbDYD5GSUOG6KU07-56" value="46/46&lt;br&gt;0" style="text;html=1;align=center;verticalAlign=middle;resizable=0;points=[];autosize=1;strokeColor=none;fillColor=none;" parent="TlJtCbDYD5GSUOG6KU07-1" vertex="1">
          <mxGeometry x="2415" y="325" width="50" height="40" as="geometry" />
        </mxCell>
        <mxCell id="TlJtCbDYD5GSUOG6KU07-57" value="56/56&lt;br&gt;0" style="text;html=1;align=center;verticalAlign=middle;resizable=0;points=[];autosize=1;strokeColor=none;fillColor=none;" parent="TlJtCbDYD5GSUOG6KU07-1" vertex="1">
          <mxGeometry x="3025" y="325" width="50" height="40" as="geometry" />
        </mxCell>
        <mxCell id="TlJtCbDYD5GSUOG6KU07-58" value="36/36&lt;br&gt;0" style="text;html=1;align=center;verticalAlign=middle;resizable=0;points=[];autosize=1;strokeColor=none;fillColor=none;" parent="TlJtCbDYD5GSUOG6KU07-1" vertex="1">
          <mxGeometry x="2115" y="195" width="50" height="40" as="geometry" />
        </mxCell>
        <mxCell id="TlJtCbDYD5GSUOG6KU07-59" value="51/51&lt;br&gt;0" style="text;html=1;align=center;verticalAlign=middle;resizable=0;points=[];autosize=1;strokeColor=none;fillColor=none;" parent="TlJtCbDYD5GSUOG6KU07-1" vertex="1">
          <mxGeometry x="2725" y="325" width="50" height="40" as="geometry" />
        </mxCell>
      </root>
    </mxGraphModel>
  </diagram>
  <diagram name="SEMANA 14/10" id="RgqNWORs9eY0w1Xkqrbi">
    <mxGraphModel grid="1" page="1" gridSize="10" guides="1" tooltips="1" connect="1" arrows="1" fold="1" pageScale="1" pageWidth="850" pageHeight="1100" math="0" shadow="0">
      <root>
        <mxCell id="22rsG9zzUfjaH9LlNHxB-0" />
        <mxCell id="22rsG9zzUfjaH9LlNHxB-1" parent="22rsG9zzUfjaH9LlNHxB-0" />
        <mxCell id="22rsG9zzUfjaH9LlNHxB-2" value="1" style="ellipse;whiteSpace=wrap;html=1;aspect=fixed;" parent="22rsG9zzUfjaH9LlNHxB-1" vertex="1">
          <mxGeometry x="20" y="240" width="80" height="80" as="geometry" />
        </mxCell>
        <mxCell id="22rsG9zzUfjaH9LlNHxB-3" value="2" style="ellipse;whiteSpace=wrap;html=1;aspect=fixed;" parent="22rsG9zzUfjaH9LlNHxB-1" vertex="1">
          <mxGeometry x="300" y="240" width="80" height="80" as="geometry" />
        </mxCell>
        <mxCell id="22rsG9zzUfjaH9LlNHxB-4" value="" style="endArrow=classic;html=1;rounded=0;entryX=0;entryY=0.5;entryDx=0;entryDy=0;strokeWidth=2;" parent="22rsG9zzUfjaH9LlNHxB-1" target="22rsG9zzUfjaH9LlNHxB-3" edge="1">
          <mxGeometry width="50" height="50" relative="1" as="geometry">
            <mxPoint x="100" y="280" as="sourcePoint" />
            <mxPoint x="150" y="230" as="targetPoint" />
          </mxGeometry>
        </mxCell>
        <mxCell id="22rsG9zzUfjaH9LlNHxB-5" value="Reunião com o cliente" style="text;html=1;align=center;verticalAlign=middle;resizable=0;points=[];autosize=1;strokeColor=none;fillColor=none;" parent="22rsG9zzUfjaH9LlNHxB-1" vertex="1">
          <mxGeometry x="130" y="250" width="140" height="30" as="geometry" />
        </mxCell>
        <mxCell id="22rsG9zzUfjaH9LlNHxB-6" value="1" style="text;html=1;align=center;verticalAlign=middle;resizable=0;points=[];autosize=1;strokeColor=none;fillColor=none;" parent="22rsG9zzUfjaH9LlNHxB-1" vertex="1">
          <mxGeometry x="185" y="280" width="30" height="30" as="geometry" />
        </mxCell>
        <mxCell id="22rsG9zzUfjaH9LlNHxB-7" value="3" style="ellipse;whiteSpace=wrap;html=1;aspect=fixed;" parent="22rsG9zzUfjaH9LlNHxB-1" vertex="1">
          <mxGeometry x="560" y="240" width="80" height="80" as="geometry" />
        </mxCell>
        <mxCell id="22rsG9zzUfjaH9LlNHxB-8" value="" style="endArrow=classic;html=1;rounded=0;entryX=0;entryY=0.5;entryDx=0;entryDy=0;strokeWidth=2;" parent="22rsG9zzUfjaH9LlNHxB-1" target="22rsG9zzUfjaH9LlNHxB-7" edge="1">
          <mxGeometry width="50" height="50" relative="1" as="geometry">
            <mxPoint x="380" y="280" as="sourcePoint" />
            <mxPoint x="430" y="230" as="targetPoint" />
          </mxGeometry>
        </mxCell>
        <mxCell id="22rsG9zzUfjaH9LlNHxB-9" value="Escrita dos requisitos" style="text;html=1;align=center;verticalAlign=middle;resizable=0;points=[];autosize=1;strokeColor=none;fillColor=none;" parent="22rsG9zzUfjaH9LlNHxB-1" vertex="1">
          <mxGeometry x="400" y="250" width="140" height="30" as="geometry" />
        </mxCell>
        <mxCell id="22rsG9zzUfjaH9LlNHxB-10" value="10" style="text;html=1;align=center;verticalAlign=middle;resizable=0;points=[];autosize=1;strokeColor=none;fillColor=none;" parent="22rsG9zzUfjaH9LlNHxB-1" vertex="1">
          <mxGeometry x="450" y="280" width="40" height="30" as="geometry" />
        </mxCell>
        <mxCell id="22rsG9zzUfjaH9LlNHxB-11" value="5" style="ellipse;whiteSpace=wrap;html=1;aspect=fixed;" parent="22rsG9zzUfjaH9LlNHxB-1" vertex="1">
          <mxGeometry x="880" y="240" width="80" height="80" as="geometry" />
        </mxCell>
        <mxCell id="22rsG9zzUfjaH9LlNHxB-12" value="" style="endArrow=classic;html=1;rounded=0;entryX=0;entryY=0.5;entryDx=0;entryDy=0;strokeWidth=2;" parent="22rsG9zzUfjaH9LlNHxB-1" target="22rsG9zzUfjaH9LlNHxB-11" edge="1">
          <mxGeometry width="50" height="50" relative="1" as="geometry">
            <mxPoint x="640" y="280" as="sourcePoint" />
            <mxPoint x="690" y="230" as="targetPoint" />
          </mxGeometry>
        </mxCell>
        <mxCell id="22rsG9zzUfjaH9LlNHxB-13" value="Revisão dos requisitos" style="text;html=1;align=center;verticalAlign=middle;resizable=0;points=[];autosize=1;strokeColor=none;fillColor=none;" parent="22rsG9zzUfjaH9LlNHxB-1" vertex="1">
          <mxGeometry x="690" y="250" width="140" height="30" as="geometry" />
        </mxCell>
        <mxCell id="22rsG9zzUfjaH9LlNHxB-14" value="8" style="text;html=1;align=center;verticalAlign=middle;resizable=0;points=[];autosize=1;strokeColor=none;fillColor=none;" parent="22rsG9zzUfjaH9LlNHxB-1" vertex="1">
          <mxGeometry x="745" y="280" width="30" height="30" as="geometry" />
        </mxCell>
        <mxCell id="22rsG9zzUfjaH9LlNHxB-15" value="9" style="ellipse;whiteSpace=wrap;html=1;aspect=fixed;" parent="22rsG9zzUfjaH9LlNHxB-1" vertex="1">
          <mxGeometry x="1200" y="240" width="80" height="80" as="geometry" />
        </mxCell>
        <mxCell id="22rsG9zzUfjaH9LlNHxB-16" value="" style="endArrow=classic;html=1;rounded=0;entryX=0;entryY=0.5;entryDx=0;entryDy=0;strokeWidth=2;" parent="22rsG9zzUfjaH9LlNHxB-1" target="22rsG9zzUfjaH9LlNHxB-15" edge="1">
          <mxGeometry width="50" height="50" relative="1" as="geometry">
            <mxPoint x="960" y="280" as="sourcePoint" />
            <mxPoint x="1010" y="230" as="targetPoint" />
          </mxGeometry>
        </mxCell>
        <mxCell id="22rsG9zzUfjaH9LlNHxB-17" value="Correção dos requisitos" style="text;html=1;align=center;verticalAlign=middle;resizable=0;points=[];autosize=1;strokeColor=none;fillColor=none;" parent="22rsG9zzUfjaH9LlNHxB-1" vertex="1">
          <mxGeometry x="1005" y="250" width="150" height="30" as="geometry" />
        </mxCell>
        <mxCell id="22rsG9zzUfjaH9LlNHxB-18" value="2" style="text;html=1;align=center;verticalAlign=middle;resizable=0;points=[];autosize=1;strokeColor=none;fillColor=none;" parent="22rsG9zzUfjaH9LlNHxB-1" vertex="1">
          <mxGeometry x="1065" y="280" width="30" height="30" as="geometry" />
        </mxCell>
        <mxCell id="22rsG9zzUfjaH9LlNHxB-19" value="10" style="ellipse;whiteSpace=wrap;html=1;aspect=fixed;" parent="22rsG9zzUfjaH9LlNHxB-1" vertex="1">
          <mxGeometry x="1475" y="240" width="80" height="80" as="geometry" />
        </mxCell>
        <mxCell id="22rsG9zzUfjaH9LlNHxB-20" value="" style="endArrow=classic;html=1;rounded=0;entryX=0;entryY=0.5;entryDx=0;entryDy=0;strokeWidth=2;" parent="22rsG9zzUfjaH9LlNHxB-1" target="22rsG9zzUfjaH9LlNHxB-19" edge="1">
          <mxGeometry width="50" height="50" relative="1" as="geometry">
            <mxPoint x="1280" y="280" as="sourcePoint" />
            <mxPoint x="1330" y="230" as="targetPoint" />
          </mxGeometry>
        </mxCell>
        <mxCell id="22rsG9zzUfjaH9LlNHxB-21" value="Escrita dos diagramas UML" style="text;html=1;align=center;verticalAlign=middle;resizable=0;points=[];autosize=1;strokeColor=none;fillColor=none;" parent="22rsG9zzUfjaH9LlNHxB-1" vertex="1">
          <mxGeometry x="1300" y="250" width="170" height="30" as="geometry" />
        </mxCell>
        <mxCell id="22rsG9zzUfjaH9LlNHxB-22" value="5" style="text;html=1;align=center;verticalAlign=middle;resizable=0;points=[];autosize=1;strokeColor=none;fillColor=none;" parent="22rsG9zzUfjaH9LlNHxB-1" vertex="1">
          <mxGeometry x="1370" y="280" width="30" height="30" as="geometry" />
        </mxCell>
        <mxCell id="22rsG9zzUfjaH9LlNHxB-23" value="11" style="ellipse;whiteSpace=wrap;html=1;aspect=fixed;" parent="22rsG9zzUfjaH9LlNHxB-1" vertex="1">
          <mxGeometry x="1780" y="240" width="80" height="80" as="geometry" />
        </mxCell>
        <mxCell id="22rsG9zzUfjaH9LlNHxB-24" value="" style="endArrow=classic;html=1;rounded=0;entryX=0;entryY=0.5;entryDx=0;entryDy=0;strokeWidth=2;exitX=1;exitY=0.5;exitDx=0;exitDy=0;" parent="22rsG9zzUfjaH9LlNHxB-1" source="22rsG9zzUfjaH9LlNHxB-19" target="22rsG9zzUfjaH9LlNHxB-23" edge="1">
          <mxGeometry width="50" height="50" relative="1" as="geometry">
            <mxPoint x="1570" y="310" as="sourcePoint" />
            <mxPoint x="1590" y="230" as="targetPoint" />
          </mxGeometry>
        </mxCell>
        <mxCell id="22rsG9zzUfjaH9LlNHxB-25" value="Revisão dos diagramas UML" style="text;html=1;align=center;verticalAlign=middle;resizable=0;points=[];autosize=1;strokeColor=none;fillColor=none;" parent="22rsG9zzUfjaH9LlNHxB-1" vertex="1">
          <mxGeometry x="1580" y="250" width="180" height="30" as="geometry" />
        </mxCell>
        <mxCell id="22rsG9zzUfjaH9LlNHxB-26" value="5" style="text;html=1;align=center;verticalAlign=middle;resizable=0;points=[];autosize=1;strokeColor=none;fillColor=none;" parent="22rsG9zzUfjaH9LlNHxB-1" vertex="1">
          <mxGeometry x="1655" y="280" width="30" height="30" as="geometry" />
        </mxCell>
        <mxCell id="22rsG9zzUfjaH9LlNHxB-27" value="12" style="ellipse;whiteSpace=wrap;html=1;aspect=fixed;" parent="22rsG9zzUfjaH9LlNHxB-1" vertex="1">
          <mxGeometry x="2100" y="240" width="80" height="80" as="geometry" />
        </mxCell>
        <mxCell id="22rsG9zzUfjaH9LlNHxB-28" value="" style="endArrow=classic;html=1;rounded=0;entryX=0;entryY=0.5;entryDx=0;entryDy=0;strokeWidth=2;" parent="22rsG9zzUfjaH9LlNHxB-1" target="22rsG9zzUfjaH9LlNHxB-27" edge="1">
          <mxGeometry width="50" height="50" relative="1" as="geometry">
            <mxPoint x="1860" y="280" as="sourcePoint" />
            <mxPoint x="1910" y="230" as="targetPoint" />
          </mxGeometry>
        </mxCell>
        <mxCell id="22rsG9zzUfjaH9LlNHxB-29" value="Correção dos diagramas UML" style="text;html=1;align=center;verticalAlign=middle;resizable=0;points=[];autosize=1;strokeColor=none;fillColor=none;" parent="22rsG9zzUfjaH9LlNHxB-1" vertex="1">
          <mxGeometry x="1890" y="250" width="180" height="30" as="geometry" />
        </mxCell>
        <mxCell id="22rsG9zzUfjaH9LlNHxB-30" value="5" style="text;html=1;align=center;verticalAlign=middle;resizable=0;points=[];autosize=1;strokeColor=none;fillColor=none;" parent="22rsG9zzUfjaH9LlNHxB-1" vertex="1">
          <mxGeometry x="1965" y="280" width="30" height="30" as="geometry" />
        </mxCell>
        <mxCell id="22rsG9zzUfjaH9LlNHxB-31" value="13" style="ellipse;whiteSpace=wrap;html=1;aspect=fixed;" parent="22rsG9zzUfjaH9LlNHxB-1" vertex="1">
          <mxGeometry x="2400" y="240" width="80" height="80" as="geometry" />
        </mxCell>
        <mxCell id="22rsG9zzUfjaH9LlNHxB-32" value="" style="endArrow=classic;html=1;rounded=0;entryX=0;entryY=0.5;entryDx=0;entryDy=0;exitX=1;exitY=0.5;exitDx=0;exitDy=0;strokeWidth=2;" parent="22rsG9zzUfjaH9LlNHxB-1" source="22rsG9zzUfjaH9LlNHxB-27" target="22rsG9zzUfjaH9LlNHxB-31" edge="1">
          <mxGeometry width="50" height="50" relative="1" as="geometry">
            <mxPoint x="2150" y="70" as="sourcePoint" />
            <mxPoint x="2210" y="20" as="targetPoint" />
            <Array as="points" />
          </mxGeometry>
        </mxCell>
        <mxCell id="22rsG9zzUfjaH9LlNHxB-33" value="Implementação das classes" style="text;html=1;align=center;verticalAlign=middle;resizable=0;points=[];autosize=1;strokeColor=none;fillColor=none;" parent="22rsG9zzUfjaH9LlNHxB-1" vertex="1">
          <mxGeometry x="2210" y="250" width="170" height="30" as="geometry" />
        </mxCell>
        <mxCell id="22rsG9zzUfjaH9LlNHxB-34" value="10" style="text;html=1;align=center;verticalAlign=middle;resizable=0;points=[];autosize=1;strokeColor=none;fillColor=none;" parent="22rsG9zzUfjaH9LlNHxB-1" vertex="1">
          <mxGeometry x="2275" y="280" width="40" height="30" as="geometry" />
        </mxCell>
        <mxCell id="22rsG9zzUfjaH9LlNHxB-35" value="14" style="ellipse;whiteSpace=wrap;html=1;aspect=fixed;" parent="22rsG9zzUfjaH9LlNHxB-1" vertex="1">
          <mxGeometry x="2710" y="-10" width="80" height="80" as="geometry" />
        </mxCell>
        <mxCell id="22rsG9zzUfjaH9LlNHxB-36" value="" style="endArrow=classic;html=1;rounded=0;entryX=0;entryY=0.5;entryDx=0;entryDy=0;exitX=0.5;exitY=0;exitDx=0;exitDy=0;" parent="22rsG9zzUfjaH9LlNHxB-1" source="22rsG9zzUfjaH9LlNHxB-31" target="22rsG9zzUfjaH9LlNHxB-35" edge="1">
          <mxGeometry width="50" height="50" relative="1" as="geometry">
            <mxPoint x="2140" y="240" as="sourcePoint" />
            <mxPoint x="2190" y="190" as="targetPoint" />
            <Array as="points">
              <mxPoint x="2440" y="30" />
            </Array>
          </mxGeometry>
        </mxCell>
        <mxCell id="22rsG9zzUfjaH9LlNHxB-37" value="Formulação de testes" style="text;html=1;align=center;verticalAlign=middle;resizable=0;points=[];autosize=1;strokeColor=none;fillColor=none;" parent="22rsG9zzUfjaH9LlNHxB-1" vertex="1">
          <mxGeometry x="2520" width="140" height="30" as="geometry" />
        </mxCell>
        <mxCell id="22rsG9zzUfjaH9LlNHxB-38" value="5" style="text;html=1;align=center;verticalAlign=middle;resizable=0;points=[];autosize=1;strokeColor=none;fillColor=none;" parent="22rsG9zzUfjaH9LlNHxB-1" vertex="1">
          <mxGeometry x="2575" y="30" width="30" height="30" as="geometry" />
        </mxCell>
        <mxCell id="22rsG9zzUfjaH9LlNHxB-39" style="edgeStyle=orthogonalEdgeStyle;rounded=0;orthogonalLoop=1;jettySize=auto;html=1;entryX=0;entryY=0.5;entryDx=0;entryDy=0;strokeWidth=2;" parent="22rsG9zzUfjaH9LlNHxB-1" source="22rsG9zzUfjaH9LlNHxB-40" target="22rsG9zzUfjaH9LlNHxB-44" edge="1">
          <mxGeometry relative="1" as="geometry" />
        </mxCell>
        <mxCell id="22rsG9zzUfjaH9LlNHxB-40" value="14" style="ellipse;whiteSpace=wrap;html=1;aspect=fixed;" parent="22rsG9zzUfjaH9LlNHxB-1" vertex="1">
          <mxGeometry x="2710" y="240" width="80" height="80" as="geometry" />
        </mxCell>
        <mxCell id="22rsG9zzUfjaH9LlNHxB-41" value="" style="endArrow=classic;html=1;rounded=0;entryX=0;entryY=0.5;entryDx=0;entryDy=0;strokeWidth=2;" parent="22rsG9zzUfjaH9LlNHxB-1" target="22rsG9zzUfjaH9LlNHxB-40" edge="1">
          <mxGeometry width="50" height="50" relative="1" as="geometry">
            <mxPoint x="2480" y="280" as="sourcePoint" />
            <mxPoint x="2530" y="230" as="targetPoint" />
          </mxGeometry>
        </mxCell>
        <mxCell id="22rsG9zzUfjaH9LlNHxB-42" value="Integração do software" style="text;html=1;align=center;verticalAlign=middle;resizable=0;points=[];autosize=1;strokeColor=none;fillColor=none;" parent="22rsG9zzUfjaH9LlNHxB-1" vertex="1">
          <mxGeometry x="2525" y="250" width="150" height="30" as="geometry" />
        </mxCell>
        <mxCell id="22rsG9zzUfjaH9LlNHxB-43" value="5" style="text;html=1;align=center;verticalAlign=middle;resizable=0;points=[];autosize=1;strokeColor=none;fillColor=none;" parent="22rsG9zzUfjaH9LlNHxB-1" vertex="1">
          <mxGeometry x="2585" y="280" width="30" height="30" as="geometry" />
        </mxCell>
        <mxCell id="22rsG9zzUfjaH9LlNHxB-44" value="15" style="ellipse;whiteSpace=wrap;html=1;aspect=fixed;" parent="22rsG9zzUfjaH9LlNHxB-1" vertex="1">
          <mxGeometry x="3010" y="240" width="80" height="80" as="geometry" />
        </mxCell>
        <mxCell id="22rsG9zzUfjaH9LlNHxB-45" value="Correção final" style="text;html=1;align=center;verticalAlign=middle;resizable=0;points=[];autosize=1;strokeColor=none;fillColor=none;" parent="22rsG9zzUfjaH9LlNHxB-1" vertex="1">
          <mxGeometry x="2850" y="250" width="100" height="30" as="geometry" />
        </mxCell>
        <mxCell id="22rsG9zzUfjaH9LlNHxB-46" value="5" style="text;html=1;align=center;verticalAlign=middle;resizable=0;points=[];autosize=1;strokeColor=none;fillColor=none;" parent="22rsG9zzUfjaH9LlNHxB-1" vertex="1">
          <mxGeometry x="2885" y="280" width="30" height="30" as="geometry" />
        </mxCell>
        <mxCell id="22rsG9zzUfjaH9LlNHxB-47" value="" style="endArrow=classic;html=1;rounded=0;entryX=0.5;entryY=0;entryDx=0;entryDy=0;dashed=1;exitX=0.5;exitY=1;exitDx=0;exitDy=0;" parent="22rsG9zzUfjaH9LlNHxB-1" source="22rsG9zzUfjaH9LlNHxB-35" target="22rsG9zzUfjaH9LlNHxB-40" edge="1">
          <mxGeometry width="50" height="50" relative="1" as="geometry">
            <mxPoint x="2480" y="70" as="sourcePoint" />
            <mxPoint x="2530" y="20" as="targetPoint" />
            <Array as="points">
              <mxPoint x="2750" y="70" />
            </Array>
          </mxGeometry>
        </mxCell>
        <mxCell id="22rsG9zzUfjaH9LlNHxB-48" value="0/0&lt;br&gt;0" style="text;html=1;align=center;verticalAlign=middle;whiteSpace=wrap;rounded=0;" parent="22rsG9zzUfjaH9LlNHxB-1" vertex="1">
          <mxGeometry x="30" y="200" width="60" height="30" as="geometry" />
        </mxCell>
        <mxCell id="22rsG9zzUfjaH9LlNHxB-49" value="1/1&lt;br&gt;0" style="text;html=1;align=center;verticalAlign=middle;resizable=0;points=[];autosize=1;strokeColor=none;fillColor=none;" parent="22rsG9zzUfjaH9LlNHxB-1" vertex="1">
          <mxGeometry x="320" y="195" width="40" height="40" as="geometry" />
        </mxCell>
        <mxCell id="22rsG9zzUfjaH9LlNHxB-50" value="11/11&lt;br&gt;0" style="text;html=1;align=center;verticalAlign=middle;resizable=0;points=[];autosize=1;strokeColor=none;fillColor=none;" parent="22rsG9zzUfjaH9LlNHxB-1" vertex="1">
          <mxGeometry x="575" y="190" width="50" height="40" as="geometry" />
        </mxCell>
        <mxCell id="22rsG9zzUfjaH9LlNHxB-51" value="19/19&lt;div&gt;0&lt;/div&gt;" style="text;html=1;align=center;verticalAlign=middle;resizable=0;points=[];autosize=1;strokeColor=none;fillColor=none;" parent="22rsG9zzUfjaH9LlNHxB-1" vertex="1">
          <mxGeometry x="895" y="190" width="50" height="40" as="geometry" />
        </mxCell>
        <mxCell id="22rsG9zzUfjaH9LlNHxB-52" value="21/21&lt;br&gt;0" style="text;html=1;align=center;verticalAlign=middle;resizable=0;points=[];autosize=1;strokeColor=none;fillColor=none;" parent="22rsG9zzUfjaH9LlNHxB-1" vertex="1">
          <mxGeometry x="1215" y="190" width="50" height="40" as="geometry" />
        </mxCell>
        <mxCell id="22rsG9zzUfjaH9LlNHxB-53" value="26/26&lt;br&gt;0" style="text;html=1;align=center;verticalAlign=middle;resizable=0;points=[];autosize=1;strokeColor=none;fillColor=none;" parent="22rsG9zzUfjaH9LlNHxB-1" vertex="1">
          <mxGeometry x="1490" y="195" width="50" height="40" as="geometry" />
        </mxCell>
        <mxCell id="22rsG9zzUfjaH9LlNHxB-54" value="31/31&lt;br&gt;0" style="text;html=1;align=center;verticalAlign=middle;resizable=0;points=[];autosize=1;strokeColor=none;fillColor=none;" parent="22rsG9zzUfjaH9LlNHxB-1" vertex="1">
          <mxGeometry x="1795" y="190" width="50" height="40" as="geometry" />
        </mxCell>
        <mxCell id="22rsG9zzUfjaH9LlNHxB-55" value="51/51&lt;br&gt;0" style="text;html=1;align=center;verticalAlign=middle;resizable=0;points=[];autosize=1;strokeColor=none;fillColor=none;" parent="22rsG9zzUfjaH9LlNHxB-1" vertex="1">
          <mxGeometry x="2725" y="-60" width="50" height="40" as="geometry" />
        </mxCell>
        <mxCell id="22rsG9zzUfjaH9LlNHxB-56" value="46/46&lt;br&gt;0" style="text;html=1;align=center;verticalAlign=middle;resizable=0;points=[];autosize=1;strokeColor=none;fillColor=none;" parent="22rsG9zzUfjaH9LlNHxB-1" vertex="1">
          <mxGeometry x="2415" y="325" width="50" height="40" as="geometry" />
        </mxCell>
        <mxCell id="22rsG9zzUfjaH9LlNHxB-57" value="56/56&lt;br&gt;0" style="text;html=1;align=center;verticalAlign=middle;resizable=0;points=[];autosize=1;strokeColor=none;fillColor=none;" parent="22rsG9zzUfjaH9LlNHxB-1" vertex="1">
          <mxGeometry x="3025" y="325" width="50" height="40" as="geometry" />
        </mxCell>
        <mxCell id="22rsG9zzUfjaH9LlNHxB-58" value="36/36&lt;br&gt;0" style="text;html=1;align=center;verticalAlign=middle;resizable=0;points=[];autosize=1;strokeColor=none;fillColor=none;" parent="22rsG9zzUfjaH9LlNHxB-1" vertex="1">
          <mxGeometry x="2115" y="195" width="50" height="40" as="geometry" />
        </mxCell>
        <mxCell id="22rsG9zzUfjaH9LlNHxB-59" value="51/51&lt;br&gt;0" style="text;html=1;align=center;verticalAlign=middle;resizable=0;points=[];autosize=1;strokeColor=none;fillColor=none;" parent="22rsG9zzUfjaH9LlNHxB-1" vertex="1">
          <mxGeometry x="2725" y="325" width="50" height="40" as="geometry" />
        </mxCell>
      </root>
    </mxGraphModel>
  </diagram>
  <diagram name="SEMANA 21/10" id="jjwcE6v0izuz3Pz4Jgzc">
    <mxGraphModel grid="1" page="1" gridSize="10" guides="1" tooltips="1" connect="1" arrows="1" fold="1" pageScale="1" pageWidth="850" pageHeight="1100" math="0" shadow="0">
      <root>
        <mxCell id="FY5QKqV2nPx26BpZnf_H-0" />
        <mxCell id="FY5QKqV2nPx26BpZnf_H-1" parent="FY5QKqV2nPx26BpZnf_H-0" />
        <mxCell id="FY5QKqV2nPx26BpZnf_H-2" value="1" style="ellipse;whiteSpace=wrap;html=1;aspect=fixed;" parent="FY5QKqV2nPx26BpZnf_H-1" vertex="1">
          <mxGeometry x="20" y="240" width="80" height="80" as="geometry" />
        </mxCell>
        <mxCell id="FY5QKqV2nPx26BpZnf_H-3" value="2" style="ellipse;whiteSpace=wrap;html=1;aspect=fixed;" parent="FY5QKqV2nPx26BpZnf_H-1" vertex="1">
          <mxGeometry x="300" y="240" width="80" height="80" as="geometry" />
        </mxCell>
        <mxCell id="FY5QKqV2nPx26BpZnf_H-4" value="" style="endArrow=classic;html=1;rounded=0;entryX=0;entryY=0.5;entryDx=0;entryDy=0;strokeWidth=2;" parent="FY5QKqV2nPx26BpZnf_H-1" target="FY5QKqV2nPx26BpZnf_H-3" edge="1">
          <mxGeometry width="50" height="50" relative="1" as="geometry">
            <mxPoint x="100" y="280" as="sourcePoint" />
            <mxPoint x="150" y="230" as="targetPoint" />
          </mxGeometry>
        </mxCell>
        <mxCell id="FY5QKqV2nPx26BpZnf_H-5" value="Reunião com o cliente" style="text;html=1;align=center;verticalAlign=middle;resizable=0;points=[];autosize=1;strokeColor=none;fillColor=none;" parent="FY5QKqV2nPx26BpZnf_H-1" vertex="1">
          <mxGeometry x="130" y="250" width="140" height="30" as="geometry" />
        </mxCell>
        <mxCell id="FY5QKqV2nPx26BpZnf_H-6" value="1" style="text;html=1;align=center;verticalAlign=middle;resizable=0;points=[];autosize=1;strokeColor=none;fillColor=none;" parent="FY5QKqV2nPx26BpZnf_H-1" vertex="1">
          <mxGeometry x="185" y="280" width="30" height="30" as="geometry" />
        </mxCell>
        <mxCell id="FY5QKqV2nPx26BpZnf_H-7" value="3" style="ellipse;whiteSpace=wrap;html=1;aspect=fixed;" parent="FY5QKqV2nPx26BpZnf_H-1" vertex="1">
          <mxGeometry x="560" y="240" width="80" height="80" as="geometry" />
        </mxCell>
        <mxCell id="FY5QKqV2nPx26BpZnf_H-8" value="" style="endArrow=classic;html=1;rounded=0;entryX=0;entryY=0.5;entryDx=0;entryDy=0;strokeWidth=2;" parent="FY5QKqV2nPx26BpZnf_H-1" target="FY5QKqV2nPx26BpZnf_H-7" edge="1">
          <mxGeometry width="50" height="50" relative="1" as="geometry">
            <mxPoint x="380" y="280" as="sourcePoint" />
            <mxPoint x="430" y="230" as="targetPoint" />
          </mxGeometry>
        </mxCell>
        <mxCell id="FY5QKqV2nPx26BpZnf_H-9" value="Escrita dos requisitos" style="text;html=1;align=center;verticalAlign=middle;resizable=0;points=[];autosize=1;strokeColor=none;fillColor=none;" parent="FY5QKqV2nPx26BpZnf_H-1" vertex="1">
          <mxGeometry x="400" y="250" width="140" height="30" as="geometry" />
        </mxCell>
        <mxCell id="FY5QKqV2nPx26BpZnf_H-10" value="10" style="text;html=1;align=center;verticalAlign=middle;resizable=0;points=[];autosize=1;strokeColor=none;fillColor=none;" parent="FY5QKqV2nPx26BpZnf_H-1" vertex="1">
          <mxGeometry x="450" y="280" width="40" height="30" as="geometry" />
        </mxCell>
        <mxCell id="FY5QKqV2nPx26BpZnf_H-11" value="5" style="ellipse;whiteSpace=wrap;html=1;aspect=fixed;" parent="FY5QKqV2nPx26BpZnf_H-1" vertex="1">
          <mxGeometry x="880" y="240" width="80" height="80" as="geometry" />
        </mxCell>
        <mxCell id="FY5QKqV2nPx26BpZnf_H-12" value="" style="endArrow=classic;html=1;rounded=0;entryX=0;entryY=0.5;entryDx=0;entryDy=0;strokeWidth=2;" parent="FY5QKqV2nPx26BpZnf_H-1" target="FY5QKqV2nPx26BpZnf_H-11" edge="1">
          <mxGeometry width="50" height="50" relative="1" as="geometry">
            <mxPoint x="640" y="280" as="sourcePoint" />
            <mxPoint x="690" y="230" as="targetPoint" />
          </mxGeometry>
        </mxCell>
        <mxCell id="FY5QKqV2nPx26BpZnf_H-13" value="Revisão dos requisitos" style="text;html=1;align=center;verticalAlign=middle;resizable=0;points=[];autosize=1;strokeColor=none;fillColor=none;" parent="FY5QKqV2nPx26BpZnf_H-1" vertex="1">
          <mxGeometry x="690" y="250" width="140" height="30" as="geometry" />
        </mxCell>
        <mxCell id="FY5QKqV2nPx26BpZnf_H-14" value="8" style="text;html=1;align=center;verticalAlign=middle;resizable=0;points=[];autosize=1;strokeColor=none;fillColor=none;" parent="FY5QKqV2nPx26BpZnf_H-1" vertex="1">
          <mxGeometry x="745" y="280" width="30" height="30" as="geometry" />
        </mxCell>
        <mxCell id="FY5QKqV2nPx26BpZnf_H-15" value="9" style="ellipse;whiteSpace=wrap;html=1;aspect=fixed;" parent="FY5QKqV2nPx26BpZnf_H-1" vertex="1">
          <mxGeometry x="1200" y="240" width="80" height="80" as="geometry" />
        </mxCell>
        <mxCell id="FY5QKqV2nPx26BpZnf_H-16" value="" style="endArrow=classic;html=1;rounded=0;entryX=0;entryY=0.5;entryDx=0;entryDy=0;strokeWidth=2;" parent="FY5QKqV2nPx26BpZnf_H-1" target="FY5QKqV2nPx26BpZnf_H-15" edge="1">
          <mxGeometry width="50" height="50" relative="1" as="geometry">
            <mxPoint x="960" y="280" as="sourcePoint" />
            <mxPoint x="1010" y="230" as="targetPoint" />
          </mxGeometry>
        </mxCell>
        <mxCell id="FY5QKqV2nPx26BpZnf_H-17" value="Correção dos requisitos" style="text;html=1;align=center;verticalAlign=middle;resizable=0;points=[];autosize=1;strokeColor=none;fillColor=none;" parent="FY5QKqV2nPx26BpZnf_H-1" vertex="1">
          <mxGeometry x="1005" y="250" width="150" height="30" as="geometry" />
        </mxCell>
        <mxCell id="FY5QKqV2nPx26BpZnf_H-18" value="2" style="text;html=1;align=center;verticalAlign=middle;resizable=0;points=[];autosize=1;strokeColor=none;fillColor=none;" parent="FY5QKqV2nPx26BpZnf_H-1" vertex="1">
          <mxGeometry x="1065" y="280" width="30" height="30" as="geometry" />
        </mxCell>
        <mxCell id="FY5QKqV2nPx26BpZnf_H-19" value="10" style="ellipse;whiteSpace=wrap;html=1;aspect=fixed;" parent="FY5QKqV2nPx26BpZnf_H-1" vertex="1">
          <mxGeometry x="1475" y="240" width="80" height="80" as="geometry" />
        </mxCell>
        <mxCell id="FY5QKqV2nPx26BpZnf_H-20" value="" style="endArrow=classic;html=1;rounded=0;entryX=0;entryY=0.5;entryDx=0;entryDy=0;strokeWidth=2;" parent="FY5QKqV2nPx26BpZnf_H-1" target="FY5QKqV2nPx26BpZnf_H-19" edge="1">
          <mxGeometry width="50" height="50" relative="1" as="geometry">
            <mxPoint x="1280" y="280" as="sourcePoint" />
            <mxPoint x="1330" y="230" as="targetPoint" />
          </mxGeometry>
        </mxCell>
        <mxCell id="FY5QKqV2nPx26BpZnf_H-21" value="Escrita dos diagramas UML" style="text;html=1;align=center;verticalAlign=middle;resizable=0;points=[];autosize=1;strokeColor=none;fillColor=none;" parent="FY5QKqV2nPx26BpZnf_H-1" vertex="1">
          <mxGeometry x="1300" y="250" width="170" height="30" as="geometry" />
        </mxCell>
        <mxCell id="FY5QKqV2nPx26BpZnf_H-22" value="5" style="text;html=1;align=center;verticalAlign=middle;resizable=0;points=[];autosize=1;strokeColor=none;fillColor=none;" parent="FY5QKqV2nPx26BpZnf_H-1" vertex="1">
          <mxGeometry x="1370" y="280" width="30" height="30" as="geometry" />
        </mxCell>
        <mxCell id="FY5QKqV2nPx26BpZnf_H-23" value="11" style="ellipse;whiteSpace=wrap;html=1;aspect=fixed;" parent="FY5QKqV2nPx26BpZnf_H-1" vertex="1">
          <mxGeometry x="1780" y="240" width="80" height="80" as="geometry" />
        </mxCell>
        <mxCell id="FY5QKqV2nPx26BpZnf_H-24" value="" style="endArrow=classic;html=1;rounded=0;entryX=0;entryY=0.5;entryDx=0;entryDy=0;strokeWidth=2;exitX=1;exitY=0.5;exitDx=0;exitDy=0;" parent="FY5QKqV2nPx26BpZnf_H-1" source="FY5QKqV2nPx26BpZnf_H-19" target="FY5QKqV2nPx26BpZnf_H-23" edge="1">
          <mxGeometry width="50" height="50" relative="1" as="geometry">
            <mxPoint x="1570" y="310" as="sourcePoint" />
            <mxPoint x="1590" y="230" as="targetPoint" />
          </mxGeometry>
        </mxCell>
        <mxCell id="FY5QKqV2nPx26BpZnf_H-25" value="Revisão dos diagramas UML" style="text;html=1;align=center;verticalAlign=middle;resizable=0;points=[];autosize=1;strokeColor=none;fillColor=none;" parent="FY5QKqV2nPx26BpZnf_H-1" vertex="1">
          <mxGeometry x="1580" y="250" width="180" height="30" as="geometry" />
        </mxCell>
        <mxCell id="FY5QKqV2nPx26BpZnf_H-26" value="5" style="text;html=1;align=center;verticalAlign=middle;resizable=0;points=[];autosize=1;strokeColor=none;fillColor=none;" parent="FY5QKqV2nPx26BpZnf_H-1" vertex="1">
          <mxGeometry x="1655" y="280" width="30" height="30" as="geometry" />
        </mxCell>
        <mxCell id="FY5QKqV2nPx26BpZnf_H-27" value="12" style="ellipse;whiteSpace=wrap;html=1;aspect=fixed;" parent="FY5QKqV2nPx26BpZnf_H-1" vertex="1">
          <mxGeometry x="2100" y="240" width="80" height="80" as="geometry" />
        </mxCell>
        <mxCell id="FY5QKqV2nPx26BpZnf_H-28" value="" style="endArrow=classic;html=1;rounded=0;entryX=0;entryY=0.5;entryDx=0;entryDy=0;strokeWidth=2;" parent="FY5QKqV2nPx26BpZnf_H-1" target="FY5QKqV2nPx26BpZnf_H-27" edge="1">
          <mxGeometry width="50" height="50" relative="1" as="geometry">
            <mxPoint x="1860" y="280" as="sourcePoint" />
            <mxPoint x="1910" y="230" as="targetPoint" />
          </mxGeometry>
        </mxCell>
        <mxCell id="FY5QKqV2nPx26BpZnf_H-29" value="Correção dos diagramas UML" style="text;html=1;align=center;verticalAlign=middle;resizable=0;points=[];autosize=1;strokeColor=none;fillColor=none;" parent="FY5QKqV2nPx26BpZnf_H-1" vertex="1">
          <mxGeometry x="1890" y="250" width="180" height="30" as="geometry" />
        </mxCell>
        <mxCell id="FY5QKqV2nPx26BpZnf_H-30" value="5" style="text;html=1;align=center;verticalAlign=middle;resizable=0;points=[];autosize=1;strokeColor=none;fillColor=none;" parent="FY5QKqV2nPx26BpZnf_H-1" vertex="1">
          <mxGeometry x="1965" y="280" width="30" height="30" as="geometry" />
        </mxCell>
        <mxCell id="FY5QKqV2nPx26BpZnf_H-31" value="13" style="ellipse;whiteSpace=wrap;html=1;aspect=fixed;" parent="FY5QKqV2nPx26BpZnf_H-1" vertex="1">
          <mxGeometry x="2400" y="240" width="80" height="80" as="geometry" />
        </mxCell>
        <mxCell id="FY5QKqV2nPx26BpZnf_H-32" value="" style="endArrow=classic;html=1;rounded=0;entryX=0;entryY=0.5;entryDx=0;entryDy=0;exitX=1;exitY=0.5;exitDx=0;exitDy=0;strokeWidth=2;" parent="FY5QKqV2nPx26BpZnf_H-1" source="FY5QKqV2nPx26BpZnf_H-27" target="FY5QKqV2nPx26BpZnf_H-31" edge="1">
          <mxGeometry width="50" height="50" relative="1" as="geometry">
            <mxPoint x="2150" y="70" as="sourcePoint" />
            <mxPoint x="2210" y="20" as="targetPoint" />
            <Array as="points" />
          </mxGeometry>
        </mxCell>
        <mxCell id="FY5QKqV2nPx26BpZnf_H-33" value="Implementação das classes" style="text;html=1;align=center;verticalAlign=middle;resizable=0;points=[];autosize=1;strokeColor=none;fillColor=none;" parent="FY5QKqV2nPx26BpZnf_H-1" vertex="1">
          <mxGeometry x="2210" y="250" width="170" height="30" as="geometry" />
        </mxCell>
        <mxCell id="FY5QKqV2nPx26BpZnf_H-34" value="10" style="text;html=1;align=center;verticalAlign=middle;resizable=0;points=[];autosize=1;strokeColor=none;fillColor=none;" parent="FY5QKqV2nPx26BpZnf_H-1" vertex="1">
          <mxGeometry x="2275" y="280" width="40" height="30" as="geometry" />
        </mxCell>
        <mxCell id="FY5QKqV2nPx26BpZnf_H-35" value="14" style="ellipse;whiteSpace=wrap;html=1;aspect=fixed;" parent="FY5QKqV2nPx26BpZnf_H-1" vertex="1">
          <mxGeometry x="2710" y="-10" width="80" height="80" as="geometry" />
        </mxCell>
        <mxCell id="FY5QKqV2nPx26BpZnf_H-36" value="" style="endArrow=classic;html=1;rounded=0;entryX=0;entryY=0.5;entryDx=0;entryDy=0;exitX=0.5;exitY=0;exitDx=0;exitDy=0;" parent="FY5QKqV2nPx26BpZnf_H-1" source="FY5QKqV2nPx26BpZnf_H-31" target="FY5QKqV2nPx26BpZnf_H-35" edge="1">
          <mxGeometry width="50" height="50" relative="1" as="geometry">
            <mxPoint x="2140" y="240" as="sourcePoint" />
            <mxPoint x="2190" y="190" as="targetPoint" />
            <Array as="points">
              <mxPoint x="2440" y="30" />
            </Array>
          </mxGeometry>
        </mxCell>
        <mxCell id="FY5QKqV2nPx26BpZnf_H-37" value="Formulação de testes" style="text;html=1;align=center;verticalAlign=middle;resizable=0;points=[];autosize=1;strokeColor=none;fillColor=none;" parent="FY5QKqV2nPx26BpZnf_H-1" vertex="1">
          <mxGeometry x="2520" width="140" height="30" as="geometry" />
        </mxCell>
        <mxCell id="FY5QKqV2nPx26BpZnf_H-38" value="5" style="text;html=1;align=center;verticalAlign=middle;resizable=0;points=[];autosize=1;strokeColor=none;fillColor=none;" parent="FY5QKqV2nPx26BpZnf_H-1" vertex="1">
          <mxGeometry x="2575" y="30" width="30" height="30" as="geometry" />
        </mxCell>
        <mxCell id="FY5QKqV2nPx26BpZnf_H-39" style="edgeStyle=orthogonalEdgeStyle;rounded=0;orthogonalLoop=1;jettySize=auto;html=1;entryX=0;entryY=0.5;entryDx=0;entryDy=0;strokeWidth=2;" parent="FY5QKqV2nPx26BpZnf_H-1" source="FY5QKqV2nPx26BpZnf_H-40" target="FY5QKqV2nPx26BpZnf_H-44" edge="1">
          <mxGeometry relative="1" as="geometry" />
        </mxCell>
        <mxCell id="FY5QKqV2nPx26BpZnf_H-40" value="14" style="ellipse;whiteSpace=wrap;html=1;aspect=fixed;" parent="FY5QKqV2nPx26BpZnf_H-1" vertex="1">
          <mxGeometry x="2710" y="240" width="80" height="80" as="geometry" />
        </mxCell>
        <mxCell id="FY5QKqV2nPx26BpZnf_H-41" value="" style="endArrow=classic;html=1;rounded=0;entryX=0;entryY=0.5;entryDx=0;entryDy=0;strokeWidth=2;" parent="FY5QKqV2nPx26BpZnf_H-1" target="FY5QKqV2nPx26BpZnf_H-40" edge="1">
          <mxGeometry width="50" height="50" relative="1" as="geometry">
            <mxPoint x="2480" y="280" as="sourcePoint" />
            <mxPoint x="2530" y="230" as="targetPoint" />
          </mxGeometry>
        </mxCell>
        <mxCell id="FY5QKqV2nPx26BpZnf_H-42" value="Integração do software" style="text;html=1;align=center;verticalAlign=middle;resizable=0;points=[];autosize=1;strokeColor=none;fillColor=none;" parent="FY5QKqV2nPx26BpZnf_H-1" vertex="1">
          <mxGeometry x="2525" y="250" width="150" height="30" as="geometry" />
        </mxCell>
        <mxCell id="FY5QKqV2nPx26BpZnf_H-43" value="5" style="text;html=1;align=center;verticalAlign=middle;resizable=0;points=[];autosize=1;strokeColor=none;fillColor=none;" parent="FY5QKqV2nPx26BpZnf_H-1" vertex="1">
          <mxGeometry x="2585" y="280" width="30" height="30" as="geometry" />
        </mxCell>
        <mxCell id="FY5QKqV2nPx26BpZnf_H-44" value="15" style="ellipse;whiteSpace=wrap;html=1;aspect=fixed;" parent="FY5QKqV2nPx26BpZnf_H-1" vertex="1">
          <mxGeometry x="3010" y="240" width="80" height="80" as="geometry" />
        </mxCell>
        <mxCell id="FY5QKqV2nPx26BpZnf_H-45" value="Correção final" style="text;html=1;align=center;verticalAlign=middle;resizable=0;points=[];autosize=1;strokeColor=none;fillColor=none;" parent="FY5QKqV2nPx26BpZnf_H-1" vertex="1">
          <mxGeometry x="2850" y="250" width="100" height="30" as="geometry" />
        </mxCell>
        <mxCell id="FY5QKqV2nPx26BpZnf_H-46" value="5" style="text;html=1;align=center;verticalAlign=middle;resizable=0;points=[];autosize=1;strokeColor=none;fillColor=none;" parent="FY5QKqV2nPx26BpZnf_H-1" vertex="1">
          <mxGeometry x="2885" y="280" width="30" height="30" as="geometry" />
        </mxCell>
        <mxCell id="FY5QKqV2nPx26BpZnf_H-47" value="" style="endArrow=classic;html=1;rounded=0;entryX=0.5;entryY=0;entryDx=0;entryDy=0;dashed=1;exitX=0.5;exitY=1;exitDx=0;exitDy=0;" parent="FY5QKqV2nPx26BpZnf_H-1" source="FY5QKqV2nPx26BpZnf_H-35" target="FY5QKqV2nPx26BpZnf_H-40" edge="1">
          <mxGeometry width="50" height="50" relative="1" as="geometry">
            <mxPoint x="2480" y="70" as="sourcePoint" />
            <mxPoint x="2530" y="20" as="targetPoint" />
            <Array as="points">
              <mxPoint x="2750" y="70" />
            </Array>
          </mxGeometry>
        </mxCell>
        <mxCell id="FY5QKqV2nPx26BpZnf_H-48" value="0/0&lt;br&gt;0" style="text;html=1;align=center;verticalAlign=middle;whiteSpace=wrap;rounded=0;" parent="FY5QKqV2nPx26BpZnf_H-1" vertex="1">
          <mxGeometry x="30" y="200" width="60" height="30" as="geometry" />
        </mxCell>
        <mxCell id="FY5QKqV2nPx26BpZnf_H-49" value="1/1&lt;br&gt;0" style="text;html=1;align=center;verticalAlign=middle;resizable=0;points=[];autosize=1;strokeColor=none;fillColor=none;" parent="FY5QKqV2nPx26BpZnf_H-1" vertex="1">
          <mxGeometry x="320" y="195" width="40" height="40" as="geometry" />
        </mxCell>
        <mxCell id="FY5QKqV2nPx26BpZnf_H-50" value="11/11&lt;br&gt;0" style="text;html=1;align=center;verticalAlign=middle;resizable=0;points=[];autosize=1;strokeColor=none;fillColor=none;" parent="FY5QKqV2nPx26BpZnf_H-1" vertex="1">
          <mxGeometry x="575" y="190" width="50" height="40" as="geometry" />
        </mxCell>
        <mxCell id="FY5QKqV2nPx26BpZnf_H-51" value="19/19&lt;div&gt;0&lt;/div&gt;" style="text;html=1;align=center;verticalAlign=middle;resizable=0;points=[];autosize=1;strokeColor=none;fillColor=none;" parent="FY5QKqV2nPx26BpZnf_H-1" vertex="1">
          <mxGeometry x="895" y="190" width="50" height="40" as="geometry" />
        </mxCell>
        <mxCell id="FY5QKqV2nPx26BpZnf_H-52" value="21/21&lt;br&gt;0" style="text;html=1;align=center;verticalAlign=middle;resizable=0;points=[];autosize=1;strokeColor=none;fillColor=none;" parent="FY5QKqV2nPx26BpZnf_H-1" vertex="1">
          <mxGeometry x="1215" y="190" width="50" height="40" as="geometry" />
        </mxCell>
        <mxCell id="FY5QKqV2nPx26BpZnf_H-53" value="26/26&lt;br&gt;0" style="text;html=1;align=center;verticalAlign=middle;resizable=0;points=[];autosize=1;strokeColor=none;fillColor=none;" parent="FY5QKqV2nPx26BpZnf_H-1" vertex="1">
          <mxGeometry x="1490" y="195" width="50" height="40" as="geometry" />
        </mxCell>
        <mxCell id="FY5QKqV2nPx26BpZnf_H-54" value="31/31&lt;br&gt;0" style="text;html=1;align=center;verticalAlign=middle;resizable=0;points=[];autosize=1;strokeColor=none;fillColor=none;" parent="FY5QKqV2nPx26BpZnf_H-1" vertex="1">
          <mxGeometry x="1795" y="190" width="50" height="40" as="geometry" />
        </mxCell>
        <mxCell id="FY5QKqV2nPx26BpZnf_H-55" value="51/51&lt;br&gt;0" style="text;html=1;align=center;verticalAlign=middle;resizable=0;points=[];autosize=1;strokeColor=none;fillColor=none;" parent="FY5QKqV2nPx26BpZnf_H-1" vertex="1">
          <mxGeometry x="2725" y="-60" width="50" height="40" as="geometry" />
        </mxCell>
        <mxCell id="FY5QKqV2nPx26BpZnf_H-56" value="46/46&lt;br&gt;0" style="text;html=1;align=center;verticalAlign=middle;resizable=0;points=[];autosize=1;strokeColor=none;fillColor=none;" parent="FY5QKqV2nPx26BpZnf_H-1" vertex="1">
          <mxGeometry x="2415" y="325" width="50" height="40" as="geometry" />
        </mxCell>
        <mxCell id="FY5QKqV2nPx26BpZnf_H-57" value="56/56&lt;br&gt;0" style="text;html=1;align=center;verticalAlign=middle;resizable=0;points=[];autosize=1;strokeColor=none;fillColor=none;" parent="FY5QKqV2nPx26BpZnf_H-1" vertex="1">
          <mxGeometry x="3025" y="325" width="50" height="40" as="geometry" />
        </mxCell>
        <mxCell id="FY5QKqV2nPx26BpZnf_H-58" value="36/36&lt;br&gt;0" style="text;html=1;align=center;verticalAlign=middle;resizable=0;points=[];autosize=1;strokeColor=none;fillColor=none;" parent="FY5QKqV2nPx26BpZnf_H-1" vertex="1">
          <mxGeometry x="2115" y="195" width="50" height="40" as="geometry" />
        </mxCell>
        <mxCell id="FY5QKqV2nPx26BpZnf_H-59" value="51/51&lt;br&gt;0" style="text;html=1;align=center;verticalAlign=middle;resizable=0;points=[];autosize=1;strokeColor=none;fillColor=none;" parent="FY5QKqV2nPx26BpZnf_H-1" vertex="1">
          <mxGeometry x="2725" y="325" width="50" height="40" as="geometry" />
        </mxCell>
      </root>
    </mxGraphModel>
  </diagram>
  <diagram name="SEMANA 28/10" id="HT31-9XPkj2o4tw9m37n">
    <mxGraphModel grid="1" page="1" gridSize="10" guides="1" tooltips="1" connect="1" arrows="1" fold="1" pageScale="1" pageWidth="850" pageHeight="1100" math="0" shadow="0">
      <root>
        <mxCell id="sgph4_2gAlii3nU5JJr7-0" />
        <mxCell id="sgph4_2gAlii3nU5JJr7-1" parent="sgph4_2gAlii3nU5JJr7-0" />
        <mxCell id="sgph4_2gAlii3nU5JJr7-2" value="1" style="ellipse;whiteSpace=wrap;html=1;aspect=fixed;" parent="sgph4_2gAlii3nU5JJr7-1" vertex="1">
          <mxGeometry x="20" y="240" width="80" height="80" as="geometry" />
        </mxCell>
        <mxCell id="sgph4_2gAlii3nU5JJr7-3" value="2" style="ellipse;whiteSpace=wrap;html=1;aspect=fixed;" parent="sgph4_2gAlii3nU5JJr7-1" vertex="1">
          <mxGeometry x="300" y="240" width="80" height="80" as="geometry" />
        </mxCell>
        <mxCell id="sgph4_2gAlii3nU5JJr7-4" value="" style="endArrow=classic;html=1;rounded=0;entryX=0;entryY=0.5;entryDx=0;entryDy=0;strokeWidth=2;" parent="sgph4_2gAlii3nU5JJr7-1" target="sgph4_2gAlii3nU5JJr7-3" edge="1">
          <mxGeometry width="50" height="50" relative="1" as="geometry">
            <mxPoint x="100" y="280" as="sourcePoint" />
            <mxPoint x="150" y="230" as="targetPoint" />
          </mxGeometry>
        </mxCell>
        <mxCell id="sgph4_2gAlii3nU5JJr7-5" value="Reunião com o cliente" style="text;html=1;align=center;verticalAlign=middle;resizable=0;points=[];autosize=1;strokeColor=none;fillColor=none;" parent="sgph4_2gAlii3nU5JJr7-1" vertex="1">
          <mxGeometry x="130" y="250" width="140" height="30" as="geometry" />
        </mxCell>
        <mxCell id="sgph4_2gAlii3nU5JJr7-6" value="1" style="text;html=1;align=center;verticalAlign=middle;resizable=0;points=[];autosize=1;strokeColor=none;fillColor=none;" parent="sgph4_2gAlii3nU5JJr7-1" vertex="1">
          <mxGeometry x="185" y="280" width="30" height="30" as="geometry" />
        </mxCell>
        <mxCell id="sgph4_2gAlii3nU5JJr7-7" value="3" style="ellipse;whiteSpace=wrap;html=1;aspect=fixed;" parent="sgph4_2gAlii3nU5JJr7-1" vertex="1">
          <mxGeometry x="560" y="240" width="80" height="80" as="geometry" />
        </mxCell>
        <mxCell id="sgph4_2gAlii3nU5JJr7-8" value="" style="endArrow=classic;html=1;rounded=0;entryX=0;entryY=0.5;entryDx=0;entryDy=0;strokeWidth=2;" parent="sgph4_2gAlii3nU5JJr7-1" target="sgph4_2gAlii3nU5JJr7-7" edge="1">
          <mxGeometry width="50" height="50" relative="1" as="geometry">
            <mxPoint x="380" y="280" as="sourcePoint" />
            <mxPoint x="430" y="230" as="targetPoint" />
          </mxGeometry>
        </mxCell>
        <mxCell id="sgph4_2gAlii3nU5JJr7-9" value="Escrita dos requisitos" style="text;html=1;align=center;verticalAlign=middle;resizable=0;points=[];autosize=1;strokeColor=none;fillColor=none;" parent="sgph4_2gAlii3nU5JJr7-1" vertex="1">
          <mxGeometry x="400" y="250" width="140" height="30" as="geometry" />
        </mxCell>
        <mxCell id="sgph4_2gAlii3nU5JJr7-10" value="10" style="text;html=1;align=center;verticalAlign=middle;resizable=0;points=[];autosize=1;strokeColor=none;fillColor=none;" parent="sgph4_2gAlii3nU5JJr7-1" vertex="1">
          <mxGeometry x="450" y="280" width="40" height="30" as="geometry" />
        </mxCell>
        <mxCell id="sgph4_2gAlii3nU5JJr7-11" value="5" style="ellipse;whiteSpace=wrap;html=1;aspect=fixed;" parent="sgph4_2gAlii3nU5JJr7-1" vertex="1">
          <mxGeometry x="880" y="240" width="80" height="80" as="geometry" />
        </mxCell>
        <mxCell id="sgph4_2gAlii3nU5JJr7-12" value="" style="endArrow=classic;html=1;rounded=0;entryX=0;entryY=0.5;entryDx=0;entryDy=0;strokeWidth=2;" parent="sgph4_2gAlii3nU5JJr7-1" target="sgph4_2gAlii3nU5JJr7-11" edge="1">
          <mxGeometry width="50" height="50" relative="1" as="geometry">
            <mxPoint x="640" y="280" as="sourcePoint" />
            <mxPoint x="690" y="230" as="targetPoint" />
          </mxGeometry>
        </mxCell>
        <mxCell id="sgph4_2gAlii3nU5JJr7-13" value="Revisão dos requisitos" style="text;html=1;align=center;verticalAlign=middle;resizable=0;points=[];autosize=1;strokeColor=none;fillColor=none;" parent="sgph4_2gAlii3nU5JJr7-1" vertex="1">
          <mxGeometry x="690" y="250" width="140" height="30" as="geometry" />
        </mxCell>
        <mxCell id="sgph4_2gAlii3nU5JJr7-14" value="8" style="text;html=1;align=center;verticalAlign=middle;resizable=0;points=[];autosize=1;strokeColor=none;fillColor=none;" parent="sgph4_2gAlii3nU5JJr7-1" vertex="1">
          <mxGeometry x="745" y="280" width="30" height="30" as="geometry" />
        </mxCell>
        <mxCell id="sgph4_2gAlii3nU5JJr7-15" value="9" style="ellipse;whiteSpace=wrap;html=1;aspect=fixed;" parent="sgph4_2gAlii3nU5JJr7-1" vertex="1">
          <mxGeometry x="1200" y="240" width="80" height="80" as="geometry" />
        </mxCell>
        <mxCell id="sgph4_2gAlii3nU5JJr7-16" value="" style="endArrow=classic;html=1;rounded=0;entryX=0;entryY=0.5;entryDx=0;entryDy=0;strokeWidth=2;" parent="sgph4_2gAlii3nU5JJr7-1" target="sgph4_2gAlii3nU5JJr7-15" edge="1">
          <mxGeometry width="50" height="50" relative="1" as="geometry">
            <mxPoint x="960" y="280" as="sourcePoint" />
            <mxPoint x="1010" y="230" as="targetPoint" />
          </mxGeometry>
        </mxCell>
        <mxCell id="sgph4_2gAlii3nU5JJr7-17" value="Correção dos requisitos" style="text;html=1;align=center;verticalAlign=middle;resizable=0;points=[];autosize=1;strokeColor=none;fillColor=none;" parent="sgph4_2gAlii3nU5JJr7-1" vertex="1">
          <mxGeometry x="1005" y="250" width="150" height="30" as="geometry" />
        </mxCell>
        <mxCell id="sgph4_2gAlii3nU5JJr7-18" value="2" style="text;html=1;align=center;verticalAlign=middle;resizable=0;points=[];autosize=1;strokeColor=none;fillColor=none;" parent="sgph4_2gAlii3nU5JJr7-1" vertex="1">
          <mxGeometry x="1065" y="280" width="30" height="30" as="geometry" />
        </mxCell>
        <mxCell id="sgph4_2gAlii3nU5JJr7-19" value="10" style="ellipse;whiteSpace=wrap;html=1;aspect=fixed;" parent="sgph4_2gAlii3nU5JJr7-1" vertex="1">
          <mxGeometry x="1475" y="240" width="80" height="80" as="geometry" />
        </mxCell>
        <mxCell id="sgph4_2gAlii3nU5JJr7-20" value="" style="endArrow=classic;html=1;rounded=0;entryX=0;entryY=0.5;entryDx=0;entryDy=0;strokeWidth=2;" parent="sgph4_2gAlii3nU5JJr7-1" target="sgph4_2gAlii3nU5JJr7-19" edge="1">
          <mxGeometry width="50" height="50" relative="1" as="geometry">
            <mxPoint x="1280" y="280" as="sourcePoint" />
            <mxPoint x="1330" y="230" as="targetPoint" />
          </mxGeometry>
        </mxCell>
        <mxCell id="sgph4_2gAlii3nU5JJr7-21" value="Escrita dos diagramas UML" style="text;html=1;align=center;verticalAlign=middle;resizable=0;points=[];autosize=1;strokeColor=none;fillColor=none;" parent="sgph4_2gAlii3nU5JJr7-1" vertex="1">
          <mxGeometry x="1300" y="250" width="170" height="30" as="geometry" />
        </mxCell>
        <mxCell id="sgph4_2gAlii3nU5JJr7-22" value="5" style="text;html=1;align=center;verticalAlign=middle;resizable=0;points=[];autosize=1;strokeColor=none;fillColor=none;" parent="sgph4_2gAlii3nU5JJr7-1" vertex="1">
          <mxGeometry x="1370" y="280" width="30" height="30" as="geometry" />
        </mxCell>
        <mxCell id="sgph4_2gAlii3nU5JJr7-23" value="11" style="ellipse;whiteSpace=wrap;html=1;aspect=fixed;" parent="sgph4_2gAlii3nU5JJr7-1" vertex="1">
          <mxGeometry x="1780" y="240" width="80" height="80" as="geometry" />
        </mxCell>
        <mxCell id="sgph4_2gAlii3nU5JJr7-24" value="" style="endArrow=classic;html=1;rounded=0;entryX=0;entryY=0.5;entryDx=0;entryDy=0;strokeWidth=2;exitX=1;exitY=0.5;exitDx=0;exitDy=0;" parent="sgph4_2gAlii3nU5JJr7-1" source="sgph4_2gAlii3nU5JJr7-19" target="sgph4_2gAlii3nU5JJr7-23" edge="1">
          <mxGeometry width="50" height="50" relative="1" as="geometry">
            <mxPoint x="1570" y="310" as="sourcePoint" />
            <mxPoint x="1590" y="230" as="targetPoint" />
          </mxGeometry>
        </mxCell>
        <mxCell id="sgph4_2gAlii3nU5JJr7-25" value="Revisão dos diagramas UML" style="text;html=1;align=center;verticalAlign=middle;resizable=0;points=[];autosize=1;strokeColor=none;fillColor=none;" parent="sgph4_2gAlii3nU5JJr7-1" vertex="1">
          <mxGeometry x="1580" y="250" width="180" height="30" as="geometry" />
        </mxCell>
        <mxCell id="sgph4_2gAlii3nU5JJr7-26" value="5" style="text;html=1;align=center;verticalAlign=middle;resizable=0;points=[];autosize=1;strokeColor=none;fillColor=none;" parent="sgph4_2gAlii3nU5JJr7-1" vertex="1">
          <mxGeometry x="1655" y="280" width="30" height="30" as="geometry" />
        </mxCell>
        <mxCell id="sgph4_2gAlii3nU5JJr7-27" value="12" style="ellipse;whiteSpace=wrap;html=1;aspect=fixed;" parent="sgph4_2gAlii3nU5JJr7-1" vertex="1">
          <mxGeometry x="2100" y="240" width="80" height="80" as="geometry" />
        </mxCell>
        <mxCell id="sgph4_2gAlii3nU5JJr7-28" value="" style="endArrow=classic;html=1;rounded=0;entryX=0;entryY=0.5;entryDx=0;entryDy=0;strokeWidth=2;" parent="sgph4_2gAlii3nU5JJr7-1" target="sgph4_2gAlii3nU5JJr7-27" edge="1">
          <mxGeometry width="50" height="50" relative="1" as="geometry">
            <mxPoint x="1860" y="280" as="sourcePoint" />
            <mxPoint x="1910" y="230" as="targetPoint" />
          </mxGeometry>
        </mxCell>
        <mxCell id="sgph4_2gAlii3nU5JJr7-29" value="Correção dos diagramas UML" style="text;html=1;align=center;verticalAlign=middle;resizable=0;points=[];autosize=1;strokeColor=none;fillColor=none;" parent="sgph4_2gAlii3nU5JJr7-1" vertex="1">
          <mxGeometry x="1890" y="250" width="180" height="30" as="geometry" />
        </mxCell>
        <mxCell id="sgph4_2gAlii3nU5JJr7-30" value="5" style="text;html=1;align=center;verticalAlign=middle;resizable=0;points=[];autosize=1;strokeColor=none;fillColor=none;" parent="sgph4_2gAlii3nU5JJr7-1" vertex="1">
          <mxGeometry x="1965" y="280" width="30" height="30" as="geometry" />
        </mxCell>
        <mxCell id="sgph4_2gAlii3nU5JJr7-31" value="13" style="ellipse;whiteSpace=wrap;html=1;aspect=fixed;" parent="sgph4_2gAlii3nU5JJr7-1" vertex="1">
          <mxGeometry x="2400" y="240" width="80" height="80" as="geometry" />
        </mxCell>
        <mxCell id="sgph4_2gAlii3nU5JJr7-32" value="" style="endArrow=classic;html=1;rounded=0;entryX=0;entryY=0.5;entryDx=0;entryDy=0;exitX=1;exitY=0.5;exitDx=0;exitDy=0;strokeWidth=2;" parent="sgph4_2gAlii3nU5JJr7-1" source="sgph4_2gAlii3nU5JJr7-27" target="sgph4_2gAlii3nU5JJr7-31" edge="1">
          <mxGeometry width="50" height="50" relative="1" as="geometry">
            <mxPoint x="2150" y="70" as="sourcePoint" />
            <mxPoint x="2210" y="20" as="targetPoint" />
            <Array as="points" />
          </mxGeometry>
        </mxCell>
        <mxCell id="sgph4_2gAlii3nU5JJr7-33" value="Implementação das classes" style="text;html=1;align=center;verticalAlign=middle;resizable=0;points=[];autosize=1;strokeColor=none;fillColor=none;" parent="sgph4_2gAlii3nU5JJr7-1" vertex="1">
          <mxGeometry x="2210" y="250" width="170" height="30" as="geometry" />
        </mxCell>
        <mxCell id="sgph4_2gAlii3nU5JJr7-34" value="10" style="text;html=1;align=center;verticalAlign=middle;resizable=0;points=[];autosize=1;strokeColor=none;fillColor=none;" parent="sgph4_2gAlii3nU5JJr7-1" vertex="1">
          <mxGeometry x="2275" y="280" width="40" height="30" as="geometry" />
        </mxCell>
        <mxCell id="sgph4_2gAlii3nU5JJr7-35" value="14" style="ellipse;whiteSpace=wrap;html=1;aspect=fixed;" parent="sgph4_2gAlii3nU5JJr7-1" vertex="1">
          <mxGeometry x="2710" y="-10" width="80" height="80" as="geometry" />
        </mxCell>
        <mxCell id="sgph4_2gAlii3nU5JJr7-36" value="" style="endArrow=classic;html=1;rounded=0;entryX=0;entryY=0.5;entryDx=0;entryDy=0;exitX=0.5;exitY=0;exitDx=0;exitDy=0;" parent="sgph4_2gAlii3nU5JJr7-1" source="sgph4_2gAlii3nU5JJr7-31" target="sgph4_2gAlii3nU5JJr7-35" edge="1">
          <mxGeometry width="50" height="50" relative="1" as="geometry">
            <mxPoint x="2140" y="240" as="sourcePoint" />
            <mxPoint x="2190" y="190" as="targetPoint" />
            <Array as="points">
              <mxPoint x="2440" y="30" />
            </Array>
          </mxGeometry>
        </mxCell>
        <mxCell id="sgph4_2gAlii3nU5JJr7-37" value="Formulação de testes" style="text;html=1;align=center;verticalAlign=middle;resizable=0;points=[];autosize=1;strokeColor=none;fillColor=none;" parent="sgph4_2gAlii3nU5JJr7-1" vertex="1">
          <mxGeometry x="2520" width="140" height="30" as="geometry" />
        </mxCell>
        <mxCell id="sgph4_2gAlii3nU5JJr7-38" value="5" style="text;html=1;align=center;verticalAlign=middle;resizable=0;points=[];autosize=1;strokeColor=none;fillColor=none;" parent="sgph4_2gAlii3nU5JJr7-1" vertex="1">
          <mxGeometry x="2575" y="30" width="30" height="30" as="geometry" />
        </mxCell>
        <mxCell id="sgph4_2gAlii3nU5JJr7-39" style="edgeStyle=orthogonalEdgeStyle;rounded=0;orthogonalLoop=1;jettySize=auto;html=1;entryX=0;entryY=0.5;entryDx=0;entryDy=0;strokeWidth=2;" parent="sgph4_2gAlii3nU5JJr7-1" source="sgph4_2gAlii3nU5JJr7-40" target="sgph4_2gAlii3nU5JJr7-44" edge="1">
          <mxGeometry relative="1" as="geometry" />
        </mxCell>
        <mxCell id="sgph4_2gAlii3nU5JJr7-40" value="14" style="ellipse;whiteSpace=wrap;html=1;aspect=fixed;" parent="sgph4_2gAlii3nU5JJr7-1" vertex="1">
          <mxGeometry x="2710" y="240" width="80" height="80" as="geometry" />
        </mxCell>
        <mxCell id="sgph4_2gAlii3nU5JJr7-41" value="" style="endArrow=classic;html=1;rounded=0;entryX=0;entryY=0.5;entryDx=0;entryDy=0;strokeWidth=2;" parent="sgph4_2gAlii3nU5JJr7-1" target="sgph4_2gAlii3nU5JJr7-40" edge="1">
          <mxGeometry width="50" height="50" relative="1" as="geometry">
            <mxPoint x="2480" y="280" as="sourcePoint" />
            <mxPoint x="2530" y="230" as="targetPoint" />
          </mxGeometry>
        </mxCell>
        <mxCell id="sgph4_2gAlii3nU5JJr7-42" value="Integração do software" style="text;html=1;align=center;verticalAlign=middle;resizable=0;points=[];autosize=1;strokeColor=none;fillColor=none;" parent="sgph4_2gAlii3nU5JJr7-1" vertex="1">
          <mxGeometry x="2525" y="250" width="150" height="30" as="geometry" />
        </mxCell>
        <mxCell id="sgph4_2gAlii3nU5JJr7-43" value="5" style="text;html=1;align=center;verticalAlign=middle;resizable=0;points=[];autosize=1;strokeColor=none;fillColor=none;" parent="sgph4_2gAlii3nU5JJr7-1" vertex="1">
          <mxGeometry x="2585" y="280" width="30" height="30" as="geometry" />
        </mxCell>
        <mxCell id="sgph4_2gAlii3nU5JJr7-44" value="15" style="ellipse;whiteSpace=wrap;html=1;aspect=fixed;" parent="sgph4_2gAlii3nU5JJr7-1" vertex="1">
          <mxGeometry x="3010" y="240" width="80" height="80" as="geometry" />
        </mxCell>
        <mxCell id="sgph4_2gAlii3nU5JJr7-45" value="Correção final" style="text;html=1;align=center;verticalAlign=middle;resizable=0;points=[];autosize=1;strokeColor=none;fillColor=none;" parent="sgph4_2gAlii3nU5JJr7-1" vertex="1">
          <mxGeometry x="2850" y="250" width="100" height="30" as="geometry" />
        </mxCell>
        <mxCell id="sgph4_2gAlii3nU5JJr7-46" value="5" style="text;html=1;align=center;verticalAlign=middle;resizable=0;points=[];autosize=1;strokeColor=none;fillColor=none;" parent="sgph4_2gAlii3nU5JJr7-1" vertex="1">
          <mxGeometry x="2885" y="280" width="30" height="30" as="geometry" />
        </mxCell>
        <mxCell id="sgph4_2gAlii3nU5JJr7-47" value="" style="endArrow=classic;html=1;rounded=0;entryX=0.5;entryY=0;entryDx=0;entryDy=0;dashed=1;exitX=0.5;exitY=1;exitDx=0;exitDy=0;" parent="sgph4_2gAlii3nU5JJr7-1" source="sgph4_2gAlii3nU5JJr7-35" target="sgph4_2gAlii3nU5JJr7-40" edge="1">
          <mxGeometry width="50" height="50" relative="1" as="geometry">
            <mxPoint x="2480" y="70" as="sourcePoint" />
            <mxPoint x="2530" y="20" as="targetPoint" />
            <Array as="points">
              <mxPoint x="2750" y="70" />
            </Array>
          </mxGeometry>
        </mxCell>
        <mxCell id="sgph4_2gAlii3nU5JJr7-48" value="0/0&lt;br&gt;0" style="text;html=1;align=center;verticalAlign=middle;whiteSpace=wrap;rounded=0;" parent="sgph4_2gAlii3nU5JJr7-1" vertex="1">
          <mxGeometry x="30" y="200" width="60" height="30" as="geometry" />
        </mxCell>
        <mxCell id="sgph4_2gAlii3nU5JJr7-49" value="1/1&lt;br&gt;0" style="text;html=1;align=center;verticalAlign=middle;resizable=0;points=[];autosize=1;strokeColor=none;fillColor=none;" parent="sgph4_2gAlii3nU5JJr7-1" vertex="1">
          <mxGeometry x="320" y="195" width="40" height="40" as="geometry" />
        </mxCell>
        <mxCell id="sgph4_2gAlii3nU5JJr7-50" value="11/11&lt;br&gt;0" style="text;html=1;align=center;verticalAlign=middle;resizable=0;points=[];autosize=1;strokeColor=none;fillColor=none;" parent="sgph4_2gAlii3nU5JJr7-1" vertex="1">
          <mxGeometry x="575" y="190" width="50" height="40" as="geometry" />
        </mxCell>
        <mxCell id="sgph4_2gAlii3nU5JJr7-51" value="19/19&lt;div&gt;0&lt;/div&gt;" style="text;html=1;align=center;verticalAlign=middle;resizable=0;points=[];autosize=1;strokeColor=none;fillColor=none;" parent="sgph4_2gAlii3nU5JJr7-1" vertex="1">
          <mxGeometry x="895" y="190" width="50" height="40" as="geometry" />
        </mxCell>
        <mxCell id="sgph4_2gAlii3nU5JJr7-52" value="21/21&lt;br&gt;0" style="text;html=1;align=center;verticalAlign=middle;resizable=0;points=[];autosize=1;strokeColor=none;fillColor=none;" parent="sgph4_2gAlii3nU5JJr7-1" vertex="1">
          <mxGeometry x="1215" y="190" width="50" height="40" as="geometry" />
        </mxCell>
        <mxCell id="sgph4_2gAlii3nU5JJr7-53" value="26/26&lt;br&gt;0" style="text;html=1;align=center;verticalAlign=middle;resizable=0;points=[];autosize=1;strokeColor=none;fillColor=none;" parent="sgph4_2gAlii3nU5JJr7-1" vertex="1">
          <mxGeometry x="1490" y="195" width="50" height="40" as="geometry" />
        </mxCell>
        <mxCell id="sgph4_2gAlii3nU5JJr7-54" value="31/31&lt;br&gt;0" style="text;html=1;align=center;verticalAlign=middle;resizable=0;points=[];autosize=1;strokeColor=none;fillColor=none;" parent="sgph4_2gAlii3nU5JJr7-1" vertex="1">
          <mxGeometry x="1795" y="190" width="50" height="40" as="geometry" />
        </mxCell>
        <mxCell id="sgph4_2gAlii3nU5JJr7-55" value="51/51&lt;br&gt;0" style="text;html=1;align=center;verticalAlign=middle;resizable=0;points=[];autosize=1;strokeColor=none;fillColor=none;" parent="sgph4_2gAlii3nU5JJr7-1" vertex="1">
          <mxGeometry x="2725" y="-60" width="50" height="40" as="geometry" />
        </mxCell>
        <mxCell id="sgph4_2gAlii3nU5JJr7-56" value="46/46&lt;br&gt;0" style="text;html=1;align=center;verticalAlign=middle;resizable=0;points=[];autosize=1;strokeColor=none;fillColor=none;" parent="sgph4_2gAlii3nU5JJr7-1" vertex="1">
          <mxGeometry x="2415" y="325" width="50" height="40" as="geometry" />
        </mxCell>
        <mxCell id="sgph4_2gAlii3nU5JJr7-57" value="56/56&lt;br&gt;0" style="text;html=1;align=center;verticalAlign=middle;resizable=0;points=[];autosize=1;strokeColor=none;fillColor=none;" parent="sgph4_2gAlii3nU5JJr7-1" vertex="1">
          <mxGeometry x="3025" y="325" width="50" height="40" as="geometry" />
        </mxCell>
        <mxCell id="sgph4_2gAlii3nU5JJr7-58" value="36/36&lt;br&gt;0" style="text;html=1;align=center;verticalAlign=middle;resizable=0;points=[];autosize=1;strokeColor=none;fillColor=none;" parent="sgph4_2gAlii3nU5JJr7-1" vertex="1">
          <mxGeometry x="2115" y="195" width="50" height="40" as="geometry" />
        </mxCell>
        <mxCell id="sgph4_2gAlii3nU5JJr7-59" value="51/51&lt;br&gt;0" style="text;html=1;align=center;verticalAlign=middle;resizable=0;points=[];autosize=1;strokeColor=none;fillColor=none;" parent="sgph4_2gAlii3nU5JJr7-1" vertex="1">
          <mxGeometry x="2725" y="325" width="50" height="40" as="geometry" />
        </mxCell>
      </root>
    </mxGraphModel>
  </diagram>
</mxfile>
